<?xml version="1.0" standalone="no"?>
<!DOCTYPE svg PUBLIC "-//W3C//DTD SVG 20010904//EN"
 "http://www.w3.org/TR/2001/REC-SVG-20010904/DTD/svg10.dtd">
<svg version="1.0" xmlns="http://www.w3.org/2000/svg"
 width="432.000000pt" height="432.000000pt" viewBox="0 0 432.000000 432.000000"
 preserveAspectRatio="xMidYMid meet">
<metadata>
Created by potrace 1.14, written by Peter Selinger 2001-2017
</metadata>
<g transform="translate(0.000000,432.000000) scale(0.100000,-0.100000)"
fill="#000000" stroke="none">
<path d="M0 4200 l0 -120 24 0 c14 0 28 5 31 10 3 6 17 10 31 10 13 0 32 4 42
9 25 13 122 41 141 41 24 -1 -29 -29 -55 -30 -11 0 -24 -4 -30 -8 -5 -4 -34
-16 -64 -26 -30 -11 -59 -23 -64 -27 -6 -5 -20 -9 -33 -9 l-23 0 0 -549 c0
-515 1 -550 18 -554 16 -4 16 -5 0 -6 -16 -1 -18 -12 -18 -86 l0 -85 70 2 c48
1 67 5 60 12 -5 5 -10 15 -10 20 0 6 5 5 12 -2 15 -15 65 -16 70 0 2 6 47 17
99 25 51 8 111 16 132 20 20 3 40 9 43 14 3 5 20 9 39 9 19 0 44 4 57 10 13 5
75 14 138 19 141 12 208 23 238 40 30 16 39 8 24 -22 -21 -43 -36 -303 -22
-396 l5 -35 -135 -23 c-74 -13 -162 -28 -195 -33 -54 -9 -135 -22 -295 -50
-146 -25 -249 -42 -288 -47 -23 -3 -42 -11 -42 -18 0 -14 98 -9 115 6 5 5 25
9 45 9 19 0 51 4 70 10 32 9 68 15 225 40 101 16 242 40 330 56 142 26 178 29
173 13 -3 -8 -24 -17 -49 -21 -24 -3 -91 -13 -149 -22 -58 -8 -132 -20 -165
-26 -114 -21 -338 -57 -420 -66 -56 -6 -106 -26 -125 -49 -16 -19 -1 -20 25
-1 12 8 61 16 125 19 58 4 119 8 135 11 17 3 54 8 83 12 29 4 55 11 58 15 3 5
16 9 29 9 13 0 27 5 30 10 3 6 23 10 43 10 20 0 48 6 62 13 14 7 56 14 95 16
58 2 127 15 207 37 13 4 20 -5 29 -38 6 -24 15 -52 19 -63 5 -11 16 -47 25
-80 10 -33 24 -74 31 -92 8 -17 14 -34 14 -38 0 -12 74 -160 82 -163 4 -2 8
-14 8 -27 0 -12 7 -28 15 -35 8 -7 15 -16 15 -21 0 -5 16 -33 35 -63 19 -30
35 -59 35 -63 0 -21 245 -238 286 -253 20 -8 23 -15 18 -34 -3 -13 -1 -27 5
-30 14 -9 14 -46 1 -46 -5 0 -10 8 -10 18 0 9 -8 26 -16 37 -15 19 -16 18 -10
-17 5 -26 3 -38 -5 -38 -9 0 -9 -3 0 -14 6 -8 10 -20 9 -27 -2 -7 12 -16 32
-21 20 -5 49 -19 64 -32 l29 -22 -22 -21 c-14 -13 -18 -23 -12 -27 5 -4 16 5
24 20 9 17 17 23 21 15 4 -6 18 -11 32 -11 14 0 45 -5 69 -11 39 -10 44 -15
43 -36 -2 -22 -28 -42 -58 -47 -3 -1 -28 -16 -56 -34 -28 -17 -56 -32 -62 -32
-6 0 -18 -10 -26 -22 -9 -13 -16 -16 -16 -9 0 10 -12 12 -52 7 -107 -12 -187
-24 -197 -30 -6 -4 -47 -7 -90 -8 -83 0 -170 21 -192 48 -7 8 -20 12 -31 8
-26 -8 -58 22 -121 116 -60 90 -56 85 -63 78 -3 -4 7 -24 21 -47 15 -22 25
-45 23 -51 -3 -10 -18 8 -93 111 l-30 41 -5 -28 c-5 -25 -6 -26 -19 -10 -18
22 -17 95 2 138 8 18 23 56 32 83 18 51 53 133 84 195 16 31 31 80 62 200 27
106 38 310 19 340 -7 10 -10 -18 -10 -89 0 -58 -4 -118 -9 -135 -5 -17 -17
-67 -26 -111 -19 -98 -33 -150 -51 -191 -13 -30 -17 -31 -76 -34 -35 -1 -73
-3 -85 -4 -28 -1 -81 -52 -99 -95 -16 -38 -19 -111 -4 -111 6 0 10 17 10 39 0
43 23 74 33 44 4 -10 13 -36 21 -58 9 -22 16 -65 16 -95 0 -30 7 -68 15 -84 8
-15 15 -32 15 -37 0 -5 11 -27 25 -49 14 -22 24 -47 23 -57 -2 -33 2 -53 12
-53 6 0 10 6 10 14 0 7 6 19 14 25 11 9 19 5 37 -20 l22 -31 -22 7 c-15 5 -21
2 -21 -9 0 -9 6 -16 14 -16 7 0 19 -15 26 -33 6 -17 16 -40 21 -49 5 -10 9
-28 9 -41 0 -13 4 -27 9 -32 5 -6 11 -36 15 -67 5 -44 3 -60 -9 -72 -11 -11
-13 -20 -6 -33 5 -10 12 -26 15 -35 3 -10 10 -18 16 -18 6 0 4 13 -5 31 -17
32 -17 43 0 31 21 -15 105 -133 105 -147 0 -8 7 -15 15 -15 9 0 15 -10 16 -22
0 -13 3 -17 6 -10 2 6 9 12 14 12 14 0 10 -26 -6 -40 -20 -17 -19 -27 5 -33
20 -5 54 23 35 30 -5 1 -10 21 -9 43 0 36 -1 39 -22 34 -17 -4 -28 3 -50 33
-16 21 -31 40 -34 43 -3 3 -11 15 -18 28 -10 19 -10 22 4 22 15 0 14 10 -4 59
-9 24 22 6 38 -23 13 -24 13 -28 0 -37 -12 -8 -9 -9 9 -4 13 4 33 3 45 -3 55
-25 80 -32 96 -27 25 8 33 -10 18 -36 -11 -17 -11 -22 0 -26 9 -4 7 -14 -9
-39 -12 -19 -18 -38 -14 -42 4 -4 10 -1 12 5 3 8 14 11 26 8 17 -4 27 3 45 30
23 36 62 48 62 20 0 -8 -5 -15 -11 -15 -6 0 -9 -6 -7 -12 3 -7 -3 -21 -13 -32
-16 -16 -16 -20 -3 -33 18 -19 18 -37 -1 -30 -8 4 -17 2 -20 -3 -4 -6 3 -10
14 -10 20 0 37 -17 27 -27 -9 -9 -119 -4 -129 6 -5 5 -16 7 -25 4 -12 -5 -14
-1 -8 23 l6 29 -22 -26 c-20 -23 -27 -25 -50 -17 -16 5 -28 17 -28 26 -1 15
-2 15 -11 -1 -11 -19 -44 -23 -54 -7 -3 6 -18 10 -33 10 -31 1 -62 21 -62 41
0 10 3 10 12 1 7 -7 27 -12 44 -12 18 0 36 -5 39 -10 3 -6 11 -10 17 -10 7 0
2 9 -10 20 -12 11 -34 20 -49 20 -23 0 -32 7 -45 36 -13 28 -14 41 -6 54 9 14
8 26 -4 51 -9 18 -14 39 -10 47 3 9 1 13 -4 10 -5 -3 -10 14 -12 37 -2 49 14
70 24 30 3 -14 11 -25 16 -25 6 0 8 10 5 23 -3 12 -9 39 -12 60 -4 20 -11 40
-16 43 -5 3 -9 16 -9 30 0 13 -4 24 -10 24 -5 0 -10 12 -10 28 0 15 -7 38 -16
50 -10 15 -14 32 -9 50 6 26 6 26 -12 9 -13 -13 -15 -21 -7 -35 6 -9 19 -44
28 -77 10 -33 22 -69 27 -80 14 -33 15 -58 2 -62 -8 -3 -13 5 -13 21 0 15 -4
34 -9 44 -11 21 -34 83 -51 137 -14 45 -27 65 -43 65 -7 0 -7 -4 1 -12 7 -7
12 -20 12 -30 0 -10 5 -18 11 -18 6 0 9 -6 6 -12 -2 -7 -11 -12 -20 -10 -8 1
-18 -2 -22 -8 -3 -5 1 -10 9 -10 8 0 20 -9 26 -19 13 -25 13 -91 0 -91 -5 0
-9 3 -8 7 1 5 -5 19 -14 33 -9 14 -19 42 -22 63 -4 21 -18 58 -32 82 -13 24
-24 51 -24 59 0 9 -5 16 -11 16 -13 0 -4 -47 18 -90 8 -17 16 -47 18 -67 l3
-37 -19 24 c-10 14 -19 33 -19 43 0 9 -4 17 -9 17 -5 0 -18 3 -28 7 -15 5 -16
4 -7 -8 47 -58 105 -214 89 -239 -10 -17 -25 -11 -25 10 0 27 -18 25 -23 -2
-3 -18 -5 -16 -6 7 0 17 4 36 11 43 9 9 7 13 -6 18 -13 5 -14 9 -5 20 9 11 8
14 -5 14 -10 0 -16 9 -16 23 l0 22 -19 -24 c-18 -24 -18 -25 1 -59 12 -23 16
-38 9 -46 -6 -8 -3 -19 9 -36 34 -44 14 -86 -20 -45 -7 9 -21 13 -31 10 -25
-8 -24 7 1 30 22 20 27 60 9 71 -7 4 -9 20 -6 40 3 18 2 33 -3 31 -4 -1 -17 9
-29 22 -12 13 -21 22 -21 20 0 -10 37 -110 43 -116 12 -11 8 -50 -6 -62 -16
-12 -28 -5 -21 13 2 6 -6 33 -20 59 -31 62 -110 170 -114 157 -2 -5 -8 -10
-14 -10 -6 0 -5 6 2 15 10 12 8 22 -14 55 -19 30 -22 40 -12 40 8 0 18 -5 21
-10 9 -14 25 -2 25 18 0 11 17 25 45 37 25 11 45 23 45 28 0 12 -20 8 -53 -9
-60 -31 -67 -34 -88 -34 -34 0 -76 -50 -72 -85 2 -16 6 -52 9 -80 3 -27 8 -57
11 -65 4 -8 7 -18 7 -22 1 -4 7 -13 14 -19 12 -13 17 -49 6 -49 -12 0 -34 29
-34 46 0 13 -3 14 -15 4 -13 -11 -15 -7 -15 24 0 20 -5 36 -11 36 -7 0 -10
-18 -7 -49 2 -38 0 -47 -11 -43 -7 3 -17 -1 -21 -8 -12 -19 -36 2 -45 37 -5
21 -1 31 17 44 12 10 20 21 16 25 -4 4 -14 2 -22 -5 -10 -8 -21 -9 -41 -1 -35
13 -45 4 -17 -16 12 -8 19 -21 16 -29 -4 -9 0 -15 8 -15 9 0 14 -11 13 -32 0
-29 -4 -33 -39 -40 -29 -6 -42 -5 -48 4 -6 10 -8 9 -8 -3 0 -9 -8 -20 -17 -23
-12 -5 -13 -10 -5 -18 8 -8 19 -7 42 2 26 11 33 10 50 -5 20 -18 17 -45 -5
-45 -7 0 -16 -12 -20 -28 -3 -15 -25 -46 -48 -69 -22 -24 -38 -45 -35 -48 5
-5 62 54 105 110 13 16 26 26 29 22 4 -4 -3 -18 -16 -32 -21 -22 -20 -30 2
-26 11 1 10 -17 -2 -40 -6 -10 -20 -19 -31 -19 -12 0 -17 -4 -13 -11 4 -8 -1
-9 -16 -4 -19 6 -22 4 -17 -9 4 -11 3 -15 -4 -11 -13 9 -39 -13 -39 -34 1 -13
3 -13 15 3 15 19 15 19 15 -2 0 -28 7 -28 30 0 10 13 22 19 27 15 4 -5 -7 -22
-25 -39 -19 -16 -31 -32 -27 -36 4 -4 22 10 40 31 17 20 35 37 39 37 12 0 6
-28 -9 -40 -9 -7 -13 -20 -11 -29 7 -23 -28 -63 -48 -55 -12 5 -14 10 -6 19 8
9 4 17 -15 29 -14 9 -25 12 -25 7 0 -5 4 -13 10 -16 6 -4 5 -13 -2 -24 -10
-16 -6 -24 21 -49 29 -26 31 -32 21 -51 -9 -18 -14 -20 -26 -10 -8 6 -18 9
-22 5 -4 -4 1 -12 11 -17 21 -12 23 -33 2 -25 -9 3 -15 0 -15 -9 0 -7 9 -16
19 -20 11 -3 22 -12 25 -20 7 -20 26 -19 26 1 0 14 3 14 15 4 15 -13 20 -42 9
-53 -4 -3 -16 0 -28 8 -26 19 -37 19 -30 0 7 -18 -7 -20 -24 -3 -9 9 -12 8
-12 -5 0 -9 7 -17 15 -17 8 0 15 -7 15 -15 0 -8 -7 -15 -15 -15 -11 0 -15 -12
-15 -45 0 -38 3 -45 20 -45 11 0 20 -6 20 -13 0 -21 -12 -28 -27 -16 -9 8 -13
8 -13 1 0 -6 4 -13 9 -16 13 -9 41 4 41 18 0 8 12 11 35 8 22 -3 35 0 35 7 0
7 4 9 10 6 6 -4 2 -15 -10 -27 -22 -24 -26 -38 -10 -38 6 0 10 5 10 10 0 6 7
10 15 10 8 0 15 -4 15 -10 0 -21 58 -10 78 15 25 32 47 32 89 -1 19 -14 37
-23 40 -20 4 3 1 6 -5 6 -7 0 -12 5 -12 10 0 15 64 12 86 -5 10 -8 32 -15 48
-15 24 0 27 2 16 15 -11 13 -8 15 19 15 21 0 31 -5 31 -15 0 -19 106 -22 113
-2 4 9 8 9 14 1 5 -7 44 -12 101 -13 81 0 92 2 92 17 1 16 1 16 14 0 10 -14
28 -18 75 -18 41 0 61 4 61 12 0 9 3 9 12 0 15 -15 90 -16 105 -1 8 8 13 8 17
0 10 -16 59 -14 53 2 -2 6 -1 21 4 32 7 17 8 16 8 -8 1 -31 24 -45 45 -28 11
9 19 9 36 -1 18 -11 23 -11 34 5 16 21 26 22 26 2 0 -21 36 -19 45 3 6 16 7
16 19 0 17 -23 26 -23 26 0 1 16 1 16 11 0 7 -12 22 -18 49 -18 l39 0 -21 51
c-20 47 -23 50 -35 33 -16 -22 -17 -8 -2 36 l12 32 26 -53 c55 -111 81 -130
81 -60 0 46 13 59 36 37 14 -15 14 -17 0 -22 -9 -3 -16 -17 -16 -30 0 -21 4
-24 40 -24 33 0 40 4 40 19 0 19 27 37 39 26 3 -3 0 -15 -7 -25 -11 -19 -9
-20 24 -20 31 0 35 2 24 15 -15 18 -6 45 15 45 9 0 18 -12 22 -30 l6 -30 91 0
c58 0 96 4 104 12 9 9 15 9 24 0 7 -7 21 -12 31 -12 14 0 17 4 12 17 -13 33
-11 48 8 45 9 -2 17 2 17 8 0 5 8 10 18 10 16 -1 16 -1 0 -14 -10 -7 -18 -25
-18 -39 0 -23 3 -25 50 -24 40 0 51 4 56 20 3 11 1 22 -5 26 -6 4 -3 11 8 18
16 10 21 6 38 -25 l19 -37 84 -2 c55 -1 88 3 92 10 6 9 11 8 17 -2 8 -13 16
-12 53 2 37 15 44 15 53 3 12 -16 170 -22 160 -6 -3 5 -1 11 4 14 5 4 13 2 16
-4 4 -6 15 -8 26 -5 11 4 19 2 19 -4 0 -14 77 -14 86 0 4 8 9 7 15 -2 7 -11
12 -12 28 -2 13 8 22 9 26 3 3 -6 13 -10 22 -10 12 0 13 3 4 14 -8 10 -8 16 3
25 11 9 15 9 20 -1 5 -10 7 -10 12 0 11 23 26 13 20 -13 -6 -22 -3 -25 18 -25
26 0 86 30 86 43 0 5 5 5 10 2 7 -4 7 -13 0 -26 -9 -15 -7 -19 5 -19 26 0 44
25 39 51 -5 23 -5 23 10 6 8 -11 12 -26 9 -34 -5 -13 -2 -13 15 -4 28 15 32
14 26 -4 -7 -18 17 -20 33 -4 8 8 13 8 17 0 5 -8 159 -11 512 -11 l504 0 0
175 c0 133 -3 175 -12 176 -7 0 -67 1 -134 1 -108 1 -122 3 -133 20 -10 16 -9
22 6 35 17 14 17 14 -2 10 -21 -4 -45 13 -45 33 0 5 -4 10 -10 10 -5 0 -10 10
-10 23 0 17 -2 19 -10 7 -5 -9 -5 -19 1 -27 11 -12 4 -33 -10 -33 -4 0 -18 19
-31 42 -13 23 -25 37 -28 30 -2 -6 6 -24 17 -38 12 -15 21 -32 21 -39 0 -6 9
-20 20 -30 31 -28 26 -47 -12 -43 -27 2 -39 12 -63 50 -28 45 -59 67 -73 54
-3 -4 0 -12 6 -18 14 -14 16 -28 3 -28 -17 0 -44 51 -33 62 8 8 4 16 -11 29
-24 19 -23 23 11 33 16 6 22 3 22 -8 0 -25 16 -19 29 11 l13 28 15 -28 c9 -19
20 -27 30 -23 8 3 17 6 19 6 2 0 4 5 4 11 0 6 -9 8 -20 4 -27 -9 -26 14 2 24
20 7 19 9 -12 20 -54 18 -23 30 44 17 65 -13 88 -36 37 -36 -17 0 -31 -4 -31
-10 0 -16 50 -12 66 5 16 15 59 12 79 -6 5 -5 17 -9 26 -9 9 0 22 -7 29 -15 7
-8 24 -15 39 -15 14 0 41 -9 59 -20 33 -21 82 -27 82 -11 0 11 -61 41 -205
100 -32 14 -137 42 -215 57 -14 3 -34 9 -45 14 -11 4 -47 15 -80 24 -33 10
-69 21 -80 26 -11 5 -56 21 -100 35 -44 15 -96 33 -115 41 -19 9 -44 19 -55
24 -11 4 -36 15 -55 23 -19 8 -53 21 -75 28 -84 28 -365 182 -421 231 -22 19
-87 34 -196 43 -66 6 -68 7 -85 43 -9 20 -29 53 -45 74 -34 43 -48 110 -48
223 0 69 -3 85 -20 100 -11 10 -17 22 -13 28 3 6 10 27 14 46 4 20 15 68 24
106 9 39 19 82 22 98 3 15 9 30 14 33 5 3 9 12 9 20 0 18 36 69 95 134 22 25
60 75 85 112 40 59 51 68 96 83 30 9 63 29 81 48 28 31 83 111 83 122 0 2 25
40 56 82 68 94 113 190 121 253 l5 47 57 7 c31 4 92 11 136 16 44 6 105 14
135 20 30 5 98 14 150 20 52 6 104 15 115 20 11 5 40 11 65 14 42 4 181 24
325 46 33 5 80 14 105 19 25 6 48 10 53 11 4 0 7 10 7 21 0 16 -3 19 -12 11
-13 -10 -24 -12 -173 -31 -83 -10 -220 -32 -365 -57 -47 -8 -121 -19 -165 -24
-44 -5 -105 -14 -135 -20 -74 -14 -259 -42 -289 -44 -13 0 -26 5 -28 12 -3 8
6 12 27 12 17 0 82 9 143 19 62 10 162 26 222 36 61 9 130 20 155 25 25 5 140
23 255 40 116 17 224 35 241 40 17 6 39 10 50 10 24 0 74 22 74 33 0 10 -17 9
-38 -2 -15 -9 -82 -21 -232 -41 -30 -4 -82 -13 -115 -19 -33 -6 -103 -18 -155
-26 -52 -8 -135 -22 -185 -30 -49 -9 -121 -20 -160 -25 -38 -6 -97 -14 -130
-20 -120 -21 -190 -29 -198 -21 -10 10 15 149 38 216 9 28 30 78 46 113 16 35
29 70 29 78 0 8 5 14 10 14 6 0 10 9 10 20 0 11 7 20 15 20 8 0 15 6 15 14 0
8 14 42 32 74 l31 60 211 0 c134 -1 227 4 256 11 40 11 104 26 196 47 16 3 84
11 151 18 123 13 173 26 95 26 -52 0 -55 17 -4 25 20 3 47 8 60 11 l22 4 0
360 0 360 -1327 0 c-1078 0 -1323 -3 -1309 -13 16 -12 16 -14 -8 -26 -14 -8
-27 -20 -30 -28 -3 -8 17 -2 52 17 60 32 72 35 72 21 0 -10 -121 -71 -142 -71
-8 0 -20 -6 -26 -12 -10 -10 -15 -10 -22 2 -7 12 -20 3 -62 -40 -71 -74 -148
-169 -162 -200 -6 -14 -13 -27 -16 -30 -3 -3 -14 -22 -24 -42 -11 -21 -23 -38
-28 -38 -4 0 -8 -4 -8 -10 0 -21 18 -9 36 25 10 19 22 35 26 35 5 0 8 7 8 15
0 8 5 15 10 15 6 0 10 5 10 11 0 6 7 17 15 25 26 26 16 1 -20 -53 -19 -29 -35
-56 -35 -60 0 -5 -10 -26 -21 -48 -20 -36 -68 -169 -69 -187 0 -5 5 -8 10 -8
6 0 10 5 10 12 0 7 36 84 79 173 51 103 94 176 121 205 23 25 39 37 36 28 -7
-22 7 -23 40 -2 23 15 26 15 43 0 29 -26 34 -18 6 10 -14 14 -24 31 -22 37 5
16 77 21 90 8 14 -14 94 -14 102 -1 3 6 14 10 23 10 16 -1 16 -2 0 -14 -16
-12 -15 -14 10 -26 15 -7 33 -12 40 -11 8 1 21 -4 29 -11 14 -11 15 -10 9 10
-10 31 5 27 43 -12 l32 -33 -80 -7 c-83 -8 -183 0 -212 15 -19 9 -58 -24 -41
-35 6 -3 12 -2 14 4 2 6 27 6 72 -1 38 -6 99 -8 135 -5 36 4 78 7 93 7 15 0
30 4 34 10 8 13 34 -8 34 -27 0 -9 -11 -14 -30 -14 -16 0 -30 -5 -30 -11 0 -7
10 -9 25 -7 14 3 28 1 31 -4 3 -5 14 -6 23 -3 10 3 24 -1 31 -10 7 -8 28 -15
47 -15 31 0 34 -2 28 -22 -6 -19 -5 -21 6 -10 17 16 32 15 26 -2 -3 -7 5 -35
19 -62 13 -26 24 -56 24 -66 0 -20 -26 -25 -33 -5 -2 6 -8 9 -12 5 -4 -4 -2
-14 5 -23 7 -9 11 -18 8 -20 -3 -3 -18 13 -33 35 -31 44 -84 77 -177 110 -69
25 -81 27 -180 36 -42 4 -68 3 -68 -3 0 -6 40 -13 89 -16 49 -3 97 -10 107
-15 11 -5 35 -18 55 -27 108 -53 90 -68 -66 -54 -271 25 -327 26 -365 7 l-35
-17 33 -1 c17 0 32 -4 32 -10 0 -5 -18 -10 -40 -10 -64 0 -46 -17 26 -24 60
-6 72 -11 117 -51 41 -35 65 -47 118 -60 38 -8 75 -15 83 -15 9 0 16 -4 16 -9
0 -8 15 -12 118 -27 24 -4 39 -10 32 -14 -16 -10 -122 -1 -137 12 -7 6 -20 8
-28 4 -9 -3 -23 -2 -33 3 -47 24 -152 46 -152 33 0 -6 -3 -17 -6 -25 -3 -10 9
-22 38 -38 39 -22 55 -24 173 -24 104 0 137 3 164 18 19 9 54 17 78 17 46 0
54 11 27 42 -13 14 -14 21 -5 32 6 8 19 12 29 10 10 -3 37 12 66 36 26 22 53
40 60 40 6 0 30 9 51 20 22 11 56 22 76 23 24 1 35 6 32 14 -3 7 0 18 6 25 46
54 62 75 67 91 3 9 10 17 15 17 5 0 9 7 9 15 0 8 -4 15 -10 15 -5 0 -10 -7
-10 -15 0 -8 -4 -15 -10 -15 -5 0 -10 -5 -10 -11 0 -6 -18 -34 -41 -63 -28
-35 -49 -52 -66 -53 l-26 -2 28 29 c15 15 24 33 21 39 -4 6 -1 9 6 6 7 -3 19
3 26 12 84 123 94 134 108 122 19 -15 18 -33 -1 -25 -9 3 -15 0 -15 -8 0 -8 5
-16 11 -18 7 -2 3 -18 -11 -42 -11 -21 -19 -45 -16 -52 3 -8 -1 -14 -10 -14
-9 0 -12 -5 -8 -11 6 -10 -7 -68 -27 -114 -4 -11 -12 -36 -17 -55 -6 -19 -13
-43 -17 -52 -4 -11 -3 -18 4 -18 6 0 23 25 38 57 15 31 29 51 31 44 2 -6 -3
-27 -12 -45 -9 -19 -16 -39 -16 -45 0 -6 -7 -11 -16 -11 -14 0 -15 -7 -10 -41
4 -23 14 -55 22 -72 13 -23 15 -46 9 -101 -3 -39 -2 -91 4 -116 6 -28 6 -49 0
-55 -5 -5 -9 -28 -9 -52 0 -45 -45 -157 -75 -187 -21 -20 -12 -34 10 -16 9 7
18 10 21 7 4 -3 -16 -16 -42 -28 -27 -13 -50 -27 -52 -31 -5 -12 -32 -10 -32
2 0 6 5 10 11 10 5 0 8 4 5 9 -4 5 -25 0 -48 -11 -35 -17 -47 -19 -73 -9 -64
23 -78 4 -17 -24 20 -10 38 -19 40 -20 2 -1 -16 -32 -39 -69 -28 -43 -45 -62
-50 -54 -9 14 -8 15 -37 -32 -21 -33 -22 -34 -28 -12 -7 23 -34 31 -34 10 -1
-14 -34 -58 -44 -58 -13 0 -5 20 19 48 14 17 25 35 25 41 0 15 -27 14 -34 -1
-3 -9 -11 -6 -25 11 -19 21 -21 21 -28 5 -3 -9 -14 -25 -22 -34 -9 -9 -21 -25
-28 -36 -11 -18 -12 -18 -12 2 -1 12 -8 27 -16 34 -13 11 -18 10 -29 -6 -10
-13 -11 -23 -5 -31 7 -8 6 -21 -4 -40 -8 -15 -12 -34 -10 -41 3 -8 -4 -16 -17
-19 -39 -10 1 -24 52 -17 25 3 55 1 65 -4 22 -12 55 2 47 21 -2 7 5 12 21 12
16 0 23 -5 20 -12 -5 -15 11 -17 20 -3 9 15 25 12 25 -5 0 -17 16 -20 25 -5 3
6 11 10 18 10 8 0 8 -3 -1 -12 -22 -22 -13 -38 19 -38 41 0 110 -20 131 -38
19 -15 38 -9 38 14 0 8 5 14 10 14 14 0 12 -22 -4 -42 -13 -18 -37 -23 -49
-12 -4 4 -26 8 -49 10 -24 2 -52 8 -63 13 -85 38 -115 42 -257 38 -79 -2 -158
-7 -177 -10 -19 -4 -40 -2 -47 4 -6 5 -25 12 -40 14 -16 2 -42 7 -58 10 -19 4
-32 1 -37 -7 -4 -7 -11 -9 -15 -5 -4 4 2 17 14 30 12 13 22 28 22 35 0 6 7 9
15 6 8 -4 15 -2 15 4 0 15 -23 20 -35 8 -6 -6 -25 -32 -43 -58 -26 -38 -31
-53 -25 -75 4 -15 6 -36 4 -46 -2 -14 6 -12 42 13 44 29 47 30 172 30 112 0
168 -7 225 -28 8 -3 19 -4 24 -3 6 1 20 -3 32 -9 22 -12 95 -10 125 4 13 6 17
1 17 -19 0 -23 -3 -25 -29 -20 -21 5 -29 3 -29 -7 0 -11 92 -46 135 -53 30 -4
67 -28 77 -50 6 -14 15 -25 20 -25 6 0 8 -6 5 -12 -2 -8 -16 -12 -34 -10 -17
2 -34 -1 -38 -7 -3 -6 -24 -11 -46 -11 -52 0 -50 -15 3 -26 28 -6 44 -15 46
-27 3 -14 -4 -17 -37 -17 -22 0 -42 4 -45 9 -3 4 -30 11 -59 14 -30 3 -63 10
-73 15 -35 19 -92 42 -103 42 -6 0 -11 4 -11 8 0 13 -59 44 -70 37 -6 -4 -8
-15 -5 -24 3 -10 -6 -34 -23 -57 -16 -21 -27 -45 -24 -52 2 -6 -1 -12 -7 -12
-6 0 -11 -5 -11 -12 0 -6 -11 -26 -25 -44 -14 -18 -25 -36 -25 -39 0 -3 -11
-21 -25 -39 -20 -26 -22 -35 -12 -45 10 -11 8 -12 -9 -7 -23 7 -38 -13 -28
-38 3 -8 -1 -18 -8 -22 -13 -9 -18 -10 -39 -13 -5 0 -7 -5 -4 -11 3 -5 2 -10
-3 -10 -4 0 -18 -9 -31 -21 -12 -12 -25 -18 -29 -14 -4 4 2 14 13 23 23 19 55
62 55 74 0 4 -29 -22 -64 -58 -60 -63 -64 -65 -77 -47 -8 11 -21 23 -29 28
-13 8 -13 7 0 -10 46 -59 42 -57 67 -33 30 28 30 7 0 -28 l-24 -27 -29 39
c-51 69 -117 145 -122 140 -2 -3 8 -29 22 -58 24 -48 25 -54 10 -65 -12 -9
-13 -16 -4 -32 6 -12 8 -26 5 -32 -4 -5 -1 -18 5 -27 7 -9 0 -3 -15 13 -61 68
-94 115 -125 180 -13 28 -31 62 -41 76 -10 14 -16 29 -13 32 4 3 -3 18 -13 34
-22 32 -68 126 -78 161 -6 21 -5 22 13 11 12 -7 23 -22 26 -33 4 -16 8 -18 17
-9 10 10 9 17 -4 31 -9 10 -17 22 -17 26 0 23 -34 76 -46 72 -8 -3 -19 12 -29
42 -9 26 -23 60 -31 75 -16 32 -18 47 -6 47 4 0 13 -15 21 -32 18 -44 61 -111
67 -105 3 3 -9 30 -25 61 -17 31 -31 63 -31 71 0 8 -4 15 -10 15 -5 0 -10 11
-10 24 0 13 -7 29 -15 36 -9 7 -14 19 -11 26 3 7 0 14 -7 17 -23 7 -10 343 15
394 6 13 9 25 6 28 -3 3 1 31 9 63 8 31 17 71 20 87 3 17 9 35 13 40 4 6 10
28 14 50 4 22 12 53 18 68 8 21 8 34 -2 52 -10 19 -10 37 0 92 13 67 54 197
69 218 4 5 15 33 25 60 10 28 21 59 26 70 5 11 16 47 25 80 10 33 25 78 35
100 10 22 21 51 25 64 7 24 40 78 74 123 12 14 21 31 21 37 0 5 24 34 53 63
28 30 61 63 71 76 l19 22 -209 0 -210 0 4 -40 c3 -25 0 -40 -7 -40 -6 0 -11
17 -11 40 l0 40 -540 0 -540 0 0 -120z m1450 75 c-13 -14 -26 -23 -28 -20 -7
7 29 45 41 45 6 0 0 -11 -13 -25z m367 19 c-3 -3 -12 -4 -19 -1 -8 3 -5 6 6 6
11 1 17 -2 13 -5z m97 -3 c3 -4 -6 -6 -19 -3 -14 2 -25 6 -25 8 0 8 39 4 44
-5z m73 3 c-3 -3 -12 -4 -19 -1 -8 3 -5 6 6 6 11 1 17 -2 13 -5z m-1227 -14
c0 -5 -5 -10 -11 -10 -5 0 -7 5 -4 10 3 6 8 10 11 10 2 0 4 -4 4 -10z m1534
-10 c22 -17 20 -30 -3 -30 -11 0 -23 -4 -26 -10 -3 -6 5 -10 19 -10 14 0 28
-5 31 -10 4 -6 15 -8 24 -5 24 7 69 -9 52 -19 -6 -4 -18 -2 -26 4 -8 7 -15 9
-15 4 0 -12 11 -26 39 -49 l24 -20 -8 24 -7 24 31 -22 c17 -12 31 -24 31 -25
0 -8 -100 -5 -105 4 -4 6 -11 8 -16 4 -14 -8 21 -33 49 -34 30 0 28 -18 -8
-55 -27 -28 -29 -33 -15 -51 14 -18 14 -18 15 5 0 17 4 22 16 17 11 -4 14 -1
10 12 -3 9 3 27 14 40 15 18 23 21 44 12 27 -10 33 -24 16 -35 -5 -3 -10 -14
-10 -23 -1 -21 -28 -58 -36 -49 -4 3 3 22 14 41 21 36 17 51 -13 40 -9 -4 -14
-13 -11 -20 3 -8 -3 -30 -14 -49 -22 -40 -25 -49 -10 -40 6 3 10 2 10 -4 0
-10 -60 -64 -66 -58 -2 2 1 19 6 38 16 53 12 67 -8 29 -11 -18 -23 -35 -29
-37 -6 -2 -15 23 -22 55 -8 44 -19 66 -44 89 -17 16 -54 51 -81 77 -46 43 -66
55 -66 39 0 -4 19 -26 41 -49 39 -40 41 -44 25 -60 -16 -16 -18 -15 -34 6 -9
12 -29 37 -44 55 -32 38 -34 45 -12 45 8 0 13 4 10 9 -3 5 -15 7 -25 4 -10 -3
-22 0 -25 6 -4 6 -18 11 -31 11 -13 0 -31 10 -39 22 -15 21 -15 23 6 32 83 33
289 44 322 16z m-1578 -8 c-5 -8 -90 -33 -156 -46 -14 -2 -42 -9 -63 -14 -28
-7 -37 -7 -34 1 3 11 27 19 122 38 28 6 57 15 65 20 19 11 73 12 66 1z m624
-7 c-7 -9 -10 -19 -6 -22 4 -4 11 -1 16 7 7 11 12 12 21 3 9 -9 6 -19 -12 -42
-60 -75 -94 -125 -109 -161 -6 -14 -18 -38 -26 -55 -8 -16 -18 -50 -21 -73 -3
-24 -12 -46 -19 -49 -9 -3 -11 -16 -8 -36 l5 -32 -15 25 c-21 35 -20 55 8 109
33 65 56 117 56 130 0 6 4 11 9 11 13 0 22 43 11 54 -6 6 -12 -2 -16 -22 -4
-18 -10 -32 -15 -32 -5 0 -9 -5 -9 -11 0 -6 -17 -39 -37 -73 -59 -95 -53 -43
9 84 52 109 68 130 68 89 0 -11 5 -17 10 -14 6 3 10 12 10 20 0 23 54 105 69
105 11 0 11 -3 1 -15z m1020 6 c0 -14 -18 -23 -30 -16 -6 4 -8 11 -5 16 8 12
35 12 35 0z m-1077 -18 c-6 -25 -32 -58 -39 -51 -7 7 14 50 30 60 15 10 15 10
9 -9z m554 1 c-3 -3 -12 -4 -19 -1 -8 3 -5 6 6 6 11 1 17 -2 13 -5z m103 -14
c0 -5 -7 -10 -15 -10 -8 0 -15 5 -15 10 0 6 7 10 15 10 8 0 15 -4 15 -10z
m-110 -58 c-13 -2 -34 2 -48 10 l-25 13 29 6 c19 3 36 0 48 -10 18 -15 18 -16
-4 -19z m65 8 c27 -30 12 -34 -15 -5 -13 14 -19 25 -13 25 5 0 18 -9 28 -20z
m-1495 0 c0 -5 -9 -10 -21 -10 -11 0 -17 5 -14 10 3 6 13 10 21 10 8 0 14 -4
14 -10z m1250 0 c0 -5 -12 -10 -26 -10 -14 0 -23 4 -19 10 3 6 15 10 26 10 10
0 19 -4 19 -10z m-1310 -20 c0 -5 -12 -10 -26 -10 -14 0 -23 4 -19 10 3 6 15
10 26 10 10 0 19 -4 19 -10z m1445 -4 c32 -9 51 -19 53 -30 3 -15 -2 -17 -45
-11 -26 4 -52 11 -57 16 -13 12 -36 11 -36 -1 0 -5 9 -10 20 -10 11 0 20 -4
20 -10 0 -15 -38 -12 -76 6 -47 22 -55 38 -15 29 23 -5 32 -3 37 9 7 19 32 20
99 2z m288 -31 c10 -14 14 -25 9 -25 -9 0 -33 25 -46 47 -12 22 18 4 37 -22z
m437 19 c0 -8 -5 -12 -10 -9 -6 4 -8 11 -5 16 9 14 15 11 15 -7z m-603 -42
c-29 -6 -47 6 -47 28 0 21 0 21 32 -2 27 -19 29 -23 15 -26z m-743 -9 c-22
-45 -42 -68 -52 -58 -4 4 -1 10 6 12 6 3 12 9 12 13 0 14 42 81 47 76 3 -2 -3
-22 -13 -43z m2096 33 c0 -8 -4 -18 -10 -21 -5 -3 -10 3 -10 14 0 12 5 21 10
21 6 0 10 -6 10 -14z m-1267 -32 c11 -14 16 -28 13 -31 -6 -6 -45 36 -46 50 0
15 15 6 33 -19z m47 -4 c0 -5 -2 -10 -4 -10 -3 0 -8 5 -11 10 -3 6 -1 10 4 10
6 0 11 -4 11 -10z m485 -1 c11 -17 -1 -21 -15 -4 -8 9 -8 15 -2 15 6 0 14 -5
17 -11z m735 -18 c0 -6 -4 -13 -10 -16 -5 -3 -10 1 -10 9 0 9 5 16 10 16 6 0
10 -4 10 -9z m-1022 -53 c17 -36 24 -78 12 -78 -5 0 -9 3 -8 8 1 4 -6 24 -15
46 -20 44 -20 46 -9 46 5 0 14 -10 20 -22z m-813 -7 c-3 -6 -11 -11 -17 -11
-6 0 -6 6 2 15 14 17 26 13 15 -4z m-305 5 c0 -3 -4 -8 -10 -11 -5 -3 -10 -1
-10 4 0 6 5 11 10 11 6 0 10 -2 10 -4z m1075 -5 c3 -5 1 -12 -5 -16 -5 -3 -10
1 -10 9 0 18 6 21 15 7z m301 -94 c-59 -93 -70 -79 -16 18 33 60 44 72 48 52
2 -9 -12 -40 -32 -70z m100 56 c-7 -7 -26 7 -26 19 0 6 6 6 15 -2 9 -7 13 -15
11 -17z m-116 -3 c0 -14 -21 -49 -43 -74 -10 -12 -28 -36 -40 -55 -34 -55 -31
-18 3 45 25 44 29 58 19 65 -7 4 -10 11 -6 16 5 4 12 1 18 -7 8 -13 11 -13 20
3 11 19 29 23 29 7z m-270 -15 c0 -8 -4 -15 -10 -15 -5 0 -10 7 -10 15 0 8 5
15 10 15 6 0 10 -7 10 -15z m-1172 -45 c-7 -11 -16 -20 -20 -20 -11 0 -10 9 5
25 18 21 29 18 15 -5z m1639 -2 c-3 -8 -6 -5 -6 6 -1 11 2 17 5 13 3 -3 4 -12
1 -19z m-1547 2 c0 -5 -5 -10 -11 -10 -5 0 -7 5 -4 10 3 6 8 10 11 10 2 0 4
-4 4 -10z m3157 -6 c-3 -3 -12 -4 -19 -1 -8 3 -5 6 6 6 11 1 17 -2 13 -5z
m-2103 -13 c8 -12 -3 -41 -15 -41 -5 0 -9 11 -9 25 0 25 14 34 24 16z m473
-33 c-3 -8 -6 -5 -6 6 -1 11 2 17 5 13 3 -3 4 -12 1 -19z m610 -45 c-2 -16 -4
-5 -4 22 0 28 2 40 4 28 2 -13 2 -35 0 -50z m-2167 43 c0 -3 -4 -8 -10 -11 -5
-3 -10 -1 -10 4 0 6 5 11 10 11 6 0 10 -2 10 -4z m1158 -7 c-2 -6 -8 -10 -13
-10 -5 0 -11 4 -13 10 -2 6 4 11 13 11 9 0 15 -5 13 -11z m-43 -32 c10 -8 14
-17 8 -20 -5 -3 -17 3 -26 14 -19 22 -9 25 18 6z m105 9 c0 -3 -4 -8 -10 -11
-5 -3 -10 -1 -10 4 0 6 5 11 10 11 6 0 10 -2 10 -4z m380 0 c0 -2 -8 -10 -17
-17 -16 -13 -17 -12 -4 4 13 16 21 21 21 13z m-1555 -15 c3 -5 1 -12 -5 -16
-5 -3 -10 1 -10 9 0 18 6 21 15 7z m1419 -45 c-10 -20 -21 -36 -26 -36 -11 0
-10 4 5 31 20 39 29 51 33 46 3 -3 -3 -21 -12 -41z m186 34 c0 -5 -2 -10 -4
-10 -3 0 -8 5 -11 10 -3 6 -1 10 4 10 6 0 11 -4 11 -10z m-1585 -19 c3 -5 1
-12 -5 -16 -5 -3 -10 1 -10 9 0 18 6 21 15 7z m2125 -66 c0 -30 -4 -55 -10
-55 -11 0 -14 93 -3 103 12 12 13 8 13 -48z m-1350 25 c0 -5 -5 -10 -11 -10
-5 0 -7 5 -4 10 3 6 8 10 11 10 2 0 4 -4 4 -10z m410 0 c0 -13 -46 -24 -67
-15 -16 7 -15 9 7 15 36 11 60 11 60 0z m390 -20 c-11 -16 -26 -33 -33 -37
-12 -7 0 11 32 50 23 28 24 20 1 -13z m-1590 10 c0 -5 -5 -10 -11 -10 -5 0 -7
5 -4 10 3 6 8 10 11 10 2 0 4 -4 4 -10z m-160 -10 c0 -5 -4 -10 -10 -10 -5 0
-10 5 -10 10 0 6 5 10 10 10 6 0 10 -4 10 -10z m875 0 c-3 -5 -27 -10 -53 -10
-69 0 -92 -9 -92 -34 0 -12 5 -27 11 -33 6 -6 10 -16 8 -21 -5 -12 -99 70 -99
86 0 15 29 19 138 21 60 1 91 -3 87 -9z m105 0 c0 -5 -4 -10 -10 -10 -5 0 -10
5 -10 10 0 6 5 10 10 10 6 0 10 -4 10 -10z m718 -10 c-7 -10 -14 -17 -17 -15
-4 4 18 35 25 35 2 0 -1 -9 -8 -20z m-1731 -16 c26 -9 63 -27 83 -40 l35 -24
3 21 c2 12 -2 25 -9 30 -8 4 -10 12 -5 16 5 4 11 2 13 -4 3 -7 12 -13 20 -13
12 0 14 -8 8 -46 -3 -25 -15 -66 -26 -91 -10 -24 -19 -54 -19 -66 0 -27 -16
-54 -26 -44 -4 3 -2 13 4 20 16 19 3 30 -16 14 -12 -9 -16 -9 -19 1 -3 6 -9
12 -15 12 -6 0 -7 -8 -4 -17 9 -21 -52 -85 -73 -78 -10 3 -22 -7 -34 -27 -18
-32 -36 -33 -22 -1 5 10 7 23 6 30 -1 6 3 14 8 18 6 3 8 12 4 20 -3 8 0 15 7
15 6 0 8 4 5 10 -10 17 -42 -11 -60 -54 -10 -23 -26 -59 -36 -81 -32 -72 -33
-98 -4 -129 17 -18 24 -34 20 -47 -5 -16 -1 -19 24 -19 17 0 31 5 31 10 0 6
-7 10 -15 10 -8 0 -15 7 -15 15 0 18 19 19 111 3 l71 -11 -5 -31 c-19 -108
-30 -136 -60 -151 -60 -30 -88 -21 -154 48 -32 34 -66 77 -74 95 -7 17 -17 32
-21 32 -5 0 -8 21 -8 48 0 26 -4 63 -10 81 -16 57 -24 261 -11 306 6 22 24 62
41 88 l30 47 84 0 c52 0 104 -6 133 -16z m2223 1 c7 -8 8 -15 2 -15 -5 0 -15
7 -22 15 -7 8 -8 15 -2 15 5 0 15 -7 22 -15z m80 -102 c0 -13 -4 -23 -10 -23
-5 0 -10 9 -10 19 0 11 -5 23 -11 27 -6 3 -9 17 -6 30 2 14 0 27 -4 30 -5 3
-9 13 -8 22 1 24 49 -78 49 -105z m-715 98 c3 -5 1 -12 -5 -16 -5 -3 -10 1
-10 9 0 18 6 21 15 7z m380 -1 c3 -5 -1 -10 -10 -10 -9 0 -13 5 -10 10 3 6 8
10 10 10 2 0 7 -4 10 -10z m-695 -9 c0 -17 -18 -21 -24 -6 -3 9 0 15 9 15 8 0
15 -4 15 -9z m-100 -62 c0 -16 -16 -9 -43 19 -38 39 -34 48 8 16 19 -14 35
-30 35 -35z m885 51 c-3 -5 -15 -10 -26 -10 -10 0 -19 5 -19 10 0 6 12 10 26
10 14 0 23 -4 19 -10z m465 6 c0 -3 -4 -8 -10 -11 -5 -3 -10 -1 -10 4 0 6 5
11 10 11 6 0 10 -2 10 -4z m-2953 -22 c-3 -3 -12 -4 -19 -1 -8 3 -5 6 6 6 11
1 17 -2 13 -5z m1476 -22 c14 -15 25 -36 23 -47 -3 -17 -10 -20 -54 -19 -29 1
-59 5 -68 8 -16 6 -16 8 0 24 9 10 16 23 16 28 0 15 22 34 40 34 9 0 28 -12
43 -28z m1032 8 c3 -5 -1 -10 -10 -10 -9 0 -13 5 -10 10 3 6 8 10 10 10 2 0 7
-4 10 -10z m-2415 -7 c-8 -3 -18 -11 -22 -17 -4 -6 -10 -7 -15 -3 -9 10 16 27
37 26 13 -1 13 -1 0 -6z m1444 -18 c3 -9 0 -12 -9 -9 -7 3 -16 12 -19 19 -3 9
0 12 9 9 7 -3 16 -12 19 -19z m-2014 6 c0 -5 -7 -12 -16 -15 -14 -5 -15 -4 -4
9 14 17 20 19 20 6z m58 -31 c-7 -11 -16 -20 -20 -20 -5 0 -3 9 4 20 7 11 16
20 20 20 5 0 3 -9 -4 -20z m442 16 c0 -11 -19 -15 -25 -6 -3 5 1 10 9 10 9 0
16 -2 16 -4z m2878 -22 c-7 -15 -14 -21 -16 -15 -2 7 2 18 8 26 18 22 21 18 8
-11z m-1318 -19 c14 -17 8 -18 -39 -9 -17 4 -31 10 -31 15 0 15 57 10 70 -6z
m2070 5 c0 -5 -7 -10 -15 -10 -8 0 -15 5 -15 10 0 6 7 10 15 10 8 0 15 -4 15
-10z m-913 -42 c-3 -7 -5 -2 -5 12 0 14 2 19 5 13 2 -7 2 -19 0 -25z m133 6
c0 -8 -4 -14 -10 -14 -5 0 -10 9 -10 21 0 11 5 17 10 14 6 -3 10 -13 10 -21z
m-328 -21 c9 -10 28 -29 42 -42 14 -13 26 -30 26 -39 0 -11 -8 -5 -22 15 -13
18 -26 33 -30 33 -11 0 -10 -28 0 -32 13 -5 23 -68 11 -68 -6 0 -9 -8 -8 -17
6 -68 -11 -110 -26 -63 -4 12 -36 45 -73 75 -63 53 -92 67 -92 45 0 -5 8 -10
17 -10 37 0 177 -183 156 -204 -7 -7 -53 41 -53 55 0 6 -5 7 -11 3 -6 -3 -30
11 -52 32 -52 48 -67 56 -142 78 -33 10 -68 22 -77 27 -10 5 -37 9 -60 9 -40
1 -42 2 -24 15 11 8 32 15 47 15 15 0 31 5 34 10 3 6 -3 10 -14 10 -40 0 -20
19 37 35 37 11 96 17 170 18 61 0 112 4 112 9 0 13 14 9 32 -9z m52 1 c3 -8 2
-12 -4 -9 -6 3 -10 10 -10 16 0 14 7 11 14 -7z m256 -13 c0 -6 -4 -13 -10 -16
-5 -3 -10 1 -10 9 0 9 5 16 10 16 6 0 10 -4 10 -9z m443 2 c-7 -2 -21 -2 -30
0 -10 3 -4 5 12 5 17 0 24 -2 18 -5z m-3766 -19 c-3 -3 -12 -4 -19 -1 -8 3 -5
6 6 6 11 1 17 -2 13 -5z m3148 -74 c3 -5 2 -10 -4 -10 -5 0 -13 5 -16 10 -3 6
-2 10 4 10 5 0 13 -4 16 -10z m-2159 -68 c1 -34 -2 -65 -7 -68 -5 -3 -9 -22
-9 -42 0 -58 -11 -68 -58 -54 -22 7 -51 12 -66 12 -15 0 -36 5 -47 11 -19 10
-18 13 30 60 28 27 54 49 58 49 4 0 23 23 42 51 19 27 39 48 45 46 6 -2 12
-30 12 -65z m2109 38 c1 -11 -2 -20 -7 -20 -4 0 -8 12 -8 27 0 30 13 24 15 -7z
m50 -10 c3 -5 1 -10 -4 -10 -6 0 -11 5 -11 10 0 6 2 10 4 10 3 0 8 -4 11 -10z
m-455 -24 c0 -8 -4 -18 -10 -21 -19 -11 -10 -66 15 -99 28 -37 32 -56 10 -56
-8 0 -15 8 -15 18 0 10 -29 48 -65 84 -36 37 -65 71 -65 77 0 7 25 11 65 11
50 0 65 -3 65 -14z m75 0 c53 -19 57 -36 8 -36 -40 0 -63 14 -63 37 0 16 5 16
55 -1z m-217 -38 c16 -16 15 -29 -2 -22 -16 6 -30 34 -18 34 5 0 13 -5 20 -12z
m-29 -47 c-2 -6 -10 2 -17 17 -11 25 -11 25 4 10 9 -9 15 -21 13 -27z m581 29
c0 -5 -4 -10 -10 -10 -5 0 -10 5 -10 10 0 6 5 10 10 10 6 0 10 -4 10 -10z
m-3015 -19 c-3 -6 -11 -11 -17 -11 -6 0 -6 6 2 15 14 17 26 13 15 -4z m2552
-33 c18 -18 33 -36 33 -40 0 -18 -18 -6 -49 32 -38 48 -30 52 16 8z m408 23
c3 -5 1 -12 -5 -16 -5 -3 -10 1 -10 9 0 18 6 21 15 7z m-3035 -31 c0 -5 -3
-10 -7 -10 -5 0 -19 -3 -33 -6 -24 -6 -25 -6 -5 9 23 19 45 22 45 7z m2872
-40 c-22 -20 -42 -30 -63 -30 l-32 0 36 24 c32 22 54 31 81 35 5 0 -5 -12 -22
-29z m-262 -13 c0 -6 22 -32 49 -58 41 -39 47 -50 36 -59 -19 -16 -31 -7 -52
38 -9 20 -23 43 -30 50 -7 7 -13 20 -13 28 0 8 -4 14 -10 14 -5 0 -10 5 -10
11 0 8 5 8 15 -1 8 -7 15 -17 15 -23z m-44 -28 c8 -17 13 -36 11 -42 -3 -10
-47 66 -47 80 0 12 22 -12 36 -38z m349 31 c-3 -5 -10 -10 -16 -10 -5 0 -9 5
-9 10 0 6 7 10 16 10 8 0 12 -4 9 -10z m105 -5 c0 -8 -4 -15 -10 -15 -5 0 -10
7 -10 15 0 8 5 15 10 15 6 0 10 -7 10 -15z m-270 -9 c0 -11 -19 -15 -25 -6 -3
5 1 10 9 10 9 0 16 -2 16 -4z m-290 -93 c0 -43 -5 -41 -13 5 -4 18 -2 32 3 32
6 0 10 -16 10 -37z m140 -4 c0 -5 -4 -9 -10 -9 -5 0 -10 7 -10 16 0 8 5 12 10
9 6 -3 10 -10 10 -16z m-54 -5 c-3 -9 -6 -18 -6 -20 0 -2 -4 -4 -9 -4 -5 0 -7
9 -4 20 3 11 10 20 15 20 6 0 7 -7 4 -16z m494 -1 c0 -5 -5 -26 -12 -48 -6
-22 -12 -42 -13 -45 0 -3 -6 -14 -13 -25 -12 -18 -13 -17 -8 14 5 29 4 32 -9
21 -12 -10 -15 -10 -15 3 0 29 35 87 53 87 9 0 17 -3 17 -7z m-306 -30 c3 -8
3 -19 0 -25 -9 -14 -44 21 -37 37 6 17 29 9 37 -12z m-127 -5 c-3 -8 -6 -5 -6
6 -1 11 2 17 5 13 3 -3 4 -12 1 -19z m234 2 c52 -9 89 -29 89 -46 0 -7 -8 -22
-19 -35 l-18 -23 -14 22 c-21 33 -32 27 -25 -14 l7 -35 -34 38 c-19 21 -44 55
-56 77 l-22 39 23 -8 c13 -3 44 -10 69 -15z m-211 -30 c0 -5 -2 -10 -4 -10 -3
0 -8 5 -11 10 -3 6 -1 10 4 10 6 0 11 -4 11 -10z m130 -20 c0 -5 -4 -10 -10
-10 -5 0 -10 5 -10 10 0 6 5 10 10 10 6 0 10 -4 10 -10z m-216 -15 c3 -8 1
-15 -4 -15 -6 0 -10 7 -10 15 0 8 2 15 4 15 2 0 6 -7 10 -15z m-2544 -5 c0 -5
-4 -10 -10 -10 -5 0 -10 5 -10 10 0 6 5 10 10 10 6 0 10 -4 10 -10z m2557 -52
c-3 -7 -5 -2 -5 12 0 14 2 19 5 13 2 -7 2 -19 0 -25z m-54 -8 c3 -11 1 -20 -4
-20 -5 0 -9 -17 -9 -37 -1 -36 -2 -37 -15 -19 -18 24 -19 44 -3 78 14 29 23
29 31 -2z m517 -102 c0 -14 -19 -77 -31 -100 -5 -10 -9 -22 -9 -28 0 -17 -34
-90 -42 -90 -5 0 -8 -8 -9 -17 0 -10 -3 -13 -5 -6 -3 7 1 27 9 45 19 44 58
157 64 186 6 23 23 31 23 10z m-783 -30 c21 -39 44 -121 36 -128 -3 -3 -8 1
-10 8 -7 19 -23 14 -23 -6 0 -19 -28 -83 -40 -92 -4 -3 -10 -12 -13 -20 -4 -8
-4 1 -1 20 3 19 11 40 17 45 7 6 13 24 13 42 2 28 0 30 -12 18 -8 -7 -14 -18
-14 -24 0 -5 -9 -26 -21 -45 -18 -30 -19 -41 -10 -67 6 -18 11 -33 11 -35 0
-4 -41 3 -67 11 -25 8 -24 18 3 103 8 23 14 51 14 62 0 10 5 22 10 25 6 3 10
13 10 21 0 22 51 94 66 94 7 0 21 -15 31 -32z m231 -17 c-7 -12 -18 -19 -24
-17 -7 3 -22 -6 -35 -20 -32 -34 -62 -31 -93 10 -14 19 -22 37 -17 41 6 3 14
-2 19 -11 8 -15 12 -15 46 1 47 22 99 34 109 25 5 -4 3 -17 -5 -29z m-43 -61
c-26 -29 -39 -25 -13 5 12 14 24 23 26 20 3 -3 -3 -14 -13 -25z m588 -42 c-6
-7 -13 -25 -16 -39 -4 -15 -23 -49 -42 -77 -19 -29 -35 -56 -35 -62 0 -12 -82
-131 -87 -127 -4 5 68 140 87 162 10 11 32 50 48 88 17 37 37 67 43 67 8 0 8
-4 2 -12z m-935 -18 c-7 -10 -14 -17 -17 -15 -4 4 18 35 25 35 2 0 -1 -9 -8
-20z m-188 -10 c0 -5 -4 -10 -10 -10 -5 0 -10 5 -10 10 0 6 5 10 10 10 6 0 10
-4 10 -10z m498 -40 c32 -60 21 -60 -17 1 -17 28 -26 49 -19 47 7 -3 23 -24
36 -48z m-108 21 c0 -6 -4 -13 -10 -16 -5 -3 -10 1 -10 9 0 9 5 16 10 16 6 0
10 -4 10 -9z m3 -73 c-8 -45 -23 -59 -23 -22 0 25 15 54 27 54 1 0 0 -15 -4
-32z m717 12 c0 -5 -5 -10 -11 -10 -5 0 -7 5 -4 10 3 6 8 10 11 10 2 0 4 -4 4
-10z m-96 -24 c-3 -9 -10 -16 -15 -16 -5 0 -4 9 3 20 14 22 21 20 12 -4z
m-465 -45 c-1 -13 -2 -12 -6 2 -2 9 -9 17 -14 17 -5 0 -9 8 -9 18 1 15 2 15
15 -2 8 -11 14 -27 14 -35z m439 11 c-11 -27 -83 -142 -89 -142 -4 0 4 22 17
50 13 27 24 53 24 57 0 10 32 43 42 43 5 0 8 -4 6 -8z m-1953 -22 c3 -5 1 -10
-4 -10 -6 0 -11 5 -11 10 0 6 2 10 4 10 3 0 8 -4 11 -10z m536 -33 c-13 -13
-26 -3 -16 12 3 6 11 8 17 5 6 -4 6 -10 -1 -17z m533 9 c123 -26 92 -34 -55
-15 -46 6 -88 15 -93 20 -15 14 70 11 148 -5z m294 -97 c34 -39 72 -93 72
-104 0 -3 -4 -5 -10 -5 -5 0 -10 6 -10 14 0 8 -6 21 -13 28 -29 30 -89 108
-83 108 3 0 23 -19 44 -41z m-188 17 c0 -11 -19 -15 -25 -6 -3 5 1 10 9 10 9
0 16 -2 16 -4z m160 -58 c0 -6 -7 -5 -15 2 -8 7 -15 17 -15 22 0 6 7 5 15 -2
8 -7 15 -17 15 -22z m520 22 c0 -5 -5 -10 -11 -10 -5 0 -7 5 -4 10 3 6 8 10
11 10 2 0 4 -4 4 -10z m50 4 c0 -3 -7 -12 -15 -20 -16 -17 -18 -14 -9 10 6 15
24 23 24 10z m-76 -48 c-3 -9 -10 -16 -15 -16 -5 0 -4 9 3 20 14 22 21 20 12
-4z m-115 -108 c-20 -40 -178 -213 -186 -204 -4 3 19 51 70 151 6 11 19 37 29
58 10 20 25 37 33 37 20 0 19 -9 -5 -48 -29 -46 -25 -53 8 -12 15 19 27 38 27
42 0 12 40 37 43 28 2 -5 -7 -28 -19 -52z m-256 31 c4 -16 3 -18 -9 -8 -16 13
-19 29 -5 29 5 0 11 -9 14 -21z m-102 -6 c13 -16 12 -17 -3 -4 -10 7 -18 15
-18 17 0 8 8 3 21 -13z m31 -40 c4 -15 -3 -18 -35 -20 -22 -2 -46 -8 -53 -14
-7 -6 -21 -9 -31 -6 -14 3 -12 6 12 16 17 6 44 18 60 26 39 19 42 18 47 -2z
m189 -36 c-16 -16 -20 -5 -8 23 9 22 11 23 14 6 3 -10 0 -23 -6 -29z m-106
-16 c3 -5 1 -12 -5 -16 -5 -3 -10 1 -10 9 0 18 6 21 15 7z m-630 -11 c3 -5 1
-10 -4 -10 -6 0 -11 5 -11 10 0 6 2 10 4 10 3 0 8 -4 11 -10z m59 -57 c-15
-21 -32 -39 -36 -41 -4 -2 -8 -9 -8 -16 0 -17 -29 -50 -58 -65 -17 -9 -21 -18
-16 -33 7 -24 -14 -21 -29 3 -7 12 11 36 79 105 49 50 91 89 93 88 2 -2 -9
-20 -25 -41z m-24 33 c0 -2 -8 -10 -17 -17 -16 -13 -17 -12 -4 4 13 16 21 21
21 13z m-70 -29 c0 -12 -11 -35 -25 -50 -35 -37 -16 -34 23 4 54 53 35 22 -28
-46 l-60 -65 -12 25 c-10 22 -8 29 13 53 14 15 37 44 53 65 32 43 36 45 36 14z
m738 3 c-13 -20 -28 -27 -28 -12 0 10 22 32 32 32 5 0 3 -9 -4 -20z m-478 -20
c0 -5 -4 -10 -10 -10 -5 0 -10 5 -10 10 0 6 5 10 10 10 6 0 10 -4 10 -10z
m-164 -53 c-14 -19 -26 -38 -26 -43 0 -13 -67 -90 -73 -84 -3 3 12 29 32 59
20 30 41 62 46 72 21 33 39 51 43 40 2 -6 -8 -26 -22 -44z m504 33 c0 -5 -4
-10 -10 -10 -5 0 -10 5 -10 10 0 6 5 10 10 10 6 0 10 -4 10 -10z m104 -12 c-8
-29 -45 -81 -51 -74 -7 7 43 94 55 96 2 0 0 -10 -4 -22z m-18 -125 c-32 -48
-91 -114 -83 -90 7 19 100 135 105 131 2 -1 -8 -19 -22 -41z m-816 17 c0 -5
-4 -10 -10 -10 -5 0 -10 5 -10 10 0 6 5 10 10 10 6 0 10 -4 10 -10z m30 -13
c0 -15 -50 -70 -57 -63 -6 5 44 76 53 76 2 0 4 -6 4 -13z m730 -22 c-7 -9 -15
-13 -18 -10 -3 2 1 11 8 20 7 9 15 13 18 10 3 -2 -1 -11 -8 -20z m-690 -14 c0
-6 -4 -13 -10 -16 -5 -3 -10 -14 -10 -23 0 -9 -8 -26 -16 -37 -15 -19 -16 -18
-9 15 8 37 25 70 37 70 5 0 8 -4 8 -9z m560 -46 c-7 -9 -15 -13 -18 -10 -3 2
1 11 8 20 7 9 15 13 18 10 3 -2 -1 -11 -8 -20z m-460 -5 c0 -5 -5 -10 -11 -10
-5 0 -7 5 -4 10 3 6 8 10 11 10 2 0 4 -4 4 -10z m-310 -58 c0 -14 -36 -52 -43
-46 -3 3 4 17 16 30 22 26 27 29 27 16z m4 -68 c4 -10 1 -14 -6 -12 -15 5 -23
28 -10 28 5 0 13 -7 16 -16z m751 -3 c-3 -6 -11 -11 -17 -11 -6 0 -6 6 2 15
14 17 26 13 15 -4z m95 9 c0 -5 -2 -10 -4 -10 -3 0 -8 5 -11 10 -3 6 -1 10 4
10 6 0 11 -4 11 -10z m-691 -32 c-9 -16 -14 -19 -17 -9 -2 7 2 17 9 22 20 13
21 11 8 -13z m-19 -38 c0 -5 -4 -10 -10 -10 -5 0 -10 5 -10 10 0 6 5 10 10 10
6 0 10 -4 10 -10z m120 -10 c0 -5 -5 -10 -11 -10 -5 0 -7 5 -4 10 3 6 8 10 11
10 2 0 4 -4 4 -10z m120 -20 c0 -5 -4 -10 -10 -10 -5 0 -10 5 -10 10 0 6 5 10
10 10 6 0 10 -4 10 -10z m570 -46 c0 -22 -23 -42 -56 -50 l-29 -7 35 36 c39
40 50 45 50 21z m-38 -101 c18 -21 32 -73 20 -73 -4 0 -17 20 -29 45 -21 46
-17 58 9 28z m-124 -32 c-7 -11 -16 -17 -20 -14 -10 5 10 33 23 33 5 0 4 -9
-3 -19z m108 -58 c-9 -9 -13 -2 -20 37 l-7 35 17 -33 c9 -18 14 -35 10 -39z
m-46 37 c0 -5 -4 -10 -10 -10 -5 0 -10 5 -10 10 0 6 5 10 10 10 6 0 10 -4 10
-10z m-146 -45 c-7 -16 -24 -21 -24 -6 0 8 7 13 27 20 1 1 0 -6 -3 -14z m150
-37 c19 -36 20 -48 6 -48 -5 0 -10 9 -10 19 0 11 -4 23 -10 26 -10 6 -14 35
-6 35 3 0 12 -14 20 -32z m-712 5 c10 -9 18 -12 18 -7 0 5 35 7 77 6 70 -3 76
-5 58 -18 -11 -8 -42 -14 -74 -14 -45 0 -62 5 -86 25 -16 13 -26 24 -21 25 5
0 18 -7 28 -17z m451 -47 c-18 -26 -51 -46 -37 -24 15 24 48 58 52 54 2 -3 -4
-16 -15 -30z m-72 -30 c-19 -20 -46 -36 -65 -39 -51 -8 -52 5 -2 25 26 10 56
27 68 38 35 33 34 12 -1 -24z m229 24 c0 -5 -4 -10 -10 -10 -5 0 -10 5 -10 10
0 6 5 10 10 10 6 0 10 -4 10 -10z m51 -13 c-10 -9 -11 -8 -5 6 3 10 9 15 12
12 3 -3 0 -11 -7 -18z m-47 -51 c-6 -15 -24 -23 -24 -11 0 8 24 34 28 30 1 -1
0 -10 -4 -19z m103 -8 c-3 -8 -6 -5 -6 6 -1 11 2 17 5 13 3 -3 4 -12 1 -19z
m-497 -18 c0 -5 -4 -10 -10 -10 -5 0 -10 5 -10 10 0 6 5 10 10 10 6 0 10 -4
10 -10z m288 -35 c0 -19 -4 -35 -9 -35 -5 0 -9 16 -9 35 0 19 4 35 9 35 5 0 9
-16 9 -35z m-1858 6 c0 -11 5 -23 10 -26 6 -3 10 -10 10 -16 0 -5 -4 -9 -10
-9 -5 0 -10 6 -10 14 0 7 -7 19 -15 26 -8 7 -15 16 -15 21 0 5 7 9 15 9 8 0
15 -9 15 -19z m1505 9 c-3 -5 -24 -13 -46 -16 -21 -4 -39 -10 -39 -15 0 -5 -4
-9 -10 -9 -23 0 -7 18 28 33 43 18 76 21 67 7z m460 0 c-3 -5 -11 -10 -16 -10
-6 0 -7 5 -4 10 3 6 11 10 16 10 6 0 7 -4 4 -10z m45 -21 c0 -11 -4 -17 -10
-14 -5 3 -10 13 -10 21 0 8 5 14 10 14 6 0 10 -9 10 -21z m147 -16 c-3 -10 -5
-4 -5 12 0 17 2 24 5 18 2 -7 2 -21 0 -30z m-1575 0 c26 -25 37 -53 21 -53
-10 0 -66 80 -57 80 4 0 21 -12 36 -27z m58 -19 c0 -3 -7 -1 -15 6 -8 7 -15
17 -15 22 0 5 7 3 15 -6 8 -8 15 -18 15 -22z m1490 15 c0 -5 -4 -9 -10 -9 -5
0 -10 7 -10 16 0 8 5 12 10 9 6 -3 10 -10 10 -16z m80 5 c0 -8 -4 -12 -10 -9
-5 3 -10 10 -10 16 0 5 5 9 10 9 6 0 10 -7 10 -16z m-229 -1 c0 -5 2 -35 4
-68 l3 -60 -14 50 c-16 59 -18 85 -4 85 6 0 10 -3 11 -7z m99 -2 c0 -6 -4 -13
-10 -16 -5 -3 -10 1 -10 9 0 9 5 16 10 16 6 0 10 -4 10 -9z m-2092 -26 c7 -14
12 -39 12 -56 0 -32 32 -75 49 -65 6 4 7 -4 0 -26 -5 -18 -9 -34 -9 -35 0 -2
-3 -3 -8 -3 -4 0 -13 15 -20 33 -8 17 -18 41 -23 52 -8 18 -28 100 -29 118 0
17 18 5 28 -18z m1392 15 c0 -5 -2 -10 -4 -10 -2 0 -12 -3 -22 -7 -16 -6 -17
-5 -4 10 17 19 30 22 30 7z m1010 -5 c10 -12 10 -19 2 -27 -7 -7 -12 -27 -12
-45 0 -18 -4 -33 -10 -33 -13 0 -13 -37 1 -46 7 -4 7 -10 1 -16 -7 -7 -5 -19
6 -37 14 -26 14 -29 -6 -49 l-22 -22 -21 45 c-25 53 -19 71 9 26 21 -35 36
-32 22 4 -5 13 -8 43 -6 67 1 25 -3 48 -11 56 -18 18 -16 42 2 42 8 0 15 5 15
10 0 9 -14 14 -32 11 -4 0 -5 6 -2 14 8 20 48 19 64 0z m-373 -32 c-3 -10 -5
-4 -5 12 0 17 2 24 5 18 2 -7 2 -21 0 -30z m120 -20 c-3 -10 -5 -2 -5 17 0 19
2 27 5 18 2 -10 2 -26 0 -35z m172 -8 c25 -66 25 -69 7 -84 -10 -9 -13 -6 -13
16 0 16 -7 49 -16 76 -22 66 -3 59 22 -8z m-1754 35 c3 -5 1 -10 -4 -10 -6 0
-11 5 -11 10 0 6 2 10 4 10 3 0 8 -4 11 -10z m1311 -16 c-5 -14 -9 -15 -19 -5
-9 9 -9 14 3 21 18 11 24 6 16 -16z m704 -6 c14 -7 27 -15 30 -18 5 -5 30 -17
93 -46 30 -13 35 -19 26 -30 -14 -17 -69 -19 -69 -3 0 7 -11 9 -27 6 -23 -4
-36 4 -85 55 -32 34 -58 62 -58 64 0 5 64 -15 90 -28z m-87 -16 c21 -21 34
-41 31 -45 -4 -4 -2 -7 4 -7 18 0 14 -17 -5 -24 -10 -3 -25 -9 -33 -13 -13 -5
-13 -4 -1 11 12 14 10 23 -17 66 -37 60 -30 64 21 12z m-2413 15 c0 -7 9 -23
20 -35 21 -23 26 -42 10 -42 -5 0 -19 19 -30 42 -23 48 -23 48 -10 48 6 0 10
-6 10 -13z m1190 3 c0 -5 -5 -10 -11 -10 -5 0 -7 5 -4 10 3 6 8 10 11 10 2 0
4 -4 4 -10z m1190 -61 c0 -33 -20 -23 -30 16 -1 6 -6 21 -11 35 -9 25 -9 25
16 -3 14 -15 25 -37 25 -48z m-1695 51 c3 -5 2 -10 -4 -10 -5 0 -13 5 -16 10
-3 6 -2 10 4 10 5 0 13 -4 16 -10z m425 0 c0 -5 -21 -9 -47 -9 l-48 2 40 7
c22 4 43 8 48 9 4 0 7 -3 7 -9z m760 0 c0 -5 -4 -10 -10 -10 -5 0 -10 5 -10
10 0 6 5 10 10 10 6 0 10 -4 10 -10z m-1368 -54 c-9 -18 -11 -16 -11 19 0 33
1 37 10 21 8 -12 8 -25 1 -40z m1685 22 c-3 -7 -5 -2 -5 12 0 14 2 19 5 13 2
-7 2 -19 0 -25z m-467 7 c0 -8 -4 -15 -8 -15 -5 0 -9 7 -9 15 0 8 4 15 9 15 4
0 8 -7 8 -15z m328 -10 c-3 -3 -9 2 -12 12 -6 14 -5 15 5 6 7 -7 10 -15 7 -18z
m69 3 c-3 -8 -6 -5 -6 6 -1 11 2 17 5 13 3 -3 4 -12 1 -19z m-1342 2 c-3 -5
-12 -10 -20 -10 -8 0 -17 5 -20 10 -4 6 5 10 20 10 15 0 24 -4 20 -10z m183 3
c-10 -2 -28 -2 -40 0 -13 2 -5 4 17 4 22 1 32 -1 23 -4z m638 -30 c-11 -11
-17 4 -9 23 7 18 8 18 11 1 2 -10 1 -21 -2 -24z m201 0 c-3 -10 -5 -4 -5 12 0
17 2 24 5 18 2 -7 2 -21 0 -30z m203 23 c0 -8 3 -21 6 -30 4 -10 1 -16 -9 -16
-18 0 -29 24 -21 45 8 19 24 20 24 1z m-1723 -18 c-3 -8 -6 -5 -6 6 -1 11 2
17 5 13 3 -3 4 -12 1 -19z m533 12 c0 -5 -4 -10 -10 -10 -5 0 -10 5 -10 10 0
6 5 10 10 10 6 0 10 -4 10 -10z m75 0 c-3 -5 -13 -10 -21 -10 -8 0 -14 5 -14
10 0 6 9 10 21 10 11 0 17 -4 14 -10z m966 -56 c6 -11 9 -34 7 -50 -4 -31 -7
-27 -28 43 -7 24 -9 49 -5 60 8 16 9 15 12 -7 2 -14 9 -34 14 -46z m-211 52
c0 -3 -4 -8 -10 -11 -5 -3 -10 -1 -10 4 0 6 5 11 10 11 6 0 10 -2 10 -4z m250
-6 c0 -5 -4 -10 -10 -10 -5 0 -10 5 -10 10 0 6 5 10 10 10 6 0 10 -4 10 -10z
m-1287 -38 c17 -39 24 -92 10 -78 -5 4 -8 11 -8 14 -2 19 -17 52 -25 52 -9 0
-20 37 -12 44 11 12 19 5 35 -32z m1113 -8 c8 3 14 1 14 -4 0 -12 -20 -13 -37
-2 -8 5 -10 17 -5 32 l7 25 3 -28 c2 -20 8 -27 18 -23z m494 30 c0 -8 -4 -12
-10 -9 -5 3 -10 10 -10 16 0 5 5 9 10 9 6 0 10 -7 10 -16z m-660 -21 c-1 -24
-2 -26 -11 -10 -5 9 -7 22 -4 27 10 17 15 11 15 -17z m-1213 -93 c8 -30 17
-67 20 -82 3 -16 9 -28 14 -28 14 0 11 -34 -7 -68 -8 -18 -12 -37 -8 -44 5 -9
2 -9 -9 1 -11 9 -15 21 -11 33 5 17 2 19 -15 13 -16 -5 -24 0 -33 20 l-12 26
-13 -23 c-15 -28 -17 -58 -3 -58 6 0 10 7 10 15 0 8 3 15 8 15 12 0 64 -71 57
-78 -13 -13 -99 44 -105 69 -5 21 -7 22 -16 7 -8 -15 -16 -12 -73 27 -59 41
-111 99 -111 124 0 6 -6 8 -14 5 -9 -3 -22 5 -32 20 -15 25 -15 28 0 45 9 9
16 24 16 32 0 8 16 -14 36 -48 35 -63 48 -74 58 -50 3 6 3 0 0 -15 -5 -21 -2
-28 10 -28 9 0 16 -7 16 -15 0 -8 6 -12 13 -9 7 2 26 -9 42 -26 16 -16 33 -30
38 -30 4 0 1 7 -7 16 -9 8 -20 23 -25 33 -8 14 -5 17 16 16 21 0 29 7 39 35
l12 35 1 -32 c1 -18 -3 -33 -9 -33 -12 0 -13 -50 -1 -69 7 -11 10 -9 16 8 3
11 4 25 0 31 -3 5 -1 17 4 27 5 10 16 34 25 53 l16 35 0 -32 c0 -17 5 -35 11
-38 6 -4 8 -13 6 -19 -3 -7 -1 -19 3 -27 7 -11 10 -10 16 5 4 10 2 27 -4 37
-7 10 -12 29 -12 42 0 13 -4 27 -9 33 -5 5 -12 32 -16 59 l-7 50 18 -30 c9
-16 23 -55 31 -85z m1113 89 c0 -14 -17 -10 -23 5 -4 10 -1 13 9 9 7 -3 14 -9
14 -14z m-783 -12 c9 -18 7 -31 -4 -55 -9 -18 -20 -32 -25 -32 -6 0 -6 5 1 14
13 16 16 54 6 79 -11 26 10 20 22 -6z m63 -19 c0 -15 -28 -9 -34 8 -11 30 -6
37 14 19 11 -10 20 -22 20 -27z m1180 -15 c0 -12 -4 -25 -10 -28 -6 -4 -10 6
-10 24 0 16 -3 38 -6 48 -6 16 -5 16 9 -2 9 -11 17 -30 17 -42z m450 47 c0 -5
-5 -10 -11 -10 -5 0 -7 5 -4 10 3 6 8 10 11 10 2 0 4 -4 4 -10z m-255 -10 c3
-5 1 -10 -4 -10 -6 0 -11 5 -11 10 0 6 2 10 4 10 3 0 8 -4 11 -10z m-2025 -43
c0 -4 -7 -2 -15 7 -8 8 -15 21 -15 28 1 14 30 -20 30 -35z m1234 28 c-10 -8
-26 -14 -34 -14 -11 0 -10 3 4 14 11 8 27 15 35 15 11 0 10 -4 -5 -15z m337
-2 c0 -10 3 -27 6 -38 13 -52 14 -75 5 -75 -5 0 -12 15 -15 33 -3 17 -9 47
-13 65 -4 21 -3 32 5 32 6 0 11 -8 12 -17z m319 -21 c0 -13 -3 -12 -15 4 -19
25 -19 40 0 24 8 -7 15 -20 15 -28z m487 18 c-4 -17 -2 -20 15 -14 17 5 19 3
13 -15 -4 -13 -2 -21 5 -21 7 0 9 -8 5 -19 -3 -11 -1 -22 5 -26 8 -5 8 -11 -1
-21 -9 -11 -9 -17 1 -29 7 -8 9 -22 6 -31 -4 -9 1 -28 9 -41 9 -13 14 -30 11
-36 -2 -7 -5 -4 -5 6 -1 9 -5 17 -11 17 -5 0 -10 7 -10 15 0 8 -7 15 -15 15
-19 0 -19 -2 5 -45 11 -20 20 -47 20 -62 0 -26 0 -25 -23 8 -12 19 -28 47 -35
64 -12 25 -11 31 3 41 14 11 15 16 1 47 -8 20 -12 45 -9 56 3 12 1 21 -6 21
-6 0 -11 9 -11 19 0 11 -4 23 -10 26 -16 10 -12 19 13 31 12 7 24 12 26 13 2
0 1 -8 -2 -19z m134 10 c10 -6 19 -21 19 -35 0 -13 4 -25 9 -27 5 -1 12 -18
16 -37 8 -37 -10 -41 -29 -5 -6 10 -15 22 -20 26 -6 4 -4 13 3 22 9 11 10 16
2 16 -13 0 -51 31 -51 42 0 11 28 10 51 -2z m-1063 -24 c5 -25 -8 -89 -16 -81
-11 11 -8 105 3 102 6 -2 12 -12 13 -21z m282 14 c0 -5 -2 -10 -4 -10 -3 0 -8
5 -11 10 -3 6 -1 10 4 10 6 0 11 -4 11 -10z m220 -9 c0 -11 3 -26 6 -35 9 -24
-13 -19 -26 5 -12 22 -7 49 10 49 5 0 10 -9 10 -19z m-1470 -6 c0 -8 -4 -15
-10 -15 -5 0 -10 7 -10 15 0 8 5 15 10 15 6 0 10 -7 10 -15z m662 -7 c-6 -6
-15 -8 -19 -4 -4 4 -1 11 7 16 19 12 27 3 12 -12z m181 -32 c6 -35 5 -37 -8
-20 -8 11 -15 32 -15 49 0 40 16 20 23 -29z m722 34 c-4 -12 -1 -27 5 -35 13
-16 10 -71 -5 -68 -10 3 -19 89 -11 110 9 21 18 15 11 -7z m65 -56 c0 -8 -5
-14 -11 -14 -6 0 -8 9 -4 20 4 11 2 20 -4 20 -6 0 -11 12 -11 28 1 27 1 27 15
-7 8 -18 15 -40 15 -47z m460 56 c0 -11 -4 -20 -10 -20 -5 0 -10 9 -10 20 0
11 5 20 10 20 6 0 10 -9 10 -20z m54 9 c14 -7 33 -28 42 -48 9 -20 24 -43 34
-51 21 -19 60 -129 49 -136 -5 -3 -9 0 -9 6 0 13 -44 82 -87 136 -18 23 -33
46 -33 53 0 7 -4 10 -9 6 -6 -3 -4 -16 4 -32 16 -31 9 -51 -11 -31 -13 13 -18
44 -16 86 2 26 3 26 36 11z m-1866 -32 c11 -22 11 -31 2 -43 -17 -20 -23 -18
-37 11 -8 18 -8 25 0 25 7 0 7 4 -1 12 -17 17 -15 30 5 26 10 -2 24 -16 31
-31z m42 12 c0 -5 -4 -9 -10 -9 -5 0 -10 7 -10 16 0 8 5 12 10 9 6 -3 10 -10
10 -16z m40 -14 c-13 -14 -26 -23 -28 -20 -3 3 5 16 18 30 13 14 26 23 28 20
3 -3 -5 -16 -18 -30z m119 -2 c-2 -31 -3 -33 -6 -10 -2 15 -11 27 -19 27 -8 0
-14 5 -14 10 0 6 9 10 20 10 17 0 20 -6 19 -37z m307 10 c-10 -10 -19 5 -10
18 6 11 8 11 12 0 2 -7 1 -15 -2 -18z m99 17 c3 -5 1 -10 -4 -10 -6 0 -11 5
-11 10 0 6 2 10 4 10 3 0 8 -4 11 -10z m892 -12 c-3 -8 -6 -5 -6 6 -1 11 2 17
5 13 3 -3 4 -12 1 -19z m184 -11 c-8 -8 -11 -7 -11 4 0 20 13 34 18 19 3 -7
-1 -17 -7 -23z m-796 -33 c14 -31 25 -65 25 -75 0 -12 7 -19 20 -19 15 0 20
-7 20 -25 0 -31 -15 -33 -25 -2 -6 19 -8 20 -12 4 -3 -10 7 -33 22 -52 19 -26
22 -35 11 -35 -8 0 -16 6 -19 13 -2 6 -8 9 -12 5 -4 -4 2 -17 14 -29 12 -13
21 -31 21 -40 0 -10 5 -21 10 -24 6 -4 8 -21 4 -40 -3 -19 -3 -39 1 -45 12
-20 17 -142 5 -135 -5 3 -10 24 -10 46 0 40 -14 51 -38 27 -10 -10 -14 -8 -18
10 -8 27 -24 29 -24 2 0 -11 -4 -20 -10 -20 -5 0 -10 9 -10 19 0 11 5 23 10
26 16 10 11 25 -6 18 -13 -5 -15 -2 -9 17 5 16 4 21 -6 18 -8 -3 -15 -17 -17
-31 -2 -15 -8 -27 -13 -27 -6 0 -7 -6 -3 -12 10 -16 13 -48 4 -48 -3 0 -11 5
-17 11 -8 8 -17 8 -30 0 -23 -12 -63 10 -63 35 0 21 -18 17 -25 -6 -7 -21 -25
-28 -25 -10 0 6 -7 10 -16 10 -8 0 -12 -5 -9 -10 3 -6 1 -10 -5 -10 -6 0 -16
11 -22 25 -6 14 -14 25 -18 25 -16 0 -18 -14 -3 -36 14 -23 14 -24 -5 -24 -12
0 -23 -4 -26 -9 -3 -5 -17 -11 -32 -14 -19 -3 -27 0 -33 16 -6 15 -10 17 -15
8 -5 -7 -3 -18 3 -24 6 -6 11 -19 11 -29 0 -10 4 -18 10 -18 5 0 9 -17 9 -37
0 -21 2 -65 5 -98 2 -33 2 -50 0 -38 -7 27 -34 53 -34 31 0 -8 5 -30 11 -47 8
-22 8 -36 1 -43 -7 -7 -14 8 -23 46 -7 31 -16 59 -21 62 -19 12 -7 26 17 20
26 -7 34 7 13 21 -7 4 -19 19 -27 32 -12 21 -11 26 3 36 17 13 22 35 6 35 -5
0 -13 -7 -18 -16 -7 -13 -13 -9 -31 21 -25 43 -23 55 4 25 18 -20 18 -20 42
14 25 37 29 56 13 56 -5 0 -10 -8 -10 -19 0 -29 -25 -45 -49 -31 -12 6 -21 15
-21 19 0 5 -9 7 -20 4 -11 -3 -20 0 -20 6 0 6 -7 11 -15 11 -23 0 -18 -19 8
-31 29 -13 61 -65 53 -85 -5 -14 -8 -14 -21 0 -8 8 -15 19 -15 24 0 6 -4 12
-8 14 -9 3 -72 93 -72 103 0 3 21 5 48 5 26 -1 60 2 76 6 19 5 31 2 37 -7 7
-11 10 -11 21 3 19 26 71 34 91 14 20 -20 34 -21 17 -1 -15 18 -13 22 15 27
12 2 19 -2 17 -9 -3 -19 12 -16 25 6 16 26 61 33 73 11 5 -10 7 -20 3 -23 -3
-4 2 -9 11 -13 9 -3 14 -10 11 -14 -3 -5 -1 -11 5 -15 5 -3 10 -15 10 -25 0
-10 5 -22 11 -26 14 -8 9 19 -14 81 -19 49 -15 58 30 72 32 10 39 9 50 -5 15
-21 16 -32 3 -32 -5 0 -10 8 -10 17 0 13 -3 14 -11 6 -9 -9 -7 -16 5 -29 16
-15 19 -15 33 -2 12 12 13 20 4 36 -23 43 -3 45 21 2 9 -17 22 -30 28 -30 6 0
2 14 -10 30 -20 28 -20 31 -4 37 15 5 15 8 2 17 -15 11 -18 17 -18 36 0 6 -5
10 -11 10 -6 0 -9 -9 -6 -20 7 -28 -17 -26 -31 3 -10 21 -11 21 -11 2 -1 -12
5 -27 12 -34 10 -11 8 -12 -9 -7 -13 4 -26 1 -34 -9 -7 -8 -20 -15 -29 -15 -9
0 -22 -5 -29 -12 -10 -10 -11 -6 -6 20 4 17 3 39 -1 49 -5 10 -7 28 -6 40 1
11 -3 24 -8 28 -14 8 -14 52 -1 60 11 7 43 -63 35 -76 -6 -9 36 -79 48 -79 11
0 9 13 -7 35 -7 11 -16 34 -20 50 -18 78 -24 101 -31 118 -5 12 -2 17 10 17
12 0 16 -6 12 -20 -3 -11 -1 -23 4 -26 5 -3 9 -18 9 -34 0 -15 7 -30 15 -34 8
-3 15 -13 15 -22 0 -14 2 -14 16 -3 14 11 18 11 29 -4 15 -20 25 -12 25 20 0
14 6 23 15 23 17 0 20 16 4 26 -8 4 -8 9 0 17 6 6 7 15 1 22 -11 13 -25 115
-16 115 3 0 17 -25 31 -56z m24 30 c3 -16 1 -17 -13 -5 -19 16 -21 34 -3 29 6
-3 14 -13 16 -24z m1066 3 c6 -6 25 -13 42 -14 41 -3 73 -19 73 -38 0 -16 -26
-21 -32 -6 -1 5 -18 12 -35 16 -26 5 -33 3 -33 -9 0 -37 -49 -1 -50 37 0 9 -6
17 -14 17 -8 0 -18 5 -22 12 -10 15 58 2 71 -15z m-1715 -9 c0 -13 -23 -5 -28
10 -2 7 2 10 12 6 9 -3 16 -11 16 -16z m194 14 c2 -4 -2 -15 -9 -25 -12 -17
-13 -16 -11 7 1 25 10 34 20 18z m-1465 -36 c0 -6 -5 -3 -12 6 -10 15 -12 15
-24 0 -11 -16 -12 -16 -13 0 0 9 6 18 13 21 15 5 37 -11 36 -27z m121 13 c0
-5 -4 -9 -10 -9 -5 0 -10 7 -10 16 0 8 5 12 10 9 6 -3 10 -10 10 -16z m635 11
c3 -5 -1 -10 -9 -10 -9 0 -16 5 -16 10 0 6 4 10 9 10 6 0 13 -4 16 -10z m385
0 c0 -5 -2 -10 -4 -10 -3 0 -8 5 -11 10 -3 6 -1 10 4 10 6 0 11 -4 11 -10z
m524 -61 c5 -12 1 -18 -16 -22 -28 -8 -34 -2 -43 42 -5 23 -4 31 4 27 6 -4 11
-16 11 -26 0 -19 17 -36 27 -27 3 3 1 12 -3 19 -12 18 -14 40 -6 52 3 6 9 -3
13 -19 4 -17 10 -37 13 -46z m326 51 c0 -11 5 -20 10 -20 6 0 10 -4 10 -10 0
-21 -19 -8 -29 20 -6 18 -6 30 0 30 5 0 9 -9 9 -20z m162 -31 c11 -7 12 -50 3
-74 -8 -20 -8 -20 13 -1 17 15 22 16 22 4 0 -11 -57 -48 -73 -48 -1 0 -3 14
-4 30 -2 21 2 30 12 30 8 0 15 5 15 10 0 6 -7 10 -15 10 -18 0 -19 12 -4 27 8
8 8 17 0 31 -17 32 -13 39 6 12 9 -14 20 -28 25 -31z m-1585 9 c-3 -7 -5 -2
-5 12 0 14 2 19 5 13 2 -7 2 -19 0 -25z m835 10 c-7 -7 -12 -8 -12 -2 0 14 12
26 19 19 2 -3 -1 -11 -7 -17z m553 12 c3 -5 1 -10 -4 -10 -6 0 -11 5 -11 10 0
6 2 10 4 10 3 0 8 -4 11 -10z m225 -16 c13 -33 13 -54 -1 -54 -6 0 -8 7 -5 16
3 8 -1 26 -10 40 -10 15 -12 24 -5 24 6 0 16 -12 21 -26z m350 16 c0 -5 -5
-10 -11 -10 -5 0 -7 5 -4 10 3 6 8 10 11 10 2 0 4 -4 4 -10z m-2460 -4 c0 -3
-4 -8 -10 -11 -5 -3 -10 -1 -10 4 0 6 5 11 10 11 6 0 10 -2 10 -4z m800 -6 c0
-5 -4 -10 -10 -10 -5 0 -10 5 -10 10 0 6 5 10 10 10 6 0 10 -4 10 -10z m43
-22 c3 -13 9 -33 12 -45 6 -17 3 -23 -9 -23 -9 0 -16 6 -17 13 0 6 -2 27 -5
45 -4 36 11 44 19 10z m897 -10 c0 -5 -4 -8 -10 -8 -5 0 -10 10 -10 23 0 18 2
19 10 7 5 -8 10 -18 10 -22z m440 13 c0 -11 -4 -23 -10 -26 -6 -4 -10 5 -10
19 0 14 5 26 10 26 6 0 10 -9 10 -19z m-1215 -11 c-10 -11 -20 -18 -23 -15 -7
6 18 35 31 35 5 0 2 -9 -8 -20z m78 0 c3 -11 1 -23 -4 -26 -5 -3 -9 6 -9 20 0
31 6 34 13 6z m147 4 c0 -8 -5 -12 -10 -9 -6 4 -8 11 -5 16 9 14 15 11 15 -7z
m42 4 c6 -17 -1 -38 -13 -38 -5 0 -9 11 -9 25 0 26 14 34 22 13z m755 -3 c-4
-8 -2 -17 3 -20 16 -10 12 -47 -6 -59 -25 -19 -21 -139 6 -195 13 -26 18 -47
13 -52 -6 -6 -15 7 -23 33 -8 24 -20 52 -27 63 -7 11 -13 27 -13 37 0 10 -5
18 -11 18 -6 0 -9 9 -6 20 6 23 -3 26 -22 8 -10 -11 -12 -9 -9 7 2 12 11 20
23 20 13 1 19 6 16 15 -8 30 -6 53 5 57 6 2 14 -6 17 -19 6 -22 7 -22 23 -6
15 14 16 22 6 43 -15 32 -15 45 -1 45 6 0 9 -7 6 -15z m43 6 c0 -6 -4 -13 -10
-16 -5 -3 -10 1 -10 9 0 9 5 16 10 16 6 0 10 -4 10 -9z m659 -5 c7 -8 16 -36
21 -63 16 -87 21 -108 32 -130 11 -22 5 -53 -10 -53 -5 0 -7 14 -4 30 3 18 0
30 -7 30 -6 0 -11 11 -11 24 0 13 -9 44 -20 69 -11 25 -18 52 -14 60 3 8 1 18
-5 22 -13 8 -15 25 -2 25 5 0 14 -6 20 -14z m-799 -6 c0 -5 -4 -10 -10 -10 -5
0 -10 5 -10 10 0 6 5 10 10 10 6 0 10 -4 10 -10z m569 -35 c23 -49 26 -65 12
-65 -10 0 -41 72 -41 95 0 24 7 18 29 -30z m618 25 c6 -21 18 -26 28 -10 4 6
13 6 23 1 9 -5 29 -14 45 -20 33 -13 36 -38 5 -44 -23 -3 -23 -3 2 -14 26 -12
60 -47 60 -62 0 -5 7 -15 17 -22 9 -8 14 -9 12 -4 -21 46 -36 71 -46 78 -15 9
-16 17 -4 35 7 11 21 9 75 -9 44 -15 65 -27 62 -36 -3 -7 -1 -15 3 -18 5 -3
11 2 15 10 6 16 8 15 93 -21 17 -8 38 -14 45 -14 22 0 51 -37 45 -55 -4 -10
-20 -15 -46 -15 -22 0 -41 -5 -44 -12 -4 -10 -7 -10 -18 0 -7 6 -21 12 -30 12
-9 0 -19 6 -22 14 -5 12 -11 12 -31 3 -16 -8 -21 -14 -13 -19 9 -6 8 -11 -3
-18 -19 -12 -30 -13 -30 -2 0 13 -39 56 -45 50 -3 -2 5 -15 16 -27 20 -21 20
-24 5 -39 -16 -16 -18 -16 -29 0 -64 92 -83 118 -89 118 -7 0 21 -60 33 -70 3
-3 13 -23 23 -45 11 -22 27 -51 37 -64 11 -13 19 -28 19 -32 0 -23 -21 -3 -69
66 -29 42 -62 86 -74 98 -12 12 -33 38 -47 56 -14 19 -31 40 -37 47 -7 7 -12
33 -11 58 2 47 16 61 25 26z m-3123 -6 c3 -9 6 -28 6 -43 0 -15 5 -32 12 -39
15 -15 3 -16 -23 -2 -20 11 -26 45 -9 55 12 8 13 25 2 25 -5 0 -17 -16 -28
-35 -22 -42 -34 -45 -34 -8 0 48 59 86 74 47z m46 -10 c0 -14 -4 -23 -10 -19
-5 3 -10 15 -10 26 0 10 5 19 10 19 6 0 10 -12 10 -26z m80 5 c0 -5 -4 -9 -10
-9 -5 0 -10 7 -10 16 0 8 5 12 10 9 6 -3 10 -10 10 -16z m573 7 c6 -16 -2 -28
-14 -20 -12 7 -11 34 0 34 5 0 11 -6 14 -14z m105 2 c8 -8 15 -8 25 1 12 9 16
8 21 -5 11 -28 -9 -37 -43 -20 -17 9 -31 21 -31 26 0 13 13 13 28 -2z m392 3
c0 -12 -20 -25 -27 -18 -7 7 6 27 18 27 5 0 9 -4 9 -9z m1160 -1 c0 -5 -2 -10
-4 -10 -3 0 -8 5 -11 10 -3 6 -1 10 4 10 6 0 11 -4 11 -10z m-841 -17 c0 -24
16 -97 24 -110 4 -5 -1 -19 -9 -29 -14 -17 -15 -18 -10 -1 3 10 -1 34 -9 54
-17 40 -20 103 -6 103 6 0 10 -8 10 -17z m158 -5 c-3 -8 -6 -5 -6 6 -1 11 2
17 5 13 3 -3 4 -12 1 -19z m1398 -9 c11 -11 14 -19 8 -19 -6 0 -19 7 -27 16
-20 20 -20 11 0 -32 9 -19 20 -32 24 -29 10 6 7 -36 -4 -53 -4 -7 -4 -17 0
-24 8 -12 14 -50 17 -105 1 -17 12 -42 23 -55 30 -33 59 -86 51 -94 -7 -7 -55
46 -77 87 -8 15 -28 44 -45 64 -28 35 -28 38 -11 51 13 9 16 19 11 31 -5 10
-7 22 -6 27 1 5 -2 12 -6 15 -14 10 -41 73 -48 114 l-7 38 38 -6 c22 -4 48
-16 59 -26z m-2045 6 c-7 -9 -15 -13 -17 -11 -7 7 7 26 19 26 6 0 6 -6 -2 -15z
m528 3 c-2 -6 -10 -14 -16 -16 -7 -2 -10 2 -6 12 7 18 28 22 22 4z m-998 -17
c5 -11 10 -31 10 -45 0 -13 6 -27 13 -30 6 -3 1 -3 -11 0 -19 5 -23 2 -20 -13
2 -10 9 -17 16 -16 6 2 9 -4 5 -13 -3 -9 0 -20 8 -25 12 -8 12 -10 -1 -19 -12
-7 -12 -12 -2 -22 20 -20 14 -28 -20 -21 -55 10 -76 43 -29 43 17 0 18 8 16
73 -2 39 -6 80 -10 90 -10 24 12 22 25 -2z m695 -58 c5 -15 3 -23 -5 -23 -7 0
-10 6 -7 14 3 8 0 17 -7 19 -8 3 -11 17 -8 39 l6 33 7 -30 c4 -16 11 -40 14
-52z m122 65 c8 21 25 13 18 -9 -6 -18 -4 -21 13 -17 11 3 25 2 32 -2 16 -10
4 -30 -19 -30 -21 0 -71 44 -71 62 0 9 3 9 11 -2 8 -11 12 -12 16 -2z m454
-14 c-10 -55 -43 -66 -55 -18 -9 34 -1 43 32 40 20 -3 26 -8 23 -22z m116 4
c-3 -8 -6 -5 -6 6 -1 11 2 17 5 13 3 -3 4 -12 1 -19z m293 15 c0 -5 4 -14 9
-22 8 -13 12 -13 26 -1 15 13 17 12 14 -5 -4 -19 -58 -56 -71 -48 -4 2 -3 15
2 28 5 14 7 32 4 40 -4 8 -1 15 5 15 6 0 11 -3 11 -7z m127 -5 c10 -16 42
-142 37 -147 -1 -2 -10 3 -18 12 -8 8 -13 17 -10 20 7 6 -16 99 -29 115 -6 8
-6 12 1 12 6 0 14 -6 19 -12z m428 -18 c-3 -44 -15 -49 -15 -7 0 21 4 37 9 37
5 0 8 -14 6 -30z m95 15 c13 -16 6 -65 -9 -65 -5 0 -15 14 -23 30 -7 17 -16
30 -20 30 -12 0 -10 -38 2 -45 6 -3 10 -18 10 -32 0 -33 -10 -24 -26 24 -11
32 -11 40 3 55 20 22 46 23 63 3z m-2732 -33 c21 -43 23 -93 5 -100 -7 -2 -13
3 -13 12 0 9 -4 16 -10 16 -5 0 -10 11 -10 24 0 14 -4 27 -9 30 -10 7 -2 56
10 56 5 0 17 -17 27 -38z m1328 -18 c15 -56 18 -104 6 -104 -4 0 -16 10 -26
21 -14 17 -15 23 -5 30 17 10 5 23 -16 16 -9 -4 -15 -19 -15 -38 0 -42 -11
-31 -14 15 -3 29 0 35 18 38 17 2 21 10 20 41 -2 52 16 42 32 -19z m114 -7 c0
-19 4 -27 13 -24 7 2 11 19 10 41 -2 26 2 36 12 36 10 0 15 -10 15 -29 0 -17
5 -33 10 -36 15 -9 12 -45 -5 -51 -22 -9 -18 -23 5 -17 17 5 20 0 20 -30 0
-19 -6 -39 -12 -45 -15 -11 -99 -29 -202 -42 -38 -5 -74 -14 -80 -20 -5 -5
-31 -10 -57 -10 l-46 0 -1 78 c-1 95 3 111 27 105 10 -3 22 0 25 6 4 6 17 11
30 11 17 0 24 -8 33 -40 12 -46 3 -51 -26 -14 -22 28 -41 25 -41 -7 0 -10 -4
-19 -10 -19 -17 0 -11 -17 8 -23 11 -2 22 -14 25 -26 4 -18 2 -21 -10 -17 -13
6 -14 4 -3 -9 9 -11 15 -12 20 -5 4 6 18 8 32 5 16 -4 29 -1 38 10 11 14 9 15
-20 13 -22 -2 -36 3 -43 14 -15 24 -3 32 23 16 19 -11 24 -10 41 11 16 19 22
21 34 11 12 -10 19 -10 27 -2 17 17 31 15 24 -3 -3 -8 -1 -15 4 -15 6 0 10 7
10 15 0 19 16 19 24 0 3 -8 10 -15 17 -15 6 0 8 7 5 15 -3 8 -9 22 -12 30 -3
8 -1 15 5 15 6 0 16 -12 21 -26 14 -37 29 -21 20 22 -10 44 -18 53 -31 34 -7
-11 -8 -6 -3 14 6 26 5 28 -12 22 -15 -6 -17 -5 -6 5 6 7 12 24 12 39 1 24 1
24 15 6 8 -11 15 -33 15 -49z m-505 43 c3 -5 -1 -10 -10 -10 -9 0 -13 5 -10
10 3 6 8 10 10 10 2 0 7 -4 10 -10z m101 -6 c-4 -9 -1 -23 5 -30 13 -16 3 -52
-10 -38 -5 5 -10 23 -11 39 -3 41 -2 45 11 45 6 0 8 -7 5 -16z m98 -8 c3 -13
9 -32 13 -43 6 -16 5 -16 -8 -3 -19 18 -33 70 -20 70 5 0 12 -11 15 -24z
m1166 -3 c0 -20 -3 -24 -11 -16 -7 7 -9 19 -6 27 10 24 17 19 17 -11z m252 -3
c3 -16 1 -30 -4 -30 -4 0 -8 6 -8 14 0 8 -3 21 -6 30 -3 9 -2 16 4 16 5 0 12
-13 14 -30z m-2504 -7 c14 -31 15 -43 5 -43 -8 0 -33 47 -33 62 0 17 16 6 28
-19z m1131 -15 c1 -5 -3 -8 -9 -8 -5 0 -10 12 -9 28 0 24 1 25 9 7 5 -11 9
-23 9 -27z m-282 3 c-4 -18 -2 -31 5 -33 15 -5 20 -75 7 -84 -19 -12 -35 14
-21 36 20 32 4 49 -50 56 -28 4 -52 13 -55 21 -8 20 4 28 21 14 8 -7 20 -10
26 -6 5 3 13 -1 16 -9 8 -21 24 -10 24 15 0 11 7 19 16 19 13 0 15 -7 11 -29z
m99 -13 c-2 -24 2 -49 7 -57 6 -7 11 -27 12 -45 0 -24 4 -30 18 -28 21 4 23
-14 2 -22 -8 -3 -15 -1 -15 4 0 5 -7 7 -15 4 -8 -4 -15 -1 -15 5 0 6 -5 11
-11 11 -7 0 -8 -16 -3 -45 4 -30 3 -45 -5 -45 -6 0 -11 9 -11 19 0 11 -5 23
-10 26 -7 4 -9 -2 -4 -19 6 -24 3 -26 -24 -26 -28 0 -32 4 -37 38 -3 20 -8 48
-11 61 -5 21 -3 23 10 12 8 -7 30 -11 48 -9 26 2 34 8 36 26 2 13 0 31 -4 40
-13 28 -11 72 3 72 7 0 13 5 13 10 0 6 4 10 10 10 6 0 8 -18 6 -42z m914 19
c0 -13 -7 -32 -15 -43 -15 -18 -16 -17 -9 16 10 54 24 69 24 27z m-2000 4 c0
-6 -4 -13 -10 -16 -5 -3 -10 1 -10 9 0 9 5 16 10 16 6 0 10 -4 10 -9z m2275
-21 c-6 -9 -9 -9 -16 1 -10 17 0 34 13 21 6 -6 7 -16 3 -22z m80 10 c3 -5 1
-10 -4 -10 -6 0 -11 5 -11 10 0 6 2 10 4 10 3 0 8 -4 11 -10z m-235 -41 c0
-10 -4 -19 -10 -19 -5 0 -9 11 -8 24 3 28 18 24 18 -5z m83 -1 c-2 -5 0 -14 5
-21 12 -15 21 -77 11 -77 -11 0 -25 23 -39 68 -12 37 -12 45 0 52 15 10 33 -7
23 -22z m267 -45 c0 -12 5 -25 10 -28 6 -3 10 -16 10 -28 -1 -22 -1 -22 -15
-3 -8 11 -15 31 -15 44 0 19 -4 22 -20 17 -20 -6 -28 9 -10 20 16 10 12 25 -5
19 -18 -7 -20 7 -3 24 9 9 16 6 30 -16 10 -15 18 -37 18 -49z m-2529 57 c14
-8 19 -21 19 -55 0 -24 -4 -47 -10 -50 -5 -3 -10 3 -10 15 0 12 -5 18 -10 15
-6 -4 -8 -11 -5 -16 9 -14 -38 -10 -58 5 -11 9 -15 20 -10 31 6 16 7 16 15 -4
4 -12 13 -19 19 -16 6 4 8 13 5 21 -3 7 -1 16 4 19 6 4 10 15 10 26 0 22 4 23
31 9z m2129 -15 c0 -18 -4 -23 -15 -19 -22 9 -18 -6 7 -28 20 -17 21 -20 5
-35 -10 -11 -17 -13 -17 -5 0 6 -7 9 -15 6 -8 -4 -15 -2 -15 4 0 6 6 12 13 15
10 4 10 7 0 18 -18 18 -16 39 5 55 25 19 32 17 32 -11z m300 10 c0 -8 -4 -15
-10 -15 -5 0 -7 7 -4 15 4 8 8 15 10 15 2 0 4 -7 4 -15z m290 -17 c-1 -28 -2
-30 -11 -15 -6 10 -8 25 -5 33 9 24 16 16 16 -18z m-2800 13 c0 -13 -40 -61
-51 -61 -5 0 1 16 13 35 22 33 38 45 38 26z m139 -73 c0 -16 -3 -28 -9 -28 -6
0 -9 25 -9 58 1 47 3 52 9 27 4 -16 8 -42 9 -57z m22 39 c-8 -8 -11 -5 -11 9
0 27 14 41 18 19 2 -9 -1 -22 -7 -28z m2257 -5 c6 -12 12 -29 12 -37 0 -18 16
-20 23 -2 3 7 6 5 6 -5 1 -10 -3 -18 -9 -18 -5 0 -10 -5 -10 -10 0 -10 32 -87
51 -122 12 -23 11 -38 -1 -38 -5 0 -10 7 -10 15 0 9 -7 18 -15 21 -8 4 -15 11
-15 16 0 5 -9 23 -20 38 -11 16 -18 34 -15 42 3 8 -4 42 -15 77 -11 35 -20 66
-20 68 0 7 24 -22 38 -45z m615 -7 c16 -44 16 -85 -1 -85 -10 0 -42 92 -42
120 0 36 24 17 43 -35z m-2613 -45 c0 -17 -4 -30 -10 -30 -5 0 -10 5 -10 10 0
18 -17 11 -29 -12 -10 -20 -11 -15 -8 30 3 43 2 50 -9 41 -18 -15 -19 3 -1 32
12 19 13 19 40 -11 17 -19 27 -42 27 -60z m615 60 c-13 -25 -35 -41 -35 -25 0
16 26 55 37 55 11 0 11 -6 -2 -30z m278 -47 c11 -57 -26 -33 -43 28 -7 24 -6
35 3 41 14 8 31 -21 40 -69z m974 45 c-3 -7 -5 -2 -5 12 0 14 2 19 5 13 2 -7
2 -19 0 -25z m923 7 c14 -19 14 -19 -2 -6 -10 7 -18 18 -18 24 0 6 1 8 3 6 1
-2 9 -13 17 -24z m-560 5 c0 -5 -5 -10 -11 -10 -5 0 -7 5 -4 10 3 6 8 10 11
10 2 0 4 -4 4 -10z m227 -12 c-3 -8 -6 -5 -6 6 -1 11 2 17 5 13 3 -3 4 -12 1
-19z m93 12 c0 -5 -4 -10 -10 -10 -5 0 -10 5 -10 10 0 6 5 10 10 10 6 0 10 -4
10 -10z m-440 -15 c0 -8 -4 -15 -10 -15 -5 0 -10 7 -10 15 0 8 5 15 10 15 6 0
10 -7 10 -15z m-386 -11 c3 -8 0 -22 -8 -30 -18 -17 -30 -18 -19 -1 4 6 6 20
5 30 -4 21 14 23 22 1z m789 -32 c-6 -23 -18 -28 -28 -13 -3 5 -1 12 5 16 5 3
10 16 10 28 1 18 2 19 10 6 5 -8 6 -25 3 -37z m-2605 1 c23 -78 24 -83 9 -83
-9 0 -17 14 -20 38 -3 20 -9 47 -13 60 -3 12 -2 22 3 22 5 0 15 -17 21 -37z
m198 -19 c20 -5 23 -11 18 -28 -3 -11 -13 -28 -21 -36 -13 -13 -17 -12 -30 8
-9 12 -22 22 -31 22 -12 0 -11 -5 7 -24 16 -17 20 -30 15 -50 -7 -31 -11 -32
-37 -8 -11 9 -17 12 -14 6 4 -7 1 -17 -7 -23 -10 -8 -16 -2 -26 29 -16 50 -4
69 26 41 20 -18 20 -18 18 50 l-1 69 29 -25 c16 -14 41 -28 54 -31z m2463 -17
c1 -10 -3 -15 -9 -12 -5 3 -10 23 -9 43 1 33 2 34 9 12 4 -14 8 -33 9 -43z
m237 12 c8 -16 14 -38 14 -50 0 -15 5 -19 15 -15 8 3 15 1 15 -4 0 -6 -5 -10
-10 -10 -6 0 -8 -11 -4 -25 3 -14 2 -25 -3 -25 -11 0 -33 44 -33 65 0 9 -6 12
-15 9 -16 -7 -21 11 -6 21 6 3 4 22 -5 46 -13 37 -12 40 2 28 8 -7 22 -25 30
-40z m-3043 28 c3 -8 1 -20 -4 -28 -6 -10 -9 -7 -9 14 0 29 5 35 13 14z m61 5
c2 -4 7 -24 11 -44 6 -30 4 -39 -9 -44 -24 -9 -28 -1 -16 31 7 20 8 31 0 39
-5 5 -10 14 -10 18 0 10 17 10 24 0z m1806 -2 c8 -5 11 -12 7 -16 -4 -4 -15 0
-24 9 -18 18 -8 23 17 7z m249 -2 c-2 -7 7 -42 18 -78 30 -94 36 -130 24 -130
-6 0 -14 18 -17 41 -4 22 -13 43 -20 46 -8 3 -13 15 -13 26 1 12 -2 41 -6 65
-5 30 -4 42 4 42 7 0 11 -6 10 -12z m474 -8 c3 -11 1 -20 -4 -20 -5 0 -9 9 -9
20 0 11 2 20 4 20 2 0 6 -9 9 -20z m317 10 c0 -5 -4 -10 -10 -10 -5 0 -10 5
-10 10 0 6 5 10 10 10 6 0 10 -4 10 -10z m-278 -22 c-7 -7 -12 -8 -12 -2 0 14
12 26 19 19 2 -3 -1 -11 -7 -17z m-271 -23 c7 -19 16 -35 19 -35 3 0 6 -16 7
-35 1 -19 -3 -35 -8 -35 -5 0 -9 14 -9 30 0 17 -4 30 -10 30 -5 0 -10 11 -10
24 0 14 -4 28 -10 31 -13 8 -13 25 -1 25 5 0 15 -16 22 -35z m59 -11 c23 -54
23 -54 10 -54 -5 0 -10 7 -10 15 0 8 -4 15 -9 15 -5 0 -11 8 -14 18 -2 9 -8
25 -12 35 -4 10 -3 17 3 17 6 0 20 -21 32 -46z m691 10 c10 -16 18 -35 18 -41
2 -26 -15 -11 -36 33 -23 49 -9 56 18 8z m-2191 16 c0 -5 -4 -10 -10 -10 -5 0
-10 5 -10 10 0 6 5 10 10 10 6 0 10 -4 10 -10z m-1072 -11 c27 -9 53 -39 33
-39 -4 0 -13 -22 -21 -49 -7 -26 -21 -59 -31 -72 -17 -23 -18 -23 -38 -5 -27
25 -27 40 2 33 20 -6 21 -5 4 7 -17 13 -14 46 4 46 5 0 10 8 10 18 1 16 2 16
6 0 2 -10 9 -18 14 -18 15 0 10 16 -11 35 -20 18 -28 55 -11 55 4 0 22 -5 39
-11z m2672 1 c0 -5 -4 -10 -10 -10 -5 0 -10 5 -10 10 0 6 5 10 10 10 6 0 10
-4 10 -10z m62 -20 c6 0 8 -3 5 -6 -10 -11 -38 17 -30 30 5 7 9 5 11 -6 2 -10
8 -18 14 -18z m802 -6 c22 -19 35 -38 30 -43 -5 -4 -26 12 -48 36 -46 52 -36
56 18 7z m-1356 14 c15 -15 16 -32 2 -23 -6 4 -10 -15 -10 -49 0 -56 -19 -80
-21 -28 -3 53 -4 57 -12 70 -20 30 15 56 41 30z m137 3 c3 -5 1 -12 -5 -16 -5
-3 -10 1 -10 9 0 18 6 21 15 7z m455 -1 c0 -5 -2 -10 -4 -10 -3 0 -8 5 -11 10
-3 6 -1 10 4 10 6 0 11 -4 11 -10z m-2610 -15 c0 -8 -4 -15 -10 -15 -5 0 -10
7 -10 15 0 8 5 15 10 15 6 0 10 -7 10 -15z m420 -11 c0 -16 17 -19 22 -4 2 6
27 3 63 -6 33 -8 71 -18 85 -20 14 -3 32 -8 40 -11 21 -8 30 -10 73 -11 28 -2
37 -6 37 -20 0 -10 -6 -24 -12 -31 -11 -11 -9 -12 9 -6 18 5 22 3 17 -8 -3 -8
-1 -18 5 -22 6 -3 11 -17 11 -30 0 -13 5 -27 11 -30 13 -8 6 -30 -9 -31 -7 -1
-16 -2 -21 -3 -5 0 -14 -18 -20 -38 l-10 -38 4 35 c2 19 7 50 11 68 4 21 2 32
-5 32 -6 0 -11 -8 -11 -17 0 -13 -3 -14 -12 -5 -9 9 -6 17 12 37 13 14 18 25
12 25 -7 0 -12 -4 -12 -10 0 -24 -19 -6 -36 35 -10 25 -22 45 -26 45 -11 0
-10 -18 2 -25 6 -3 10 -15 10 -26 0 -10 5 -28 12 -38 14 -23 3 -55 -17 -47
-19 7 -31 -14 -14 -25 11 -6 11 -11 2 -20 -6 -6 -9 -18 -6 -26 3 -7 -3 -23
-13 -35 -14 -15 -16 -22 -6 -25 23 -9 11 -73 -14 -73 -16 0 -19 16 -4 25 6 3
10 15 10 26 0 10 -4 19 -10 19 -15 0 -12 26 5 40 8 7 15 16 15 21 0 5 -7 9
-15 9 -8 0 -15 7 -15 16 0 10 6 14 15 10 16 -6 18 -2 9 32 -4 14 -14 22 -28
22 -16 0 -25 10 -35 35 -7 19 -17 35 -23 35 -5 0 -8 6 -5 13 3 7 -4 24 -14 38
-15 20 -19 21 -19 7 0 -10 5 -18 11 -18 6 0 9 -7 5 -15 -7 -20 21 -84 40 -92
11 -4 14 -13 10 -29 -4 -13 -2 -24 3 -24 13 0 2 -32 -16 -47 -12 -10 -12 -15
1 -42 18 -34 19 -41 8 -41 -4 0 -15 18 -25 41 -17 39 -17 42 -1 54 12 9 14 14
5 19 -7 4 -9 16 -5 28 5 16 2 19 -12 16 -12 -2 -21 -15 -25 -33 -5 -24 -7 -26
-13 -13 -4 9 -5 22 -1 28 3 5 1 10 -4 10 -6 0 -11 -4 -11 -10 0 -18 -29 -11
-40 10 -6 10 -8 36 -6 55 5 41 -2 68 -15 59 -5 -3 -9 -14 -9 -25 0 -26 -18
-24 -22 3 -4 25 -28 37 -28 13 0 -9 -5 -13 -10 -10 -8 5 -8 11 0 20 7 9 6 16
-5 25 -13 11 -13 16 2 41 10 16 23 29 29 29 7 0 14 7 18 15 6 18 36 9 36 -11z
m1463 11 c4 -8 2 -17 -3 -20 -6 -4 -10 3 -10 14 0 25 6 27 13 6z m320 -12 c8
-16 18 -39 21 -53 5 -18 0 -14 -18 15 -24 37 -33 65 -21 65 2 0 11 -12 18 -27z
m-2253 3 c0 -8 -4 -17 -9 -21 -12 -7 -24 12 -16 25 9 15 25 12 25 -4z m164 -2
c8 -21 8 -24 -3 -24 -5 0 -11 9 -14 20 -6 24 8 27 17 4z m1026 -18 c0 -19 -6
-21 -50 -22 -46 0 -51 2 -48 20 2 15 9 20 26 18 12 -2 22 1 22 6 0 5 11 7 25
4 17 -3 25 -11 25 -26z m1529 25 c9 -6 10 -10 2 -16 -15 -8 -41 1 -41 15 0 12
20 13 39 1z m61 5 c0 -3 -4 -8 -10 -11 -5 -3 -10 -1 -10 4 0 6 5 11 10 11 6 0
10 -2 10 -4z m570 -18 c1 -28 27 -65 37 -53 5 4 2 10 -4 12 -16 6 -17 53 -2
53 29 0 52 -71 29 -85 -7 -4 -7 -12 0 -25 13 -25 -5 -36 -26 -16 -21 21 -27
20 -15 -2 8 -16 6 -18 -12 -16 -12 1 -25 3 -29 3 -5 1 -8 13 -8 27 0 15 -8 33
-17 40 -15 11 -16 15 -4 23 11 7 10 11 -8 20 -29 16 -27 35 4 27 14 -4 25 -2
25 4 0 5 7 10 15 10 9 0 15 -9 15 -22z m-1239 -21 c-8 -8 -11 -7 -11 4 0 20
13 34 18 19 3 -7 -1 -17 -7 -23z m244 24 c3 -5 1 -12 -5 -16 -5 -3 -10 1 -10
9 0 18 6 21 15 7z m443 -28 c-10 -13 -10 -17 0 -20 6 -3 12 -12 12 -21 0 -21
23 -89 34 -99 4 -4 9 3 13 15 3 12 8 22 12 22 9 0 41 -55 41 -70 0 -6 9 -29
19 -50 11 -22 15 -40 10 -40 -5 0 -9 -8 -9 -17 0 -13 3 -14 12 -5 20 20 27 14
34 -28 4 -22 10 -40 14 -40 4 0 10 -7 14 -15 11 -31 -21 -14 -40 20 -10 19
-22 35 -26 35 -13 0 -9 -17 7 -30 16 -13 21 -40 7 -40 -14 0 -34 42 -37 79 -5
61 -17 111 -26 117 -5 3 -9 14 -9 25 0 23 -9 24 -24 4 -10 -13 -14 -14 -30 -2
-26 19 -51 150 -33 177 6 11 13 16 15 10 2 -6 -2 -18 -10 -27z m-2968 23 c0
-15 -32 -76 -40 -76 -15 0 -12 16 5 34 8 8 15 22 15 30 0 9 5 16 10 16 6 0 10
-2 10 -4z m2386 -23 c-10 -10 -19 5 -10 18 6 11 8 11 12 0 2 -7 1 -15 -2 -18z
m734 17 c0 -5 -4 -10 -10 -10 -5 0 -10 5 -10 10 0 6 5 10 10 10 6 0 10 -4 10
-10z m-2979 -40 c5 0 9 5 9 12 0 6 3 9 6 6 7 -8 -19 -85 -44 -129 -10 -19 -17
-40 -15 -46 3 -7 -2 -16 -11 -19 -9 -3 -16 -12 -16 -20 0 -20 -18 -17 -24 4
-7 19 48 197 67 221 10 12 12 11 15 -7 2 -12 8 -22 13 -22z m2919 8 c11 -18
18 -39 15 -47 -3 -8 3 -20 14 -28 12 -7 18 -20 15 -28 -8 -20 -20 -19 -28 3
-4 9 -18 37 -31 62 -14 25 -25 51 -25 58 0 22 20 12 40 -20z m-940 3 c0 -11
-5 -23 -11 -27 -10 -6 -9 -23 7 -104 5 -24 5 -24 -10 -6 -17 21 -20 57 -10
119 7 38 24 52 24 18z m610 10 c0 -6 -4 -13 -10 -16 -5 -3 -10 1 -10 9 0 9 5
16 10 16 6 0 10 -4 10 -9z m-2485 -29 c1 -9 5 -39 8 -67 6 -46 6 -47 -4 -14
-10 34 -49 66 -63 52 -11 -11 -6 -21 14 -26 11 -3 20 -11 20 -17 0 -8 -9 -10
-27 -5 -16 4 -29 8 -31 10 -5 5 10 54 17 53 19 -2 31 4 31 16 0 14 20 27 29
19 3 -2 6 -11 6 -21z m47 -7 c4 -17 1 -25 -8 -25 -9 0 -14 11 -14 31 0 35 15
31 22 -6z m83 12 c-3 -12 -2 -34 3 -47 5 -14 6 -32 1 -40 -4 -8 -11 -24 -15
-35 -7 -19 -7 -19 -11 -1 -3 10 0 23 6 29 14 14 14 50 0 64 -12 12 -3 53 12
53 5 0 7 -10 4 -23z m2433 -14 c6 -20 9 -39 7 -42 -9 -8 -34 33 -35 57 0 34
15 26 28 -15z m57 27 c4 -6 13 -5 26 3 16 10 21 9 29 -3 13 -21 12 -60 -1 -60
-7 0 -9 10 -7 25 6 29 -9 44 -19 19 -3 -9 -1 -26 6 -37 14 -22 1 -43 -22 -34
-12 4 -57 78 -57 92 0 9 39 5 45 -5z m144 -21 c10 -23 10 -34 2 -42 -8 -8 -11
-4 -11 15 0 15 -4 30 -10 33 -12 7 -13 25 -2 25 4 0 13 -14 21 -31z m387 -12
c11 -21 13 -32 5 -37 -7 -4 -9 -15 -5 -25 12 -31 -12 -13 -51 38 -42 56 -38
78 6 29 30 -33 40 -32 14 2 -19 25 -19 37 0 29 9 -3 23 -19 31 -36z m-716 3
c0 -16 -4 -30 -10 -30 -5 0 -10 14 -10 30 0 17 5 30 10 30 6 0 10 -13 10 -30z
m498 0 c21 -28 22 -32 7 -59 -8 -17 -15 -43 -15 -58 l-1 -28 -21 28 c-22 31
-33 93 -17 102 5 4 9 15 9 26 0 27 13 24 38 -11z m-2848 0 c0 -11 -4 -20 -9
-20 -5 0 -7 9 -4 20 3 11 7 20 9 20 2 0 4 -9 4 -20z m90 -10 c0 -20 5 -30 15
-30 8 0 15 -4 15 -10 0 -20 -27 -9 -38 15 -15 32 -15 55 -2 55 6 0 10 -13 10
-30z m1764 14 c3 -9 6 -23 6 -32 0 -21 -15 -5 -25 26 -7 25 9 31 19 6z m226 1
c0 -8 5 -24 12 -34 6 -10 8 -27 4 -37 -7 -15 -11 -10 -22 26 -17 54 -17 60 -4
60 6 0 10 -7 10 -15z m710 6 c0 -6 -4 -13 -10 -16 -5 -3 -10 1 -10 9 0 9 5 16
10 16 6 0 10 -4 10 -9z m-2044 -22 c6 -5 14 -5 19 -1 4 4 6 0 3 -8 -3 -8 -13
-14 -22 -14 -16 2 -16 0 -2 -15 9 -10 16 -23 16 -29 0 -7 5 -12 10 -12 6 0 10
6 10 14 0 8 5 18 11 21 14 9 40 -26 35 -48 -2 -10 4 -22 15 -27 11 -6 19 -21
19 -35 0 -14 5 -25 10 -25 6 0 10 9 10 20 0 11 5 20 10 20 6 0 10 -19 10 -43
0 -24 12 -72 26 -107 18 -44 22 -66 15 -73 -8 -8 -11 -7 -13 3 0 8 -2 20 -3
25 -2 6 -3 18 -4 28 -1 13 -8 17 -27 15 -33 -4 -44 19 -12 24 24 5 19 8 -27
23 -8 2 -15 12 -15 21 0 24 -35 64 -49 55 -9 -6 -8 -11 4 -21 8 -7 15 -24 15
-39 0 -24 -2 -23 -26 17 -14 23 -29 42 -35 42 -12 0 -11 -14 2 -27 12 -12 4
-33 -12 -33 -5 0 -9 6 -9 13 0 7 -8 31 -19 53 -25 53 -34 84 -24 84 5 0 16
-12 25 -28 21 -35 56 -67 65 -59 3 4 -2 16 -12 27 -19 21 -8 29 13 8 15 -15
24 -6 17 15 -4 9 -17 14 -36 13 -21 -2 -37 7 -61 32 -22 23 -29 36 -20 39 16
6 15 23 -2 23 -7 0 -19 7 -27 16 -12 14 -8 15 37 9 27 -4 54 -11 60 -16z m184
1 c0 -11 5 -20 10 -20 6 0 10 6 10 14 0 20 62 16 83 -6 10 -9 17 -19 17 -22 0
-3 15 -27 33 -53 41 -60 74 -157 60 -175 -6 -7 -13 -22 -16 -33 -3 -11 -4 -2
-1 20 3 27 0 47 -10 60 -15 19 -15 18 -16 -17 0 -21 -4 -38 -10 -38 -5 0 -10
8 -10 17 0 15 -2 14 -15 -3 -13 -18 -14 -17 -15 18 0 20 -4 40 -10 43 -5 3
-10 19 -10 36 0 16 -5 29 -11 29 -7 0 -9 -11 -6 -27 4 -16 9 -44 12 -63 l5
-35 -20 40 c-11 22 -18 50 -15 62 3 12 1 24 -4 27 -7 5 -19 42 -25 78 -1 3 -5
10 -10 15 -5 4 -6 -8 -2 -29 10 -57 -11 -47 -29 14 -18 61 -18 68 -5 68 6 0
10 -9 10 -20z m1483 7 c3 -8 1 -20 -4 -28 -6 -10 -9 -7 -9 14 0 29 5 35 13 14z
m-1517 -19 c4 -13 7 -30 5 -40 -1 -9 3 -19 9 -23 11 -7 14 -45 3 -45 -10 0
-113 104 -113 113 0 13 27 7 40 -8 7 -8 18 -15 24 -14 7 0 6 2 -1 6 -20 8 -15
33 6 33 11 0 23 -10 27 -22z m2464 -47 c-1 -13 -3 -12 -15 3 -13 17 -15 17
-21 3 -3 -10 -15 -17 -25 -17 -25 0 -24 16 1 23 11 3 20 10 20 17 0 7 -8 9
-20 5 -22 -7 -26 5 -8 23 9 9 18 6 40 -15 15 -15 28 -34 28 -42z m-3190 13
c15 -26 18 -40 11 -47 -14 -14 -29 0 -40 40 -8 27 -6 43 5 43 1 0 12 -16 24
-36z m50 -35 c0 -10 5 -21 10 -24 6 -3 10 -21 10 -40 0 -19 -4 -37 -10 -40 -6
-3 -10 5 -10 19 0 14 -5 28 -10 31 -6 3 -7 17 -4 31 3 13 2 30 -3 37 -6 6 -13
21 -16 32 -6 17 -4 17 13 -4 11 -13 20 -31 20 -42z m1731 28 c-8 -8 -11 -7
-11 4 0 20 13 34 18 19 3 -7 -1 -17 -7 -23z m329 25 c0 -4 -5 -13 -12 -20 -9
-9 -9 -12 0 -12 7 0 12 5 12 10 0 6 11 10 25 10 14 0 25 -4 25 -10 0 -5 -8
-10 -18 -10 -29 0 -32 -9 -17 -49 19 -52 27 -91 17 -91 -10 0 -27 31 -38 70
-4 14 -9 30 -11 35 -2 6 -6 25 -9 43 -5 25 -3 32 10 32 9 0 16 -4 16 -8z
m-2624 -17 c14 -13 14 -16 1 -21 -21 -8 -30 -34 -17 -49 7 -8 7 -15 2 -19 -11
-6 -23 16 -29 53 -8 47 14 65 43 36z m334 -46 c0 -18 -21 -8 -29 14 -13 35 -1
52 15 21 8 -14 14 -30 14 -35z m30 57 c0 -3 -4 -8 -10 -11 -5 -3 -10 -1 -10 4
0 6 5 11 10 11 6 0 10 -2 10 -4z m1450 -6 c0 -5 -4 -10 -10 -10 -5 0 -10 5
-10 10 0 6 5 10 10 10 6 0 10 -4 10 -10z m674 -5 c-4 -8 -8 -15 -10 -15 -2 0
-4 7 -4 15 0 8 4 15 10 15 5 0 7 -7 4 -15z m381 -70 c17 -36 19 -38 23 -16 2
15 -2 28 -12 33 -17 10 -22 38 -7 38 11 0 41 -56 41 -75 0 -7 -8 -16 -17 -20
-20 -7 -53 26 -53 54 0 9 -5 22 -11 28 -6 6 -8 17 -3 25 6 10 10 8 14 -7 3
-11 15 -38 25 -60z m95 61 c0 -8 -4 -18 -10 -21 -5 -3 -10 3 -10 14 0 12 5 21
10 21 6 0 10 -6 10 -14z m490 -1 c0 -8 -4 -15 -10 -15 -5 0 -10 7 -10 15 0 8
5 15 10 15 6 0 10 -7 10 -15z m300 0 c0 -8 -4 -15 -10 -15 -5 0 -10 7 -10 15
0 8 5 15 10 15 6 0 10 -7 10 -15z m-1763 -25 c-11 -29 -27 -41 -27 -20 0 14
23 50 32 50 3 0 1 -13 -5 -30z m50 16 c-3 -7 -2 -17 3 -22 5 -5 11 -31 14 -59
6 -49 6 -50 -9 -20 -8 17 -14 38 -15 48 0 20 -16 23 -23 5 -3 -8 -6 -6 -6 5
-1 20 20 57 32 57 5 0 7 -6 4 -14z m149 -21 c6 -19 9 -35 7 -35 -12 0 -33 31
-33 49 0 32 14 25 26 -14z m71 23 c4 -7 8 -17 8 -23 1 -12 13 -44 26 -67 5
-10 9 -27 9 -37 0 -11 5 -23 10 -26 12 -7 13 -25 2 -25 -4 0 -13 15 -21 33
-34 77 -47 103 -58 115 -13 13 -7 42 7 42 5 0 12 -6 17 -12z m290 -10 c-3 -8
-6 -5 -6 6 -1 11 2 17 5 13 3 -3 4 -12 1 -19z m193 -14 c0 -8 6 -23 12 -34 10
-15 10 -22 0 -32 -9 -9 -12 -7 -12 9 0 12 -5 25 -10 28 -7 4 -9 -12 -8 -44 2
-29 -1 -51 -7 -50 -6 0 -9 6 -7 14 1 7 -2 16 -8 20 -5 3 -10 27 -10 52 0 40 2
44 16 32 13 -11 14 -9 8 17 -7 26 -6 28 9 15 10 -7 17 -20 17 -27z m-2554 -18
c9 -52 10 -106 2 -106 -5 0 -8 6 -8 14 0 8 -6 16 -14 19 -11 5 -15 58 -6 105
0 1 4 2 10 2 5 0 12 -15 16 -34z m274 -35 c0 -38 -17 -13 -25 34 -6 39 -6 39
9 15 8 -14 15 -36 16 -49z m1349 50 c6 -9 10 -10 15 -2 4 6 12 9 17 5 6 -4 6
-11 -1 -19 -7 -8 -9 -19 -5 -25 3 -6 8 -28 10 -50 3 -29 0 -40 -10 -40 -21 0
-28 19 -15 35 7 8 10 15 6 15 -17 0 -22 3 -39 18 -12 11 -20 13 -25 5 -4 -5
-16 -13 -28 -17 -16 -5 -24 2 -42 35 -27 50 -27 49 -2 49 11 0 20 -7 20 -15 0
-8 5 -15 11 -15 6 0 8 8 4 19 -5 17 -1 19 35 17 23 -1 45 -8 49 -15z m81 -6
c-27 -29 -37 -27 -20 4 6 12 18 21 27 21 13 0 12 -5 -7 -25z m45 -5 c-4 -19
-3 -30 4 -30 6 0 11 -10 11 -22 0 -13 6 -35 14 -49 7 -14 16 -37 19 -51 4 -14
10 -33 13 -42 3 -9 1 -16 -5 -16 -6 0 -11 9 -11 20 0 11 -4 20 -10 20 -5 0
-10 9 -10 19 0 11 -6 26 -13 33 -21 21 -39 118 -26 134 17 21 21 17 14 -16z
m465 -51 c0 -14 5 -30 12 -37 6 -6 8 -15 4 -19 -8 -9 -24 15 -44 67 -26 69
-26 77 2 45 14 -16 25 -41 26 -56z m6 64 c15 -21 18 -33 6 -33 -5 0 -14 11
-20 25 -13 29 -5 33 14 8z m111 -23 c11 -19 23 -48 27 -65 l6 -30 -21 25 c-12
14 -24 24 -28 23 -3 0 -7 19 -8 44 -3 51 -2 51 24 3z m-2497 20 c0 -5 -7 -10
-15 -10 -8 0 -15 5 -15 10 0 6 7 10 15 10 8 0 15 -4 15 -10z m2975 -34 c18
-26 25 -48 23 -70 l-4 -31 -18 40 c-10 22 -22 48 -27 57 -9 18 -13 55 -5 47 3
-3 17 -22 31 -43z m-2752 10 c17 5 19 4 10 -6 -16 -17 -43 -5 -42 17 1 17 2
17 6 0 3 -13 10 -16 26 -11z m156 -22 c-17 -21 -21 -11 -8 22 10 23 13 25 16
11 3 -10 -1 -25 -8 -33z m1239 -28 c-1 -41 -1 -41 -5 -6 -3 19 -9 39 -14 45
-5 5 -9 16 -9 25 1 12 4 11 15 -4 8 -11 14 -38 13 -60z m1032 64 c0 -5 -2 -10
-4 -10 -3 0 -8 5 -11 10 -3 6 -1 10 4 10 6 0 11 -4 11 -10z m140 1 c0 -16 -12
-41 -20 -41 -4 0 -5 11 -2 25 4 23 22 36 22 16z m350 -58 c0 -23 -9 -14 -30
30 l-21 42 26 -30 c13 -16 25 -36 25 -42z m-2870 47 c0 -5 -2 -10 -4 -10 -3 0
-8 5 -11 10 -3 6 -1 10 4 10 6 0 11 -4 11 -10z m340 -4 c0 -7 11 -25 24 -39
18 -20 21 -27 10 -31 -8 -3 -14 1 -14 9 0 8 -4 15 -10 15 -5 0 -10 7 -10 15 0
8 -4 15 -10 15 -5 0 -10 7 -10 15 0 8 5 15 10 15 6 0 10 -6 10 -14z m1700 -7
c0 -11 -4 -18 -10 -14 -5 3 -7 12 -3 20 7 21 13 19 13 -6z m-1810 -10 c0 -5
-7 -9 -15 -9 -15 0 -20 12 -9 23 8 8 24 -1 24 -14z m1921 -12 c-8 -8 -11 -7
-11 4 0 20 13 34 18 19 3 -7 -1 -17 -7 -23z m-341 2 c0 -5 -4 -9 -10 -9 -5 0
-10 7 -10 16 0 8 5 12 10 9 6 -3 10 -10 10 -16z m-820 -8 c12 -24 13 -78 1
-85 -5 -3 -11 11 -13 32 -3 20 -8 45 -12 55 -11 24 11 22 24 -2z m-920 0 c0
-5 3 -24 6 -42 5 -23 3 -31 -4 -24 -15 15 -26 75 -13 75 6 0 11 -4 11 -9z
m1175 -49 c-9 -9 -25 19 -24 43 0 16 2 15 15 -8 9 -16 13 -32 9 -35z m465 33
c0 -8 -4 -17 -10 -20 -6 -4 -10 5 -10 20 0 15 4 24 10 20 6 -3 10 -12 10 -20z
m-1721 -92 c1 -13 -3 -23 -8 -23 -10 0 -20 118 -11 127 5 5 18 -64 19 -104z
m36 60 c4 -32 14 -54 28 -65 12 -9 19 -20 15 -24 -9 -8 -35 12 -49 38 -14 26
-22 98 -11 98 6 0 13 -21 17 -47z m224 21 c10 -22 9 -25 -6 -22 -10 2 -19 13
-21 26 -5 30 12 28 27 -4z m391 11 c0 -8 -7 -15 -15 -15 -16 0 -20 12 -8 23
11 12 23 8 23 -8z m2030 5 c0 -5 -4 -10 -10 -10 -5 0 -10 5 -10 10 0 6 5 10
10 10 6 0 10 -4 10 -10z m-2936 -52 c-13 -21 -34 -6 -34 25 l0 32 19 -25 c11
-13 17 -28 15 -32z m395 5 c1 -7 -3 -13 -9 -13 -5 0 -10 15 -9 33 0 27 2 29 9
12 5 -11 9 -26 9 -32z m1922 14 c-8 -8 -11 -7 -11 4 0 20 13 34 18 19 3 -7 -1
-17 -7 -23z m524 -23 l5 -39 -14 30 c-18 36 -21 74 -6 59 6 -6 13 -28 15 -50z
m-2396 12 c-13 -29 -32 -36 -22 -8 8 22 25 44 30 39 2 -3 -2 -16 -8 -31z
m2591 4 c0 -39 -15 -39 -16 0 -1 17 3 30 7 30 5 0 9 -13 9 -30z m353 -31 c53
-85 49 -94 -42 -94 -68 0 -96 9 -74 24 5 3 13 15 18 26 4 11 9 22 10 25 2 3 6
15 10 28 4 12 11 22 16 22 5 0 9 7 9 15 0 28 15 15 53 -46z m-2393 -34 c-1 -5
-7 -1 -15 9 -16 21 -19 14 -15 -31 1 -13 -3 -23 -9 -23 -6 0 -11 18 -11 40 0
22 5 40 11 40 5 0 7 5 4 10 -4 6 -4 19 0 28 5 13 10 7 21 -23 7 -22 14 -44 14
-50z m1138 58 c8 -18 9 -30 2 -37 -7 -7 -10 -3 -10 11 0 12 -4 25 -10 28 -12
7 -13 25 -2 25 4 0 13 -12 20 -27z m42 12 c0 -8 -4 -15 -10 -15 -5 0 -10 7
-10 15 0 8 5 15 10 15 6 0 10 -7 10 -15z m50 3 c0 -7 3 -31 6 -53 l5 -40 -21
43 c-20 41 -20 62 1 62 5 0 9 -6 9 -12z m370 2 c0 -5 -4 -10 -10 -10 -5 0 -10
5 -10 10 0 6 5 10 10 10 6 0 10 -4 10 -10z m382 -98 c-7 -2 -12 -11 -12 -20 0
-11 -3 -13 -11 -5 -16 16 -31 92 -23 116 6 19 11 14 32 -32 18 -38 22 -56 14
-59z m178 92 c0 -8 -4 -12 -10 -9 -5 3 -10 10 -10 16 0 5 5 9 10 9 6 0 10 -7
10 -16z m-2561 -39 c6 -8 7 -99 2 -125 -4 -18 -27 51 -26 75 4 76 7 99 12 80
3 -11 8 -24 12 -30z m1076 28 c11 -28 15 -93 6 -93 -5 0 -11 17 -13 38 -3 20
-8 45 -12 55 -5 10 -4 17 2 17 5 0 13 -8 17 -17z m65 9 c0 -4 -5 -13 -12 -20
-20 -20 0 -27 22 -7 19 17 19 17 10 -16 -6 -19 -10 -36 -11 -39 0 -3 -4 4 -9
15 -7 17 -9 17 -9 3 -1 -28 -18 -21 -23 10 -5 39 1 62 18 62 8 0 14 -4 14 -8z
m340 -2 c0 -5 -4 -10 -10 -10 -5 0 -10 5 -10 10 0 6 5 10 10 10 6 0 10 -4 10
-10z m718 -17 c13 -34 42 -133 42 -145 0 -9 -31 -11 -54 -2 -9 3 -16 16 -16
28 0 12 -5 27 -11 33 -6 6 -9 26 -7 44 l4 34 7 -30 c25 -98 29 -107 39 -97 8
8 8 19 0 37 -7 14 -12 40 -12 56 0 17 -5 39 -10 50 -6 10 -7 19 -2 19 5 0 14
-12 20 -27z m99 -5 c-3 -7 -5 -2 -5 12 0 14 2 19 5 13 2 -7 2 -19 0 -25z
m-886 -45 c4 -27 11 -60 15 -76 4 -17 2 -27 -5 -27 -6 0 -11 12 -11 28 0 15
-7 40 -15 56 -19 35 -21 96 -3 78 6 -6 15 -33 19 -59z m-1466 47 c3 -5 -1 -10
-9 -10 -9 0 -16 5 -16 10 0 6 4 10 9 10 6 0 13 -4 16 -10z m118 -27 c-5 -33
-23 -46 -23 -17 0 16 20 58 25 52 1 -1 0 -18 -2 -35z m62 27 c3 -5 1 -10 -4
-10 -6 0 -11 5 -11 10 0 6 2 10 4 10 3 0 8 -4 11 -10z m1331 -21 c11 -22 13
-34 5 -42 -14 -14 -17 -10 -25 36 -8 45 -2 47 20 6z m468 -5 c4 -15 14 -33 21
-41 17 -17 20 -43 5 -43 -5 0 -10 6 -10 13 0 24 -25 67 -36 63 -7 -3 -9 5 -6
20 5 29 17 24 26 -12z m126 26 c0 -5 -5 -10 -11 -10 -5 0 -7 5 -4 10 3 6 8 10
11 10 2 0 4 -4 4 -10z m880 -10 c0 -11 7 -20 15 -20 8 0 15 7 15 15 0 16 15
21 24 7 6 -10 -14 -34 -42 -49 -31 -18 -32 -17 -32 27 0 22 5 40 10 40 6 0 10
-9 10 -20z m103 -5 c-3 -8 0 -15 6 -15 6 0 11 7 11 15 0 8 5 15 10 15 6 0 10
-14 10 -31 0 -23 -4 -30 -15 -26 -8 4 -17 2 -20 -3 -4 -6 -10 -10 -16 -10 -10
0 -13 63 -3 73 11 11 24 -3 17 -18z m102 -15 c0 -18 -6 -35 -12 -37 -9 -3 -13
8 -13 37 0 29 4 40 13 38 6 -3 12 -20 12 -38z m179 29 c10 8 16 9 21 1 7 -11
-17 -40 -34 -40 -6 0 -11 -7 -11 -15 0 -8 -7 -15 -15 -15 -10 0 -15 10 -15 33
0 40 8 51 27 36 9 -9 17 -8 27 0z m127 -21 c7 -18 14 -36 17 -40 2 -5 -3 -8
-11 -8 -9 0 -17 6 -20 13 -4 10 -7 10 -18 0 -19 -19 -29 -16 -29 7 0 11 6 20
14 20 9 0 12 7 9 20 -9 34 24 23 38 -12z m-2396 -8 c3 -16 2 -37 -4 -47 -9
-16 -10 -16 -11 -2 0 9 -3 31 -6 48 -8 40 12 42 21 1z m555 9 c0 -5 -4 -9 -10
-9 -5 0 -10 7 -10 16 0 8 5 12 10 9 6 -3 10 -10 10 -16z m230 -33 c0 -5 -7 -3
-15 4 -8 7 -15 22 -15 34 1 20 2 20 15 -4 8 -14 14 -29 15 -34z m166 27 c-10
-10 -19 5 -10 18 6 11 8 11 12 0 2 -7 1 -15 -2 -18z m-2676 7 c0 -5 -4 -10
-10 -10 -5 0 -10 5 -10 10 0 6 5 10 10 10 6 0 10 -4 10 -10z m41 -85 c6 -5 9
-2 9 10 0 15 3 16 12 7 18 -18 -18 -41 -51 -32 -28 7 -42 40 -17 40 14 0 29
27 25 46 -1 5 0 14 2 19 1 6 4 -10 6 -35 3 -25 8 -49 14 -55z m138 80 c57 -2
111 -18 111 -33 0 -4 -18 -6 -41 -4 -22 3 -46 -1 -52 -7 -8 -8 -5 -11 11 -11
17 0 22 -6 22 -26 l0 -27 -28 29 c-16 16 -27 34 -25 40 2 6 -3 17 -12 24 -13
11 -15 9 -15 -14 0 -14 -4 -26 -10 -26 -5 0 -10 -7 -10 -15 0 -8 -4 -15 -8
-15 -12 0 -58 52 -65 73 -11 30 14 18 26 -13 11 -28 37 -42 37 -20 0 6 -4 10
-9 10 -10 0 -21 36 -14 44 3 3 10 3 16 -1 5 -3 35 -7 66 -8z m1727 -73 c16
-12 16 -14 2 -9 -10 4 -18 1 -18 -5 0 -21 -15 3 -27 44 -6 23 -9 46 -5 52 3 6
11 -6 17 -28 6 -21 20 -45 31 -54z m24 47 c0 -11 -3 -19 -8 -19 -12 0 -33 40
-26 51 9 14 34 -9 34 -32z m51 8 c-8 -8 -11 -7 -11 4 0 20 13 34 18 19 3 -7
-1 -17 -7 -23z m556 11 c-3 -8 -6 -5 -6 6 -1 11 2 17 5 13 3 -3 4 -12 1 -19z
m265 -19 c4 -19 5 -45 2 -59 l-7 -25 -7 25 c-18 64 -21 102 -8 98 7 -3 16 -20
20 -39z m1088 31 c0 -5 -6 -10 -14 -10 -8 0 -18 5 -21 10 -3 6 3 10 14 10 12
0 21 -4 21 -10z m-3444 -17 c20 -27 16 -38 -6 -18 -20 18 -26 35 -14 35 4 0
13 -8 20 -17z m39 7 c3 -5 2 -10 -4 -10 -5 0 -13 5 -16 10 -3 6 -2 10 4 10 5
0 13 -4 16 -10z m93 -36 c-13 -13 -15 -11 -15 15 0 26 2 27 15 14 13 -13 13
-16 0 -29z m209 -7 c7 -45 -12 -50 -21 -6 -3 17 -6 39 -6 47 0 29 20 -3 27
-41z m193 43 c0 -5 -5 -10 -11 -10 -5 0 -7 5 -4 10 3 6 8 10 11 10 2 0 4 -4 4
-10z m196 -7 c4 -10 6 -24 5 -30 -1 -7 2 -13 8 -13 5 0 11 6 14 13 3 8 7 6 12
-6 5 -12 2 -24 -7 -33 -13 -13 -16 -12 -31 4 -20 22 -34 82 -19 82 5 0 13 -8
18 -17z m1042 -63 c12 -67 0 -87 -17 -28 -7 24 -19 57 -26 74 -13 31 -13 31
10 21 17 -9 25 -24 33 -67z m-1685 38 c5 -35 -8 -72 -23 -63 -16 10 -22 65
-10 80 19 23 27 18 33 -17z m589 0 c-9 -9 -12 -7 -12 12 0 19 3 21 12 12 9 -9
9 -15 0 -24z m1344 21 c11 -19 15 -69 5 -69 -10 0 -41 56 -41 72 0 12 28 10
36 -3z m284 -8 c0 -11 -4 -23 -10 -26 -6 -4 -10 5 -10 19 0 14 5 26 10 26 6 0
10 -9 10 -19z m1170 13 c0 -13 -30 -34 -49 -34 -30 0 -26 14 7 27 33 13 42 15
42 7z m-3292 -24 c10 -16 10 -20 -2 -20 -7 0 -16 9 -19 20 -3 11 -2 20 2 20 3
0 12 -9 19 -20z m1752 -15 c-6 -15 -13 -25 -17 -21 -3 3 0 17 7 31 17 32 24
26 10 -10z m-1490 15 c0 -5 -5 -10 -11 -10 -5 0 -7 5 -4 10 3 6 8 10 11 10 2
0 4 -4 4 -10z m2060 -35 c0 -25 -4 -45 -10 -45 -11 0 -14 73 -3 83 11 12 13 8
13 -38z m-1350 14 c0 -11 -4 -17 -10 -14 -5 3 -10 13 -10 21 0 8 5 14 10 14 6
0 10 -9 10 -21z m410 -4 c0 -14 -4 -25 -10 -25 -5 0 -10 11 -10 25 0 14 5 25
10 25 6 0 10 -11 10 -25z m300 -7 c0 -6 -7 -5 -15 2 -8 7 -15 17 -15 22 0 6 7
5 15 -2 8 -7 15 -17 15 -22z m-2340 18 c0 -3 -4 -8 -10 -11 -5 -3 -10 -1 -10
4 0 6 5 11 10 11 6 0 10 -2 10 -4z m1404 -12 c9 -24 2 -26 -12 -4 -7 11 -8 20
-3 20 5 0 12 -7 15 -16z m1313 -6 c-3 -8 -6 -5 -6 6 -1 11 2 17 5 13 3 -3 4
-12 1 -19z m313 12 c0 -5 -2 -10 -4 -10 -3 0 -8 5 -11 10 -3 6 -1 10 4 10 6 0
11 -4 11 -10z m-2678 -20 c16 0 28 -5 28 -13 0 -9 -13 -13 -40 -12 -45 1 -55
8 -46 31 5 13 9 15 18 6 7 -7 25 -12 40 -12z m402 -12 c-3 -4 0 -17 6 -28 9
-16 8 -18 -5 -14 -10 4 -15 19 -15 43 0 26 3 32 9 21 6 -8 8 -18 5 -22z m1240
-12 c6 -26 5 -28 -8 -17 -9 8 -16 25 -16 39 0 32 15 18 24 -22z m636 15 c0
-17 -4 -33 -10 -36 -6 -4 -10 8 -10 29 0 20 5 36 10 36 6 0 10 -13 10 -29z
m520 8 c0 -5 -4 -9 -10 -9 -5 0 -10 7 -10 16 0 8 5 12 10 9 6 -3 10 -10 10
-16z m-2720 1 c0 -5 7 -10 15 -10 8 0 15 -4 15 -10 0 -5 -13 -10 -30 -10 -28
0 -40 17 -23 33 10 10 23 8 23 -3z m460 0 c0 -5 -4 -10 -9 -10 -6 0 -13 5 -16
10 -3 6 1 10 9 10 9 0 16 -4 16 -10z m290 1 c0 -6 -4 -13 -10 -16 -5 -3 -10 1
-10 9 0 9 5 16 10 16 6 0 10 -4 10 -9z m350 -30 c-1 -13 -3 -13 -15 3 -19 26
-19 42 0 26 8 -7 15 -20 15 -29z m660 29 c0 -5 -4 -10 -10 -10 -5 0 -10 5 -10
10 0 6 5 10 10 10 6 0 10 -4 10 -10z m341 -43 c-6 -6 -14 -7 -18 -2 -5 4 -2
10 5 12 6 3 13 14 13 26 2 20 2 20 6 -2 3 -13 0 -28 -6 -34z m261 28 c3 -14 1
-25 -3 -25 -5 0 -9 11 -9 25 0 14 2 25 4 25 2 0 6 -11 8 -25z m-2582 5 c0 -5
-4 -10 -9 -10 -6 0 -13 5 -16 10 -3 6 1 10 9 10 9 0 16 -4 16 -10z m410 1 c0
-5 3 -16 6 -25 4 -11 1 -16 -10 -16 -10 0 -16 9 -16 25 0 14 5 25 10 25 6 0
10 -4 10 -9z m470 -17 c0 -14 -4 -23 -9 -20 -5 3 -7 15 -4 26 7 28 13 25 13
-6z m730 5 c0 -5 -4 -9 -10 -9 -5 0 -10 7 -10 16 0 8 5 12 10 9 6 -3 10 -10
10 -16z m-540 2 c0 -5 3 -18 6 -28 6 -16 5 -16 -9 2 -19 23 -21 35 -7 35 6 0
10 -4 10 -9z m1055 -28 c4 -14 2 -23 -4 -23 -6 0 -11 5 -11 10 0 6 -7 10 -15
10 -18 0 -19 7 -2 25 14 15 22 10 32 -22z m366 14 c-10 -9 -11 -8 -5 6 3 10 9
15 12 12 3 -3 0 -11 -7 -18z m345 -35 c-12 -12 -18 8 -10 35 l8 28 4 -28 c2
-16 1 -31 -2 -35z m-2051 37 c11 -16 1 -19 -13 -3 -7 8 -8 14 -3 14 5 0 13 -5
16 -11z m-55 -9 c0 -5 -5 -10 -11 -10 -5 0 -7 5 -4 10 3 6 8 10 11 10 2 0 4
-4 4 -10z m126 -15 c10 -26 -1 -35 -13 -10 -6 14 -7 25 -2 25 5 0 12 -7 15
-15z m784 5 c0 -5 -4 -10 -10 -10 -5 0 -10 -8 -10 -17 0 -13 -3 -14 -11 -6 -8
8 -8 15 2 27 16 18 29 20 29 6z m48 -31 c-16 -10 -43 15 -33 31 5 8 12 6 26
-6 15 -13 16 -19 7 -25z m862 31 c0 -5 -4 -10 -10 -10 -5 0 -10 5 -10 10 0 6
5 10 10 10 6 0 10 -4 10 -10z m-150 -20 c0 -5 -4 -10 -10 -10 -5 0 -10 5 -10
10 0 6 5 10 10 10 6 0 10 -4 10 -10z m35 0 c3 -5 1 -10 -4 -10 -6 0 -11 5 -11
10 0 6 2 10 4 10 3 0 8 -4 11 -10z"/>
<path d="M2110 4210 c0 -5 5 -10 10 -10 6 0 10 5 10 10 0 6 -4 10 -10 10 -5 0
-10 -4 -10 -10z"/>
<path d="M2150 4196 c0 -3 27 -10 60 -17 33 -6 63 -16 66 -20 7 -12 44 -11 44
1 0 6 -11 10 -24 10 -14 0 -28 5 -31 11 -4 6 -13 8 -21 5 -7 -3 -16 -1 -19 4
-6 10 -75 14 -75 6z"/>
<path d="M2130 4103 c0 -15 19 -37 26 -31 3 4 -1 14 -10 23 -9 9 -16 13 -16 8z"/>
<path d="M2295 4051 c-3 -5 -1 -12 5 -16 5 -3 10 -22 10 -41 0 -35 13 -46 24
-18 3 9 -1 31 -10 50 -18 37 -20 39 -29 25z"/>
<path d="M1315 4210 c-3 -5 -1 -10 4 -10 6 0 11 5 11 10 0 6 -2 10 -4 10 -3 0
-8 -4 -11 -10z"/>
<path d="M1300 4180 c0 -5 5 -10 10 -10 6 0 10 5 10 10 0 6 -4 10 -10 10 -5 0
-10 -4 -10 -10z"/>
<path d="M733 3628 c-48 -50 -51 -68 -42 -223 11 -176 14 -199 44 -260 13 -27
27 -59 30 -70 6 -20 7 -20 21 -1 8 12 10 24 5 30 -37 46 -54 95 -53 159 0 37
4 73 10 80 5 7 17 44 27 82 21 86 41 133 68 163 21 22 47 30 47 13 0 -5 9 -20
20 -33 10 -12 30 -36 44 -53 14 -16 26 -25 26 -19 0 26 -32 86 -68 124 -36 37
-43 40 -93 40 -49 0 -59 -4 -86 -32z m22 -150 c-4 -13 -9 -40 -12 -60 -3 -21
-9 -38 -13 -38 -7 0 -20 57 -20 92 0 14 13 23 44 27 4 0 5 -9 1 -21z"/>
<path d="M910 3400 c0 -5 5 -10 10 -10 6 0 10 5 10 10 0 6 -4 10 -10 10 -5 0
-10 -4 -10 -10z"/>
<path d="M860 3099 c0 -5 5 -7 10 -4 6 3 10 8 10 11 0 2 -4 4 -10 4 -5 0 -10
-5 -10 -11z"/>
<path d="M928 3043 c6 -2 18 -2 25 0 6 3 1 5 -13 5 -14 0 -19 -2 -12 -5z"/>
<path d="M875 3030 c-3 -5 1 -10 9 -10 9 0 16 5 16 10 0 6 -4 10 -9 10 -6 0
-13 -4 -16 -10z"/>
<path d="M2834 3429 c26 -6 43 -6 50 1 7 7 -6 10 -39 9 l-50 -1 39 -9z"/>
<path d="M929 3264 c-12 -13 -17 -24 -10 -24 6 0 14 7 17 15 4 10 13 13 25 10
22 -7 26 10 5 18 -8 3 -24 -5 -37 -19z"/>
<path d="M2280 2690 c0 -5 5 -10 11 -10 5 0 7 5 4 10 -3 6 -8 10 -11 10 -2 0
-4 -4 -4 -10z"/>
<path d="M390 840 c0 -5 5 -10 11 -10 5 0 7 5 4 10 -3 6 -8 10 -11 10 -2 0 -4
-4 -4 -10z"/>
<path d="M690 680 c0 -11 5 -20 10 -20 6 0 10 9 10 20 0 11 -4 20 -10 20 -5 0
-10 -9 -10 -20z"/>
<path d="M725 691 c-3 -5 -1 -12 5 -16 5 -3 10 1 10 9 0 18 -6 21 -15 7z"/>
<path d="M2130 580 c0 -5 7 -10 15 -10 8 0 15 5 15 10 0 6 -7 10 -15 10 -8 0
-15 -4 -15 -10z"/>
<path d="M2130 475 c0 -6 9 -23 19 -38 13 -20 21 -25 26 -17 4 7 -3 23 -19 38
-14 15 -26 22 -26 17z"/>
<path d="M2020 450 c0 -5 5 -10 10 -10 6 0 10 5 10 10 0 6 -4 10 -10 10 -5 0
-10 -4 -10 -10z"/>
<path d="M3400 699 c0 -5 4 -8 8 -5 5 3 15 -6 22 -19 14 -25 30 -33 30 -15 0
6 -4 10 -10 10 -5 0 -10 6 -10 14 0 8 -7 17 -16 20 -21 8 -24 8 -24 -5z"/>
<path d="M3581 646 c23 -21 86 -46 106 -42 16 5 23 2 23 -8 0 -8 5 -18 10 -21
6 -3 10 4 10 18 0 22 -7 26 -67 41 -68 16 -90 19 -82 12z"/>
<path d="M3765 599 c4 -5 18 -9 32 -9 32 0 23 12 -12 16 -14 1 -23 -2 -20 -7z"/>
<path d="M3270 690 c0 -11 5 -20 10 -20 6 0 10 -7 10 -15 0 -8 5 -15 10 -15
13 0 13 1 -6 38 -18 37 -24 40 -24 12z"/>
<path d="M3311 514 c0 -11 3 -14 6 -6 3 7 2 16 -1 19 -3 4 -6 -2 -5 -13z"/>
<path d="M1530 623 c0 -5 5 -15 10 -23 8 -12 10 -11 10 8 0 12 -4 22 -10 22
-5 0 -10 -3 -10 -7z"/>
<path d="M1820 551 c0 -5 -6 -9 -12 -8 -43 1 -78 -4 -78 -13 0 -13 87 -13 95
0 4 6 11 8 16 5 5 -4 9 1 9 9 0 9 -7 16 -15 16 -8 0 -15 -4 -15 -9z"/>
<path d="M793 448 c2 -18 7 -41 12 -52 5 -12 3 -21 -6 -28 -10 -7 -8 -8 9 -3
16 5 22 2 22 -9 0 -8 -4 -18 -10 -21 -5 -3 -10 -11 -10 -18 0 -8 3 -8 12 1 16
16 26 15 30 -3 2 -13 5 -12 15 4 10 16 8 25 -12 56 -14 20 -25 40 -25 45 0 6
-4 10 -10 10 -5 0 -10 11 -10 25 0 14 -5 25 -10 25 -6 0 -9 -15 -7 -32z"/>
<path d="M710 449 c0 -5 5 -7 10 -4 6 3 10 8 10 11 0 2 -4 4 -10 4 -5 0 -10
-5 -10 -11z"/>
<path d="M745 440 c-3 -5 -1 -10 4 -10 6 0 11 5 11 10 0 6 -2 10 -4 10 -3 0
-8 -4 -11 -10z"/>
<path d="M3280 401 c0 -10 19 -25 25 -20 1 2 -3 10 -11 17 -8 7 -14 8 -14 3z"/>
<path d="M1470 348 c0 -28 3 -48 7 -44 10 9 10 96 1 96 -5 0 -8 -23 -8 -52z"/>
<path d="M1550 260 c0 -16 4 -30 8 -30 5 0 9 14 10 30 0 17 -4 30 -9 30 -5 0
-9 -13 -9 -30z"/>
<path d="M1890 310 c0 -5 -9 -10 -21 -10 -11 0 -19 -5 -17 -12 8 -22 25 -19
42 7 9 14 12 25 6 25 -5 0 -10 -4 -10 -10z"/>
<path d="M3494 188 c-29 -44 -33 -59 -20 -64 8 -3 28 -4 44 -2 l31 3 -24 38
c-17 29 -25 35 -31 25z"/>
<path d="M575 130 c-3 -5 -1 -10 4 -10 6 0 11 5 11 10 0 6 -2 10 -4 10 -3 0
-8 -4 -11 -10z"/>
<path d="M1593 3942 c-10 -9 -26 -29 -35 -42 -15 -21 -19 -23 -28 -10 -9 12
-10 11 -5 -7 4 -14 2 -23 -4 -23 -6 0 -11 -7 -11 -15 0 -24 17 -17 41 18 13
17 37 47 55 65 21 20 27 32 19 32 -8 0 -23 -8 -32 -18z"/>
<path d="M1888 3953 c6 -2 18 -2 25 0 6 3 1 5 -13 5 -14 0 -19 -2 -12 -5z"/>
<path d="M1271 3814 c0 -11 3 -14 6 -6 3 7 2 16 -1 19 -3 4 -6 -2 -5 -13z"/>
<path d="M1605 3820 c8 -13 35 -13 55 0 11 7 5 10 -23 10 -23 0 -36 -4 -32
-10z"/>
<path d="M1698 3823 c12 -2 32 -2 45 0 12 2 2 4 -23 4 -25 0 -35 -2 -22 -4z"/>
<path d="M2194 3533 c-22 -23 -51 -44 -65 -47 -13 -2 -37 -8 -54 -12 l-30 -7
39 -9 c35 -7 43 -5 82 24 37 29 83 86 72 91 -1 1 -21 -17 -44 -40z"/>
<path d="M2413 3530 c-27 -21 -30 -35 -7 -26 9 4 23 1 31 -6 12 -10 13 -7 7
18 -4 16 -7 30 -8 31 -1 1 -11 -7 -23 -17z"/>
<path d="M2300 3485 c-24 -24 -41 -47 -37 -51 3 -3 20 10 37 30 18 20 43 39
56 42 28 7 32 24 6 24 -10 0 -38 -20 -62 -45z"/>
<path d="M1955 3450 c-4 -6 10 -10 34 -10 23 0 41 5 41 10 0 6 -15 10 -34 10
-19 0 -38 -4 -41 -10z"/>
<path d="M1230 3430 c0 -5 5 -10 10 -10 6 0 10 5 10 10 0 6 -4 10 -10 10 -5 0
-10 -4 -10 -10z"/>
<path d="M1873 3433 c9 -2 23 -2 30 0 6 3 -1 5 -18 5 -16 0 -22 -2 -12 -5z"/>
<path d="M2050 3420 c0 -5 5 -10 11 -10 5 0 7 5 4 10 -3 6 -8 10 -11 10 -2 0
-4 -4 -4 -10z"/>
<path d="M1778 3413 c7 -3 16 -2 19 1 4 3 -2 6 -13 5 -11 0 -14 -3 -6 -6z"/>
<path d="M3468 3413 c7 -3 16 -2 19 1 4 3 -2 6 -13 5 -11 0 -14 -3 -6 -6z"/>
<path d="M1216 3401 c-4 -7 -5 -15 -2 -18 9 -9 19 4 14 18 -4 11 -6 11 -12 0z"/>
<path d="M1200 3356 c0 -8 -3 -16 -7 -18 -5 -2 -19 -16 -33 -32 l-25 -29 29
19 c29 18 29 18 22 -4 -4 -13 -3 -22 3 -22 13 0 23 33 16 53 -4 8 -2 18 4 22
14 8 14 25 1 25 -5 0 -10 -6 -10 -14z"/>
<path d="M1938 3363 c-10 -2 -18 -9 -18 -14 0 -12 3 -12 36 6 28 14 19 18 -18
8z"/>
<path d="M1080 3335 c0 -8 5 -15 10 -15 6 0 10 7 10 15 0 8 -4 15 -10 15 -5 0
-10 -7 -10 -15z"/>
<path d="M1165 3250 c3 -5 8 -10 11 -10 2 0 4 5 4 10 0 6 -5 10 -11 10 -5 0
-7 -4 -4 -10z"/>
<path d="M2480 3188 c0 -16 5 -28 10 -28 13 0 13 20 0 40 -8 12 -10 9 -10 -12z"/>
<path d="M2141 3180 c-13 -11 -18 -20 -12 -20 6 0 20 9 31 20 26 26 12 25 -19
0z"/>
<path d="M1966 3123 c-64 -77 -64 -77 -94 -120 -13 -18 -19 -33 -14 -33 5 0 7
-10 5 -23 -3 -16 6 -38 29 -68 31 -40 38 -44 82 -47 27 -2 54 2 59 7 8 8 4 11
-14 11 -14 0 -48 11 -75 25 -45 22 -51 29 -51 58 0 17 8 46 18 62 10 17 25 44
33 61 14 32 73 84 94 84 7 0 12 5 12 10 0 6 -7 10 -16 10 -10 0 -14 6 -10 15
9 26 0 17 -58 -52z"/>
<path d="M2066 3135 c-16 -14 -24 -25 -18 -25 6 0 17 7 26 15 8 8 19 15 25 15
6 0 11 5 11 10 0 16 -13 12 -44 -15z"/>
<path d="M1974 2954 c-37 -45 -42 -59 -18 -50 9 3 21 3 27 -1 19 -11 201 -6
205 6 6 17 22 13 22 -5 0 -11 6 -14 23 -8 12 3 24 8 26 10 2 1 -17 24 -43 49
l-45 47 -82 -4 -82 -3 -33 -41z"/>
<path d="M2192 2778 c-7 -7 -12 -16 -12 -21 0 -5 7 -1 16 8 9 9 14 18 12 20
-2 3 -10 -1 -16 -7z"/>
<path d="M2160 2720 c0 -5 5 -10 10 -10 6 0 10 5 10 10 0 6 -4 10 -10 10 -5 0
-10 -4 -10 -10z"/>
<path d="M2106 2705 c-11 -8 -17 -17 -14 -20 2 -3 13 4 23 15 21 23 18 25 -9
5z"/>
<path d="M1797 2678 c-10 -13 -22 -39 -27 -59 -12 -42 -34 -67 -45 -49 -4 7
-18 9 -30 6 -15 -4 -30 0 -39 10 -17 16 -14 26 12 57 28 32 -4 17 -38 -18 -32
-33 -51 -95 -29 -95 5 0 6 -7 3 -15 -7 -16 11 -21 20 -6 3 5 15 7 25 4 16 -4
19 -1 14 18 -7 24 -1 24 81 3 19 -4 26 -2 26 8 0 8 8 32 19 54 16 33 35 104
28 104 -1 0 -10 -10 -20 -22z"/>
<path d="M1686 2605 c-11 -8 -17 -17 -14 -20 2 -3 13 4 23 15 21 23 18 25 -9
5z"/>
<path d="M1730 2600 c-8 -5 -12 -12 -9 -15 4 -3 12 1 19 10 14 17 11 19 -10 5z"/>
<path d="M1462 2549 c-18 -17 -29 -36 -25 -42 4 -7 8 -6 11 3 3 8 8 17 11 20
13 11 44 50 39 50 -2 0 -19 -14 -36 -31z"/>
<path d="M1411 2477 c-13 -21 -12 -21 5 -5 10 10 16 20 13 22 -3 3 -11 -5 -18
-17z"/>
<path d="M1908 2353 c6 -2 18 -2 25 0 6 3 1 5 -13 5 -14 0 -19 -2 -12 -5z"/>
<path d="M1336 2334 c-22 -21 -20 -27 4 -14 11 6 20 15 20 20 0 14 -6 12 -24
-6z"/>
<path d="M1390 2340 c0 -5 7 -10 16 -10 8 0 12 5 9 10 -3 6 -10 10 -16 10 -5
0 -9 -4 -9 -10z"/>
<path d="M1790 2321 c0 -5 10 -11 23 -14 21 -5 71 -22 112 -38 11 -4 45 -11
75 -14 l55 -6 -34 16 c-18 8 -44 15 -57 15 -21 0 -67 16 -116 41 -23 12 -58
12 -58 0z"/>
<path d="M0 2252 c0 -14 6 -22 16 -22 14 0 15 3 3 18 -7 9 -15 19 -16 21 -2 2
-3 -5 -3 -17z"/>
<path d="M1755 2130 c-11 -16 -23 -30 -27 -30 -5 0 -8 -7 -8 -15 0 -8 5 -15
10 -15 6 0 10 5 10 11 0 6 12 26 26 45 15 19 22 34 18 34 -5 0 -18 -14 -29
-30z"/>
<path d="M1315 2120 c-3 -5 -2 -10 4 -10 5 0 13 5 16 10 3 6 2 10 -4 10 -5 0
-13 -4 -16 -10z"/>
<path d="M1310 2065 c-7 -9 -11 -18 -8 -20 3 -3 11 1 18 10 7 9 11 18 8 20 -3
3 -11 -1 -18 -10z"/>
<path d="M1700 2045 c-7 -9 -11 -18 -8 -20 3 -3 11 1 18 10 7 9 11 18 8 20 -3
3 -11 -1 -18 -10z"/>
<path d="M1180 2003 c0 -5 11 -19 25 -31 24 -21 33 -19 17 3 -13 19 -42 38
-42 28z"/>
<path d="M1590 1999 c0 -5 5 -7 10 -4 6 3 10 8 10 11 0 2 -4 4 -10 4 -5 0 -10
-5 -10 -11z"/>
<path d="M1330 1981 c0 -5 -3 -18 -6 -28 -5 -14 -4 -15 4 -4 9 12 13 12 27 -2
26 -26 28 -20 3 13 -23 32 -28 35 -28 21z"/>
<path d="M1260 1930 c0 -5 5 -10 10 -10 6 0 10 5 10 10 0 6 -4 10 -10 10 -5 0
-10 -4 -10 -10z"/>
<path d="M1535 1880 c-22 -22 -36 -40 -32 -40 12 0 81 69 75 75 -2 2 -22 -13
-43 -35z"/>
<path d="M1230 1900 c0 -5 5 -10 11 -10 5 0 7 5 4 10 -3 6 -8 10 -11 10 -2 0
-4 -4 -4 -10z"/>
<path d="M1300 1900 c0 -5 5 -10 11 -10 5 0 7 5 4 10 -3 6 -8 10 -11 10 -2 0
-4 -4 -4 -10z"/>
<path d="M1300 1556 c0 -22 29 -41 42 -28 8 8 8 15 -2 27 -16 19 -40 20 -40 1z"/>
<path d="M561 1434 c-1 -23 -21 -71 -50 -119 -21 -36 -35 -85 -23 -85 13 0 32
23 32 40 0 13 8 32 51 122 5 9 5 27 -1 40 -8 22 -9 22 -9 2z"/>
<path d="M540 1260 c0 -5 5 -10 10 -10 6 0 10 5 10 10 0 6 -4 10 -10 10 -5 0
-10 -4 -10 -10z"/>
<path d="M660 1236 c0 -8 -3 -21 -6 -30 -3 -9 -2 -16 4 -16 13 0 22 49 11 56
-5 3 -9 -1 -9 -10z"/>
<path d="M510 1221 c-16 -30 -12 -36 10 -16 21 19 26 35 10 35 -5 0 -14 -9
-20 -19z"/>
<path d="M590 1205 c0 -8 5 -15 10 -15 6 0 10 7 10 15 0 8 -4 15 -10 15 -5 0
-10 -7 -10 -15z"/>
<path d="M1720 1201 c0 -5 5 -13 10 -16 6 -3 10 -2 10 4 0 5 -4 13 -10 16 -5
3 -10 2 -10 -4z"/>
<path d="M522 1188 c2 -6 10 -14 16 -16 7 -2 10 2 6 12 -7 18 -28 22 -22 4z"/>
<path d="M250 1171 c0 -5 -16 -12 -35 -15 -34 -7 -49 -26 -20 -26 8 0 15 5 15
10 0 6 8 10 19 10 10 0 24 7 31 15 9 10 9 15 1 15 -6 0 -11 -4 -11 -9z"/>
<path d="M675 1170 c3 -5 8 -10 11 -10 2 0 4 5 4 10 0 6 -5 10 -11 10 -5 0 -7
-4 -4 -10z"/>
<path d="M525 1133 c6 -26 21 -43 38 -43 12 0 8 17 -8 30 -8 7 -15 19 -15 26
0 8 -5 14 -11 14 -7 0 -9 -10 -4 -27z"/>
<path d="M140 1120 c0 -5 -8 -10 -17 -10 -14 0 -15 -2 -4 -12 11 -10 14 -10
18 0 3 6 11 12 19 12 8 0 14 5 14 10 0 6 -7 10 -15 10 -8 0 -15 -4 -15 -10z"/>
<path d="M215 1110 c-3 -5 1 -10 10 -10 9 0 13 5 10 10 -3 6 -8 10 -10 10 -2
0 -7 -4 -10 -10z"/>
<path d="M475 1110 c3 -5 8 -10 11 -10 2 0 4 5 4 10 0 6 -5 10 -11 10 -5 0 -7
-4 -4 -10z"/>
<path d="M586 1095 c4 -8 10 -15 15 -15 5 0 9 7 9 15 0 8 -7 15 -15 15 -9 0
-12 -6 -9 -15z"/>
<path d="M80 1092 c0 -5 -18 -15 -40 -22 -22 -7 -40 -19 -40 -26 0 -15 17 -10
68 21 31 19 42 35 22 35 -5 0 -10 -4 -10 -8z"/>
<path d="M163 1090 c-13 -5 -23 -13 -23 -18 0 -5 -14 -23 -30 -41 -17 -17 -27
-31 -22 -31 4 0 26 18 47 40 21 22 45 40 52 40 7 0 13 5 13 10 0 12 -7 12 -37
0z"/>
<path d="M430 1075 c1 -16 50 -68 58 -61 3 4 -8 21 -26 39 -18 17 -32 27 -32
22z"/>
<path d="M540 1056 c0 -22 3 -27 11 -19 8 8 8 16 0 30 -9 16 -10 14 -11 -11z"/>
<path d="M59 1031 c-44 -48 -45 -58 -2 -21 23 19 42 38 42 43 2 15 -15 6 -40
-22z"/>
<path d="M561 994 c0 -11 3 -14 6 -6 3 7 2 16 -1 19 -3 4 -6 -2 -5 -13z"/>
<path d="M195 990 c3 -5 10 -10 16 -10 5 0 9 5 9 10 0 6 -7 10 -16 10 -8 0
-12 -4 -9 -10z"/>
<path d="M170 931 c0 -5 5 -13 10 -16 6 -3 10 -2 10 4 0 5 -4 13 -10 16 -5 3
-10 2 -10 -4z"/>
<path d="M97 869 c3 -10 9 -16 14 -13 13 8 11 21 -5 27 -10 4 -12 0 -9 -14z"/>
<path d="M70 780 c0 -6 -11 -15 -25 -20 -14 -5 -25 -14 -25 -19 0 -6 7 -8 15
-5 11 5 14 2 8 -12 -4 -12 5 -7 25 13 35 36 40 53 17 53 -8 0 -15 -5 -15 -10z"/>
<path d="M1112 656 c13 -19 27 -32 31 -29 5 3 3 9 -4 13 -10 7 -10 11 1 24 7
9 10 20 6 23 -4 4 -11 1 -15 -6 -6 -9 -11 -10 -15 -2 -4 6 -11 11 -17 11 -5 0
1 -15 13 -34z"/>
<path d="M930 645 c-10 -12 -8 -20 12 -44 28 -35 54 -50 39 -22 -6 10 -16 23
-24 30 -8 6 -13 21 -10 31 6 24 0 26 -17 5z"/>
<path d="M870 625 c7 -8 17 -15 22 -15 5 0 3 7 -6 15 -8 8 -18 15 -22 15 -3 0
-1 -7 6 -15z"/>
<path d="M1162 548 c3 -7 -4 -21 -14 -32 -10 -11 -15 -22 -12 -25 8 -8 44 38
44 55 0 8 -5 14 -11 14 -6 0 -9 -6 -7 -12z"/>
<path d="M1115 540 c3 -5 8 -10 11 -10 2 0 4 5 4 10 0 6 -5 10 -11 10 -5 0 -7
-4 -4 -10z"/>
<path d="M4010 531 c0 -6 8 -11 18 -11 9 0 24 -5 32 -10 13 -8 13 -13 2 -31
-18 -28 -6 -38 14 -11 20 29 37 29 28 0 -6 -20 -5 -21 9 -10 9 8 28 12 43 10
16 -2 29 2 31 10 3 8 -8 12 -36 12 -23 0 -41 5 -41 10 0 6 -6 10 -14 10 -8 0
-16 4 -18 10 -5 14 -68 25 -68 11z"/>
<path d="M65 480 c-3 -5 -2 -10 4 -10 5 0 13 5 16 10 3 6 2 10 -4 10 -5 0 -13
-4 -16 -10z"/>
<path d="M3860 479 c0 -5 5 -7 10 -4 6 3 10 8 10 11 0 2 -4 4 -10 4 -5 0 -10
-5 -10 -11z"/>
<path d="M4200 466 c0 -9 30 -14 35 -6 4 6 -3 10 -14 10 -12 0 -21 -2 -21 -4z"/>
<path d="M3880 450 c0 -5 5 -10 11 -10 5 0 7 5 4 10 -3 6 -8 10 -11 10 -2 0
-4 -4 -4 -10z"/>
<path d="M4152 428 c5 -15 37 -18 41 -3 1 6 -9 12 -22 13 -16 3 -22 -1 -19
-10z"/>
<path d="M4221 416 c12 -10 59 -15 59 -6 0 5 -14 10 -32 10 -17 0 -29 -2 -27
-4z"/>
<path d="M4100 380 c0 -5 5 -10 11 -10 5 0 7 5 4 10 -3 6 -8 10 -11 10 -2 0
-4 -4 -4 -10z"/>
<path d="M2230 10 c0 -5 5 -10 10 -10 6 0 10 5 10 10 0 6 -4 10 -10 10 -5 0
-10 -4 -10 -10z"/>
</g>
</svg>
