<svg  viewBox="0 0 30 44" width="70px" height="70px" fill="none" xmlns="http://www.w3.org/2000/svg">
<path d="M17.0928 0.486764C17.7385 0.304093 18.3952 0.163213 19.0588 0.0649872V0.0649872L16.0062 0.923039C15.8109 0.973125 15.8044 0.966534 15.7821 0.923039C16.197 0.717069 16.6336 0.558358 17.0836 0.449858L17.0928 0.486764ZM14.4111 1.70069C13.6876 2.07106 13.3691 2.37685 13.5211 2.42694C13.8462 2.51393 16.2251 1.19192 16.3771 0.977079C15.7041 1.13093 15.0547 1.37521 14.4465 1.70333L14.4111 1.70069ZM12.7111 3.45633C12.0728 4.01651 11.989 4.40138 12.3717 4.40138C13.2027 4.42378 14.9812 2.75118 14.7204 2.47439C14.6806 2.45989 14.637 2.45989 14.5972 2.47439C13.8969 2.65262 13.2512 3.00216 12.7177 3.49192L12.7111 3.45633ZM12.1371 5.72206C11.66 6.44963 11.8749 6.98739 12.5644 6.84109C13.6994 6.60384 14.7322 4.94705 14.2525 4.53582C14.1814 4.46722 14.0887 4.42574 13.9904 4.41851C13.6134 4.49459 13.2553 4.64573 12.9373 4.86303C12.6192 5.08033 12.3476 5.35941 12.1384 5.68384L12.1371 5.72206ZM12.7321 8.33708C12.3769 9.35461 13.1515 9.98069 14.1739 9.47851C15.4321 8.87221 15.7296 7.22201 14.9078 6.90831C14.8075 6.87535 14.7028 6.85802 14.5972 6.85691C14.1854 6.914 13.797 7.08299 13.4736 7.34567C13.1503 7.60836 12.9043 7.95478 12.7623 8.34762L12.7321 8.33708ZM14.4753 11.3726C14.301 12.6577 15.6549 13.3009 16.7821 12.4639C17.9093 11.6269 17.7442 9.82779 16.4427 9.69599H16.305C15.8545 9.72702 15.4278 9.91075 15.0945 10.2172C14.7612 10.5236 14.5411 10.9346 14.4701 11.3831L14.4753 11.3726ZM17.1675 14.7204C17.1884 15.0533 17.3056 15.3728 17.5046 15.6397C17.7035 15.9067 17.9756 16.1094 18.2875 16.223C18.5994 16.3367 18.9374 16.3563 19.2602 16.2795C19.583 16.2027 19.8765 16.0328 20.1047 15.7907C20.3556 15.5683 20.5333 15.2744 20.6141 14.948C20.6949 14.6216 20.675 14.2783 20.557 13.9635C20.4391 13.6488 20.2287 13.3776 19.9538 13.186C19.679 12.9944 19.3526 12.8915 19.0181 12.8909C18.5335 12.8997 18.0709 13.0966 17.7274 13.4406C17.3839 13.7846 17.1861 14.2489 17.1753 14.7362L17.1675 14.7204ZM20.6303 18.3345C20.6808 18.706 20.8372 19.0548 21.0806 19.3388C21.3241 19.6228 21.644 19.8299 22.0019 19.935C22.3598 20.0401 22.7403 20.0387 23.0974 19.931C23.4546 19.8234 23.7731 19.6141 24.0145 19.3283C24.2344 19.054 24.3709 18.7217 24.4078 18.3712C24.4446 18.0208 24.3802 17.6671 24.2222 17.3526C24.0642 17.0381 23.8194 16.776 23.5171 16.5979C23.2147 16.4197 22.8677 16.333 22.5177 16.3482C22.029 16.3354 21.5552 16.5183 21.2006 16.8567C20.8459 17.1951 20.6394 17.6612 20.6264 18.1526C20.6264 18.2132 20.6264 18.2739 20.6264 18.3345H20.6303ZM24.4876 22.145C24.5334 22.5003 24.6798 22.8349 24.9094 23.109C25.139 23.383 25.442 23.5849 25.7825 23.6906C26.123 23.7963 26.4865 23.8013 26.8297 23.7051C27.1729 23.6089 27.4814 23.4156 27.7184 23.148C27.921 22.91 28.0616 22.6252 28.1276 22.319C28.1935 22.0128 28.1828 21.695 28.0962 21.394C28.0097 21.093 27.8502 20.8184 27.632 20.5949C27.4138 20.3713 27.1437 20.2058 26.8461 20.1132C26.5485 20.0206 26.2327 20.0039 25.927 20.0645C25.6214 20.1251 25.3355 20.2611 25.0952 20.4604C24.8548 20.6597 24.6674 20.9159 24.5499 21.206C24.4324 21.4962 24.3885 21.8111 24.4221 22.1226L24.4876 22.145ZM15.4308 0.90195L15.2067 0.982351C15.8712 0.829457 16.5082 0.586936 17.1727 0.422179C17.7219 0.283784 18.2566 0.19811 18.7848 0.0808038L18.5227 0.124299C17.4766 0.308767 16.4451 0.568654 15.4361 0.90195H15.4308ZM13.4478 1.72441C12.9964 1.91821 12.5678 2.16178 12.1698 2.45066V2.45066C12.3795 2.45066 15.3587 1.0008 15.3797 1.0008C14.715 1.18878 14.067 1.43214 13.4425 1.72837L13.4478 1.72441ZM10.8107 3.46029C10.0885 3.9796 9.79619 4.34734 9.92726 4.40401C10.2025 4.5055 12.7688 2.75381 12.7544 2.46252H12.7111C12.0275 2.69775 11.3859 3.04174 10.8107 3.48138V3.46029ZM9.12643 5.6957C8.56153 6.32046 8.40294 6.83714 8.78566 6.83714C9.59566 6.83714 11.3965 4.78757 11.1292 4.47387C11.0924 4.44348 11.0456 4.42797 10.9981 4.43037C10.2689 4.66809 9.62056 5.10642 9.12643 5.6957ZM8.54056 8.34894C8.07003 9.19249 8.26532 9.7988 8.95211 9.63536C10.1724 9.33748 11.2222 7.27868 10.6075 6.90831C10.5401 6.87534 10.4662 6.85821 10.3912 6.85822C9.99543 6.96043 9.62574 7.14607 9.30668 7.40285C8.98762 7.65962 8.72647 7.98166 8.54056 8.34762V8.34894ZM9.12119 11.3791C8.78172 12.5061 9.54061 13.1967 10.5236 12.6524C11.7596 11.9683 12.1869 9.99782 11.1672 9.74476C11.0952 9.73816 11.0228 9.73816 10.9509 9.74476C10.5193 9.8262 10.119 10.0271 9.79478 10.325C9.4706 10.6228 9.23551 11.0057 9.11595 11.4305L9.12119 11.3791ZM10.8015 14.7679C10.7428 15.0511 10.7776 15.3459 10.9006 15.6075C11.0236 15.8691 11.2281 16.0833 11.483 16.2174C11.738 16.3516 12.0295 16.3984 12.3133 16.3509C12.5972 16.3034 12.8579 16.1641 13.0559 15.9541C14.2276 14.9946 14.0389 13.0465 12.7531 12.9226H12.622C12.1564 12.9777 11.7232 13.1903 11.3935 13.5256C11.0639 13.8609 10.8575 14.299 10.808 14.7679H10.8015ZM13.453 18.3675C13.4441 18.7044 13.5385 19.036 13.7233 19.3172C13.9081 19.5984 14.1745 19.8157 14.4862 19.9396C14.798 20.0634 15.14 20.0879 15.4661 20.0097C15.7921 19.9315 16.0864 19.7543 16.309 19.5023C17.3431 18.4399 16.9158 16.4629 15.2683 16.3825C14.7688 16.4127 14.3005 16.6366 13.9619 17.0071C13.6233 17.3776 13.4409 17.8657 13.453 18.3688V18.3675ZM16.8228 22.1793C16.8453 22.5531 16.9804 22.9112 17.2102 23.2059C17.44 23.5007 17.7535 23.7182 18.1091 23.8295C18.4647 23.9408 18.8456 23.9406 19.2011 23.829C19.5566 23.7174 19.8699 23.4997 20.0995 23.2047C20.3218 22.9257 20.4622 22.5897 20.5048 22.2347C20.5474 21.8798 20.4906 21.5199 20.3407 21.1956C20.1908 20.8714 19.9538 20.5957 19.6564 20.3997C19.3591 20.2037 19.0132 20.0951 18.6577 20.0862C18.4127 20.0881 18.1705 20.1385 17.9449 20.2346C17.7194 20.3308 17.5148 20.4706 17.3431 20.6463C17.1713 20.822 17.0357 21.03 16.9439 21.2584C16.8522 21.4869 16.8061 21.7312 16.8083 21.9776C16.8088 22.0455 16.8132 22.1132 16.8214 22.1806L16.8228 22.1793ZM20.587 25.9818C20.6459 26.3438 20.8059 26.6814 21.0484 26.9553C21.2909 27.2293 21.6058 27.4282 21.9565 27.5289C22.3071 27.6297 22.679 27.628 23.0288 27.5242C23.3786 27.4204 23.6918 27.2187 23.9319 26.9427C24.1585 26.6713 24.3027 26.3399 24.347 25.9883C24.3914 25.6367 24.3341 25.2797 24.182 24.9599C24.03 24.6402 23.7895 24.3712 23.4895 24.1853C23.1895 23.9993 22.8425 23.9041 22.4901 23.9112C21.9971 23.9009 21.5201 24.088 21.1642 24.4314C20.8083 24.7747 20.6026 25.2461 20.5923 25.7419C20.591 25.8141 20.5936 25.8863 20.6001 25.9581L20.587 25.9818ZM9.08056 4.25244C9.02824 4.30719 8.98004 4.36578 8.93639 4.42774C9.04517 4.39215 11.9156 2.48757 11.9221 2.47307L11.6836 2.59696C10.7788 3.088 9.90907 3.64159 9.08056 4.25375V4.25244ZM7.54182 5.70361C6.81833 6.36264 6.52211 6.83845 6.67415 6.84636C6.96512 6.84636 9.34663 4.66499 9.24833 4.4396C8.61939 4.7651 8.04778 5.1921 7.55624 5.70361H7.54182ZM5.82876 8.33576C5.28614 9.10682 5.14852 9.71708 5.53124 9.64459C6.25473 9.51278 7.97566 7.17324 7.58507 6.87668C7.55882 6.87009 7.53137 6.87009 7.50512 6.87668C7.0857 6.92017 6.30454 7.68332 5.82876 8.36608V8.33576ZM5.22847 11.3897C4.79332 12.3835 5.03318 13.0768 5.70556 12.7855C6.76065 12.3268 7.75153 10.0453 7.0359 9.73158C6.98762 9.72499 6.93869 9.72499 6.89041 9.73158C6.2259 9.79089 5.51682 10.7504 5.22847 11.4187V11.3897ZM5.79206 14.756C5.52993 15.9923 6.2259 16.7265 7.11454 16.1373C8.32299 15.3438 8.61658 13.0794 7.5274 12.912H7.43697C6.57585 12.97 5.99522 14.0311 5.80255 14.7573L5.79206 14.756ZM7.49464 18.2989C7.41862 19.754 8.66245 20.4842 9.66512 19.5616C10.6678 18.639 10.5551 16.3983 9.14085 16.3126C8.05037 16.3706 7.49988 17.512 7.49988 18.2989H7.49464ZM10.1396 22.1094C10.2628 23.7227 11.8815 24.4279 12.8435 23.2772C13.8056 22.1265 13.2839 20.1007 11.7294 20.0124C11.49 20.0422 11.2588 20.1192 11.049 20.239C10.8392 20.3588 10.655 20.519 10.5068 20.7105C10.3586 20.9019 10.2495 21.1209 10.1856 21.3548C10.1217 21.5888 10.1043 21.8331 10.1343 22.0738C10.1336 22.0848 10.1336 22.0958 10.1343 22.1068L10.1396 22.1094ZM13.4661 25.912C13.7191 27.5121 15.6353 28.0934 16.5396 26.886C16.7324 26.6028 16.8468 26.2731 16.8711 25.9307C16.8954 25.5883 16.8287 25.2456 16.6778 24.9378C16.5269 24.6299 16.2973 24.3679 16.0125 24.1787C15.7278 23.9895 15.3981 23.8799 15.0573 23.8611C14.8122 23.8714 14.5722 23.9352 14.3542 24.0481C14.1361 24.161 13.945 24.3204 13.7944 24.515C13.6437 24.7097 13.537 24.935 13.4817 25.1754C13.4263 25.4157 13.4237 25.6653 13.474 25.9067L13.4661 25.912ZM17.1609 29.4984C17.195 29.8422 17.329 30.1683 17.5463 30.436C17.7635 30.7036 18.0544 30.901 18.3825 31.0034C18.7107 31.1058 19.0615 31.1087 19.3913 31.0118C19.7211 30.9148 20.0152 30.7223 20.2368 30.4583C20.4584 30.1943 20.5978 29.8705 20.6375 29.5273C20.6772 29.1841 20.6154 28.8367 20.46 28.5286C20.3045 28.2205 20.0622 27.9652 19.7634 27.7948C19.4645 27.6243 19.1224 27.5461 18.7796 27.5701C18.355 27.5595 17.9435 27.7186 17.6354 28.0126C17.3273 28.3067 17.1477 28.7116 17.136 29.1386C17.1324 29.2593 17.1425 29.38 17.1662 29.4984H17.1609ZM4.14322 9.44424C4.09582 9.50611 4.05743 9.57446 4.02919 9.64722C4.81453 8.75468 5.55469 7.82296 6.24687 6.85559V6.85559C6.24687 6.85559 6.2023 6.85559 6.05158 7.03748C5.36046 7.79403 4.72279 8.59824 4.14322 9.44424V9.44424ZM3.15497 11.3633C2.69885 12.2359 2.54026 12.8975 2.80109 12.8132C3.3424 12.6458 4.8392 9.86206 4.48531 9.68017C4.19434 9.73026 3.58881 10.6028 3.18381 11.3673L3.15497 11.3633ZM2.55337 14.7046C2.22701 15.8025 2.41575 16.5367 2.94657 16.2164C3.79852 15.6892 4.56526 13.0241 3.87847 12.8501C3.35419 12.9081 2.80109 13.9691 2.58482 14.6954L2.55337 14.7046ZM3.14842 18.295C3.01735 19.5959 3.65434 20.3814 4.35555 19.7448C5.27303 18.9448 5.4775 16.3864 4.41454 16.2915C3.69104 16.3574 3.23492 17.4909 3.14842 18.2778V18.295ZM4.8156 22.1015C4.89556 23.5513 5.92968 24.2829 6.68857 23.5197C7.59949 22.5852 7.34391 20.1099 6.03323 20.0084C5.11575 20.0743 4.76711 21.2738 4.81298 22.1028L4.8156 22.1015ZM7.48546 25.9054C7.76726 27.4172 9.24964 28.0868 9.96527 27.0152C10.6809 25.9436 10.0518 23.9468 8.66376 23.8598C7.6008 23.9257 7.33342 25.0961 7.48415 25.9054H7.48546ZM10.8172 29.4971C11.2288 31.0023 12.9497 31.5611 13.6063 30.4052C13.7374 30.1149 13.798 29.7974 13.7832 29.4788C13.7684 29.1603 13.6786 28.8499 13.5212 28.5731C13.3638 28.2963 13.1433 28.061 12.8778 27.8866C12.6124 27.7122 12.3095 27.6038 11.9942 27.5701C11.7757 27.5875 11.5643 27.6567 11.3775 27.772C11.1906 27.8874 11.0336 28.0456 10.9193 28.2337C10.805 28.4219 10.7366 28.6345 10.7198 28.8544C10.703 29.0742 10.7381 29.2949 10.8225 29.4984L10.8172 29.4971ZM14.4373 32.8278C14.8934 34.2776 16.7297 34.7324 17.3287 33.5554C17.4344 33.2791 17.4716 32.9811 17.4373 32.6872C17.4029 32.3932 17.2979 32.1121 17.1313 31.868C16.9647 31.624 16.7416 31.4244 16.4812 31.2864C16.2208 31.1484 15.9309 31.0762 15.6366 31.0761C15.2993 31.0712 14.9738 31.2011 14.7317 31.4374C14.4896 31.6737 14.3507 31.9969 14.3456 32.3362C14.3433 32.5124 14.3767 32.6873 14.4439 32.8502L14.4373 32.8278ZM1.07492 16.0595C1.0501 16.1375 1.03814 16.2189 1.03953 16.3007V16.3007C1.56532 15.2063 1.97012 14.0571 2.24667 12.8738C2.20997 12.9094 2.19555 12.9239 2.10905 13.1071C1.69581 14.065 1.35067 15.0512 1.07623 16.0582L1.07492 16.0595ZM0.814094 18.2989C0.647637 19.3823 0.755113 20.1613 1.04608 19.9504C1.47992 19.6381 2.17327 16.4391 1.58871 16.3152C1.25579 16.3798 0.933366 17.5147 0.821958 18.3015L0.814094 18.2989ZM1.39341 22.1107C1.4288 23.376 1.92817 24.1761 2.37643 23.7029C3.01866 23.0202 2.98327 20.127 2.12215 20.0229C1.57298 20.0875 1.36327 21.2869 1.39997 22.116L1.39341 22.1107ZM3.15759 25.9041C3.41973 27.2709 4.3372 27.9985 4.83395 27.2485C5.43425 26.3469 4.89293 23.9534 3.84701 23.8598C3.12351 23.9244 3.00031 25.0948 3.16021 25.9041H3.15759ZM5.83269 29.4958C6.31764 30.9456 7.61129 31.5321 8.00187 30.5357C8.39245 29.5393 7.60867 27.6281 6.45396 27.5688C5.57973 27.6347 5.53648 28.7326 5.79861 29.4971L5.83269 29.4958ZM9.12512 32.8278C9.73983 34.2091 11.2222 34.71 11.5761 33.6634C11.6851 33.0837 11.561 32.4842 11.231 31.9965C10.901 31.5087 10.3921 31.1725 9.81585 31.0616L9.76736 31.0537C8.79876 31.1117 8.80663 32.1292 9.11202 32.8278H9.12512ZM12.7269 35.8382C13.3416 37.0245 14.9354 37.6044 15.2172 36.4709C15.2718 35.9338 15.112 35.3969 14.7731 34.9782C14.4342 34.5595 13.9438 34.2933 13.4097 34.2381C12.4215 34.2974 12.4267 35.2056 12.7544 35.8303L12.7269 35.8382ZM0.260986 22.0435C0.260986 22.5523 0.278025 23.0597 0.312103 23.5632C0.31208 23.6499 0.326706 23.7359 0.355355 23.8176V23.8176C0.507394 22.552 0.507394 21.2727 0.355355 20.0071C0.327751 20.093 0.308009 20.1812 0.296375 20.2707C0.272783 20.8568 0.260986 21.4482 0.260986 22.0448V22.0435ZM0.832443 25.9054C1.04215 27.0481 1.42487 27.7889 1.63458 27.4765C1.95308 26.9822 1.50351 23.9797 0.911084 23.8413C0.592589 23.9059 0.658123 25.0763 0.810162 25.8856L0.832443 25.9054ZM2.56779 29.476C3.00162 30.6622 3.73822 31.3595 4.00953 30.8138C4.34245 30.0876 3.47478 27.6439 2.67395 27.549C2.16016 27.6149 2.31876 28.7128 2.594 29.4773L2.56779 29.476ZM5.28745 32.8067C5.90216 33.9547 6.89959 34.5729 7.13027 33.9481C7.42648 33.1481 6.33599 31.113 5.35167 31.0405C4.68716 31.0985 4.91784 32.116 5.28745 32.8146V32.8067ZM8.59954 35.825C9.27847 36.8136 10.4856 37.4818 10.6743 36.7595C10.8631 36.0373 9.75687 34.3159 8.64935 34.2368C7.92716 34.2948 8.16439 35.2029 8.59168 35.829L8.59954 35.825ZM12.2065 38.4651C12.9287 39.3522 14.1883 39.915 14.2892 39.1913C14.3901 38.4677 13.2761 37.1418 12.2419 37.0825C11.5197 37.126 11.6613 37.8087 12.1777 38.4704L12.2065 38.4651ZM2.054 30.7861C2.08484 30.8665 2.12628 30.9423 2.1772 31.0115V31.0115C1.90729 29.8219 1.50728 28.6659 0.984482 27.5648V27.8113C1.25325 28.824 1.59403 29.816 2.00419 30.7795L2.054 30.7861ZM3.20478 32.8146C3.72905 33.7491 4.31754 34.4147 4.3975 34.1458C4.5207 33.7162 3.19036 31.1354 2.66215 31.0405C2.41706 31.0998 2.74866 32.008 3.20478 32.8146ZM5.89429 35.8316C6.61648 36.778 7.48415 37.3513 7.49857 36.9151C7.49857 36.3562 6.05682 34.3198 5.3307 34.2394C4.9375 34.2908 5.3307 35.1054 5.87201 35.8316H5.89429ZM9.16838 38.4677C9.89187 39.194 10.9404 39.7858 10.9758 39.3904C11.0112 38.995 9.51571 37.1444 8.64804 37.0917C8.18405 37.1352 8.55367 37.8179 9.19066 38.4809L9.16838 38.4677ZM12.8108 40.6504C13.5972 41.2686 14.6837 41.7418 14.6182 41.378C14.1083 40.4746 13.2633 39.8111 12.2681 39.5327C11.8042 39.5327 12.1371 40.1061 12.6954 40.5872L12.8108 40.6807V40.6504ZM5.89036 36.8834C5.94817 36.9539 6.01368 37.0175 6.08565 37.0732C5.40908 36.0827 4.67193 35.1354 3.87847 34.2368C3.87847 34.2368 3.87847 34.2816 3.98725 34.4477C4.55639 35.3029 5.18351 36.1176 5.86415 36.8861L5.89036 36.8834ZM7.59163 38.477C8.00275 38.9136 8.49182 39.2686 9.03338 39.5235C9.14085 39.3324 6.86551 37.1523 6.48148 37.0917C6.29405 37.1352 6.90876 37.8628 7.57983 38.4809L7.59163 38.477ZM10.8565 40.6623C11.354 41.0623 11.931 41.3504 12.5486 41.5072C11.7656 40.6663 10.8213 39.9937 9.7726 39.5301C9.54061 39.5301 9.96134 39.9967 10.4961 40.3881L10.8893 40.6794L10.8565 40.6623ZM14.5042 42.4179C15.0293 42.708 15.5983 42.9092 16.1884 43.0137C15.3425 42.3745 14.3962 41.8822 13.3888 41.5573C13.3455 41.5573 13.2013 41.5573 13.4687 41.805C13.7888 42.0542 14.1357 42.2664 14.5028 42.4377L14.5042 42.4179ZM11.4503 41.4202L11.6744 41.5375C11.5879 41.4571 8.73978 39.5604 8.72537 39.5499C8.78038 39.6043 8.83859 39.6553 8.89969 39.7028C9.71008 40.3323 10.5627 40.9048 11.4516 41.4162L11.4503 41.4202ZM13.5487 42.4338C14.0717 42.679 14.6129 42.8831 15.1674 43.044C15.0953 42.9649 12.1095 41.5942 11.9719 41.5546C12.4645 41.9051 12.9964 42.1962 13.5565 42.4219L13.5487 42.4338ZM17.1714 43.6292C17.7202 43.7815 18.2773 43.9017 18.8399 43.9891L15.8764 43.1165C15.7803 43.084 15.681 43.0619 15.5802 43.0506V43.0506C16.0924 43.3073 16.6338 43.5002 17.1924 43.6253L17.1714 43.6292ZM18.292 43.9311L18.545 43.9746C17.9054 43.8217 17.2723 43.7109 16.6432 43.5304C16.0141 43.3498 15.5724 43.1679 15.0245 43.0361L15.2486 43.1231C16.2426 43.4653 17.2596 43.7354 18.292 43.9311" fill="url(#paint0_linear_14_480)"/>
<defs>
<linearGradient id="paint0_linear_14_480" x1="3.445" y1="34.2619" x2="33.5978" y2="22.0158" gradientUnits="userSpaceOnUse">
<stop stop-color="#20419A"/>
<stop offset="1" stop-color="#EF6823"/>
</linearGradient>
</defs>
</svg>