<svg viewBox="0 0 313 72" fill="none" xmlns="http://www.w3.org/2000/svg">
<path d="M72.0796 0.843508C72.6305 0.303257 73.3766 -0.00012207 74.1545 -0.00012207C74.9324 -0.00012207 75.6785 0.303257 76.2293 0.843508L80.0812 4.63884C80.2083 4.76444 80.2855 4.93062 80.2988 5.10733C80.3122 5.28404 80.2608 5.45962 80.154 5.60232C79.4592 6.50958 79.1214 7.63339 79.2029 8.76643C79.2844 9.89946 79.7797 10.9653 80.5974 11.7673C81.4128 12.5717 82.4963 13.0588 83.6482 13.139C84.8001 13.2192 85.9426 12.8869 86.865 12.2035C87.01 12.0984 87.1885 12.0479 87.3682 12.061C87.5478 12.0742 87.7168 12.1501 87.8445 12.2751L91.564 15.9337C92.1132 16.4755 92.4216 17.2094 92.4216 17.9746C92.4216 18.7397 92.1132 19.4736 91.564 20.0155L39.9411 70.7935C39.5382 71.1871 38.9934 71.4079 38.4255 71.4079C37.8577 71.4079 37.3129 71.1871 36.9099 70.7935L18.9346 53.1188L72.0796 0.843508Z" fill="url(#paint0_linear_985_96)"/>
<path style="mix-blend-mode:hard-light" d="M20.3508 16.1941C20.0789 15.925 19.7556 15.7115 19.3996 15.5658C19.0435 15.4201 18.6616 15.3451 18.2759 15.3451C17.8903 15.3451 17.5084 15.4201 17.1523 15.5658C16.7962 15.7115 16.473 15.925 16.2011 16.1941L12.3426 19.9829C12.2143 20.1078 12.1363 20.2742 12.1229 20.4513C12.1095 20.6283 12.1617 20.8042 12.2698 20.9464C12.9624 21.8557 13.2988 22.98 13.2174 24.1134C13.1359 25.2468 12.6421 26.3134 11.8264 27.1179C11.0085 27.9203 9.92419 28.406 8.77195 28.4861C7.6197 28.5662 6.47668 28.2353 5.55223 27.5541C5.40767 27.4477 5.22887 27.3964 5.04884 27.4095C4.86882 27.4227 4.6997 27.4995 4.57272 27.6257L0.85984 31.2843C0.587291 31.5516 0.371046 31.8692 0.223498 32.2188C0.0759501 32.5685 0 32.9433 0 33.3219C0 33.7005 0.0759501 34.0754 0.223498 34.425C0.371046 34.7747 0.587291 35.0922 0.85984 35.3596L36.8833 70.8C37.2863 71.1936 37.8311 71.4144 38.3989 71.4144C38.9668 71.4144 39.5116 71.1936 39.9145 70.8L57.8899 53.1188L20.3508 16.1941Z" fill="url(#paint1_linear_985_96)"/>
<g style="mix-blend-mode:color-burn">
<path d="M42.5356 29.9237L57.8173 53.0798L38.4058 33.9859L42.5356 29.9237Z" fill="#2182A8"/>
</g>
<path d="M118.15 31.9809H109.334V27.2937H132.207V31.9809H123.391V54.6357H118.15V31.9809Z" fill="white"/>
<path d="M135.423 54.6357V27.2937H140.625V54.6357H135.423Z" fill="white"/>
<path d="M170.05 51.1984C168.649 52.5351 166.991 53.583 165.173 54.2806C163.354 54.9782 161.412 55.3114 159.461 55.2606C149.137 55.2606 144.768 48.2689 144.729 41.16C144.689 34.051 149.441 26.7468 159.501 26.7468C161.398 26.7447 163.278 27.113 165.029 27.8305C166.781 28.5479 168.371 29.6001 169.706 30.9262L166.212 34.2463C164.407 32.5487 161.998 31.6139 159.501 31.6423C152.79 31.6423 149.891 36.5639 149.931 41.1339C149.97 45.7039 152.618 50.4172 159.501 50.4172C162.104 50.4011 164.604 49.4093 166.49 47.6439L170.05 51.1984Z" fill="white"/>
<path d="M195.346 27.4499L182.996 40.535L196.378 54.3232V54.6357H189.906L178.271 42.5271V54.6357H173.029V27.2937H178.271V38.8554L188.86 27.2937H195.372L195.346 27.4499Z" fill="white"/>
<path d="M219.767 54.6357H198.959V27.2937H219.767V32.2934H204.161V38.582H219.211V43.3864H204.161V49.5579H219.767V54.6357Z" fill="white"/>
<path d="M232.626 31.9809H223.817V27.2937H246.684V31.9809H237.868V54.6357H232.626V31.9809Z" fill="white"/>
<path d="M249.9 54.6357V27.2937H255.102V54.6357H249.9Z" fill="white"/>
<path d="M278.293 27.2546H283.535V54.6357H280.278V54.6813L265.665 36.1994V54.6357H260.423V27.2937H264.672L278.293 44.2197V27.2546Z" fill="white"/>
<path d="M308.989 33.9729C307.053 32.2403 304.537 31.2693 301.92 31.2452C295.964 31.2452 292.35 35.6981 292.35 41.3227C292.35 45.8146 294.997 50.4367 301.92 50.4367C304.215 50.4972 306.451 49.7178 308.194 48.2494V43.4254H301.086V38.8164H312.999V50.3391C311.655 51.9344 309.958 53.207 308.038 54.0598C306.118 54.9127 304.026 55.3234 301.92 55.2606C291.477 55.2606 287.228 48.5032 287.228 41.3162C287.228 33.6214 292.112 26.5125 301.92 26.5125C305.787 26.5136 309.497 28.0155 312.245 30.6919L308.989 33.9729Z" fill="white"/>
<defs>
<linearGradient id="paint0_linear_985_96" x1="43.7135" y1="48.6465" x2="82.7608" y2="6.40443" gradientUnits="userSpaceOnUse">
<stop stop-color="#0270FF"/>
<stop offset="1" stop-color="#0700B9"/>
</linearGradient>
<linearGradient id="paint1_linear_985_96" x1="12.8059" y1="27.9447" x2="47.3823" y2="63.0964" gradientUnits="userSpaceOnUse">
<stop stop-color="#01FBB7"/>
<stop offset="1" stop-color="#006FFF"/>
</linearGradient>
</defs>
</svg>
