<svg version="1.2" xmlns="http://www.w3.org/2000/svg" viewBox="0 0 1593 1585" width="1593" height="1585">
	<title>sdsdsdsd-svg</title>

	<style>
		.s0 { fill: #6cb33f } 
	</style>
	<g id="Clip-Path: Page 1" clip-path="url(#cp1)">
		<g id="Page 1">
			<path id="Path 3" fill-rule="evenodd" class="s0" d="m1572 970.4c-58.3 255.4-238.8 465.4-502.2 566 45.9-269.1 240.9-488.8 502.2-566zm-541.6 579.2c-586.5 179.8-1182-353.5-995.4-989.9 669.8 0 1016.8 572 995.4 989.9zm29-211.1c-31-438.1-444.7-900.3-943.6-956.6 48.2-78.4 109.3-148 181.3-205.5 473.2 177 790 661.7 762.3 1162.1zm-522.7-1294c81.2-27.8 232.8-56 347.8-38.3 152.4 247.4 336.1 759.9 214.7 1234.5 43-444.9-225.2-950.5-562.5-1196.2zm581.4 24.5c310 137.6 498.9 456.5 471.6 794.8-190.6 33.8-353.4 169.4-445.5 331.5 176.1-510.1 51.9-960.2-26.1-1126.3z"/>
		</g>
	</g>
</svg>