<svg xmlns="http://www.w3.org/2000/svg" xmlns:xlink="http://www.w3.org/1999/xlink" width="250" height="187" viewBox="0 0 250 187">
  <defs>
    <clipPath id="clip-TMILL">
      <rect width="250" height="187"/>
    </clipPath>
  </defs>
  <g id="TMILL" clip-path="url(#clip-TMILL)">
    <g id="TMILL-04" transform="translate(10.143 17.256)">
      <path id="Path_1" data-name="Path 1" d="M217.03,98.66l-.75-3.379q6.454-1.436,12.421-3.085a86.768,86.768,0,0,0-20.48-25.4c-.837-.418-1.687-.818-2.543-1.218q-6.3,1.449-13.189,2.61a89.284,89.284,0,0,1,5.2,8.075l-3.005,1.7a84.77,84.77,0,0,0-6.042-9.162c-7.316,1.124-15.063,1.967-23.148,2.592a164.855,164.855,0,0,1,5.71,27.292l-3.43.437a157.755,157.755,0,0,0-5.892-27.479c-6.654.412-13.52.624-20.561.662v6.058h-3.455V72.292c-7.041-.044-13.92-.287-20.568-.724-.718,2.267-1.4,4.64-2.043,7.138l-3.349-.856q.868-3.41,1.843-6.539c-8.078-.625-15.8-1.511-23.117-2.66a84.931,84.931,0,0,0-6.723,10.355l-3.03-1.667a89.163,89.163,0,0,1,5.967-9.318Q80.091,66.859,73.9,65.41q-1.468.674-2.9,1.38A86.872,86.872,0,0,0,50.608,91.927Q56.1,93.47,62.029,94.844l-.775,3.366q-6.36-1.461-12.233-3.123a75.606,75.606,0,0,0-7.391,30.8H68.408a110.4,110.4,0,0,1,1.874-18.573l3.4.625a106.815,106.815,0,0,0-1.831,17.936h8.31v3.454H71.85a106.837,106.837,0,0,0,2.024,19.229l-3.386.674a110.309,110.309,0,0,1-2.1-19.9H41.649A75.68,75.68,0,0,0,49.6,161.369q8.609-2.436,18.118-4.372l.7,3.391q-9.066,1.874-17.2,4.122a87.18,87.18,0,0,0,19.762,24q3.124,1.536,6.36,2.923,5.311-1.143,11.021-2.1-1.943-2.5-3.749-5.208l2.886-1.9q2.262,3.422,4.761,6.5c7.035-1.062,14.464-1.874,22.211-2.5-.387-1.143-.756-2.317-1.118-3.529l3.311-.987c.444,1.474.9,2.892,1.374,4.272,6.416-.406,13.033-.625,19.812-.681V169.937H141.3v15.382c6.785,0,13.414.231,19.843.625q.875-2.567,1.681-5.358l3.324.962c-.462,1.6-.943,3.123-1.443,4.634,7.76.55,15.213,1.355,22.273,2.392A89.918,89.918,0,0,0,202.7,158.646q-4.242-.743-8.634-1.374l.494-3.422q4.648.675,9.116,1.449a104.924,104.924,0,0,0,3.63-25.962h-1.987v-3.454H207.3c-.044-2.5-.163-5-.375-7.451l3.443-.294c.219,2.554.344,5.152.387,7.744h26.759a75.544,75.544,0,0,0-7.266-30.527Q223.946,97.124,217.03,98.66Zm-49.357,3.46.237,3.447c-2.218.156-4.492.294-6.754.412l-.181-3.454c2.255-.119,4.5-.25,6.71-.406ZM65.834,178.749l25.928-73.263L62.4,104.968,71.019,81.81l83.5-1.73-8.472,24.712H117.865l-24.9,73.956Zm118.239-.687-25.241-.35,9.859-29.2a1.931,1.931,0,0,0-.95-2.13,1.839,1.839,0,0,0-2.162.749l-22.123,24.357-7.61-26.611a1.962,1.962,0,0,0-1.787-1.642,1.762,1.762,0,0,0-1.668,1.124L119.958,179.1,97.31,178.58l24.366-70.159,27.49-.343L153.49,92.7s.2-.874.906-.974.993.806.993.806l5.361,24.531,1.874.35,25.435-36.46H218.3Z" transform="translate(-24.635 -51.538)" fill="#11a1fd"/>
      <path id="Path_2" data-name="Path 2" d="M268,274.3q6.968-1.9,13.416-4.327-3.94-.747-8.051-1.387A75.835,75.835,0,0,1,268,274.3Z" transform="translate(-109.601 -127.814)" fill="#11a1fd"/>
      <path id="Path_3" data-name="Path 3" d="M337.335,167.76H310.2a110.018,110.018,0,0,1-3.725,26.953c8.14,1.508,15.836,3.256,22.95,5.232A76.655,76.655,0,0,0,337.335,167.76Z" transform="translate(-124.434 -90.217)" fill="#11a1fd"/>
      <path id="Path_4" data-name="Path 4" d="M275.152,60.311q5.276-.855,10.274-1.9A145.7,145.7,0,0,0,268.07,52.52,80.94,80.94,0,0,1,275.152,60.311Z" transform="translate(-109.663 -46.813)" fill="#11a1fd"/>
      <path id="Path_5" data-name="Path 5" d="M116.007,268.85q-3.953.634-7.747,1.362,6.239,2.337,12.935,4.161C119.4,272.638,117.667,270.8,116.007,268.85Z" transform="translate(-49.791 -127.909)" fill="#11a1fd"/>
      <path id="Path_6" data-name="Path 6" d="M295.994,215.66a95.492,95.492,0,0,1-15.443,30.348c3.959.633,7.779,1.362,11.465,2.141,2.071-.893,4.1-1.831,6.081-2.806a88.292,88.292,0,0,0,20.162-24.628C311.31,218.808,303.867,217.142,295.994,215.66Z" transform="translate(-114.93 -108.412)" fill="#11a1fd"/>
      <path id="Path_7" data-name="Path 7" d="M147.995,264.33c-7.234.519-14.259,1.267-21,2.242a72.955,72.955,0,0,0,8.425,7.956,166.229,166.229,0,0,0,18.851,3.028A75.434,75.434,0,0,1,147.995,264.33Z" transform="translate(-56.865 -126.252)" fill="#11a1fd"/>
      <path id="Path_8" data-name="Path 8" d="M254.168,266.383c-6.771-.944-13.822-1.672-21.068-2.173a75.894,75.894,0,0,1-6.29,13.3,166.308,166.308,0,0,0,18.775-3.015A72.779,72.779,0,0,0,254.168,266.383Z" transform="translate(-94.292 -126.208)" fill="#11a1fd"/>
      <path id="Path_9" data-name="Path 9" d="M165.92,263.634a65.515,65.515,0,0,0,7.05,13.86q5.8.449,11.788.507V263Q175.181,263.032,165.92,263.634Z" transform="translate(-71.411 -125.765)" fill="#11a1fd"/>
      <path id="Path_10" data-name="Path 10" d="M220.08,263.514c-6.176-.355-12.479-.545-18.87-.564v15q5.986-.057,11.807-.507A65.721,65.721,0,0,0,220.08,263.514Z" transform="translate(-84.631 -125.747)" fill="#11a1fd"/>
      <path id="Path_11" data-name="Path 11" d="M59.685,242.323A88.876,88.876,0,0,1,48,225.6c-2.1.633-4.143,1.267-6.138,1.9a94.136,94.136,0,0,0,17.825,14.823Z" transform="translate(-24.719 -112.056)" fill="#11a1fd"/>
      <path id="Path_12" data-name="Path 12" d="M59.172,78.18A93.008,93.008,0,0,0,40.46,93.94q3.123,1.051,6.429,2.046A88.842,88.842,0,0,1,59.172,78.18Z" transform="translate(-24.206 -56.218)" fill="#11a1fd"/>
      <path id="Path_13" data-name="Path 13" d="M326.83,242.195a93.86,93.86,0,0,0,18.078-15.044q-3.04-1-6.233-1.9a89.019,89.019,0,0,1-11.845,16.945Z" transform="translate(-131.894 -111.927)" fill="#11a1fd"/>
      <path id="Path_14" data-name="Path 14" d="M233.991,60.529c7.6-.545,14.981-1.343,22.044-2.375a73.693,73.693,0,0,0-10.427-10.211,167.986,167.986,0,0,0-18.718-3A78.537,78.537,0,0,1,233.991,60.529Z" transform="translate(-94.337 -44.034)" fill="#11a1fd"/>
      <path id="Path_15" data-name="Path 15" d="M356.4,142.388h13.48c-.431-12.371-5.271-24.02-13.512-34.288-2.4.811-4.871,1.6-7.43,2.35A79.991,79.991,0,0,1,356.4,142.388Z" transform="translate(-139.999 -67.801)" fill="#11a1fd"/>
      <path id="Path_16" data-name="Path 16" d="M356.1,167.76a80.221,80.221,0,0,1-7.994,33.161q3.668,1.083,7.133,2.236c8.767-10.54,13.916-22.576,14.334-35.4Z" transform="translate(-139.694 -90.248)" fill="#11a1fd"/>
      <path id="Path_17" data-name="Path 17" d="M29.439,181.432q3.421-1.159,7.019-2.236a80.131,80.131,0,0,1-8.152-33.484H15.5v-3.5H28.311a80.029,80.029,0,0,1,7.6-32.236q-3.8-1.14-7.323-2.363c-8.8,10.838-13.79,23.235-13.79,36.4C14.8,157.589,20.121,170.353,29.439,181.432Z" transform="translate(-14.8 -67.917)" fill="#11a1fd"/>
      <path id="Path_18" data-name="Path 18" d="M184.26,60.86V43.51q-6.011.057-11.871.513a69.458,69.458,0,0,0-7.829,16.153C171,60.588,177.577,60.816,184.26,60.86Z" transform="translate(-70.906 -43.51)" fill="#11a1fd"/>
      <path id="Path_19" data-name="Path 19" d="M220.871,60.252a69.994,69.994,0,0,0-7.918-16.235q-5.8-.443-11.763-.507V60.866C207.86,60.841,214.435,60.638,220.871,60.252Z" transform="translate(-84.629 -43.51)" fill="#11a1fd"/>
      <path id="Path_20" data-name="Path 20" d="M124.13,58c7.038,1.058,14.392,1.9,21.981,2.451a80.08,80.08,0,0,1,7.037-15.513,166.1,166.1,0,0,0-18.75,3.015A73.766,73.766,0,0,0,124.13,58Z" transform="translate(-55.8 -44.034)" fill="#11a1fd"/>
      <path id="Path_21" data-name="Path 21" d="M326.84,78.17a88.531,88.531,0,0,1,12.441,18.1q3.364-.988,6.544-2.04A92.854,92.854,0,0,0,326.84,78.17Z" transform="translate(-131.898 -56.215)" fill="#11a1fd"/>
      <path id="Path_22" data-name="Path 22" d="M118.912,52.56a145.1,145.1,0,0,0-16.932,5.7c3.243.678,6.588,1.3,10.008,1.9a80.508,80.508,0,0,1,6.924-7.6Z" transform="translate(-47.452 -46.827)" fill="#11a1fd"/>
    </g>
  </g>
</svg>
